<svg width="135" height="135" viewBox="0 0 135 135" fill="none" xmlns="http://www.w3.org/2000/svg">
<g clip-path="url(#clip0_1_796)">
<path d="M47.3723 115.001C47.1395 114.469 46.5216 114.224 45.9828 114.459C38.6865 117.652 28.4322 116.097 19.8608 110.492C8.57961 103.117 2.10924 90.2032 2.10924 75.0646C2.10924 58.1142 7.00283 46.3222 16.2591 40.9637C25.7349 35.4812 38.2584 37.6933 45.881 42.0708C46.3868 42.3569 47.0316 42.186 47.3209 41.6813C47.6115 41.1757 47.4364 40.532 46.9317 40.2414C38.5272 35.414 25.458 33.2013 15.2024 39.1382C8.26763 43.1531 0 52.6452 0 75.0646C0 90.9281 6.81822 104.485 18.7062 112.257C24.6594 116.15 31.4096 118.195 37.5844 118.195C40.9041 118.195 44.0569 117.604 46.8296 116.391C47.3631 116.156 47.6063 115.534 47.3723 115.001Z" fill="white"/>
<path d="M65.203 113.742C64.8704 113.264 64.2143 113.145 63.7354 113.476C59.6042 116.333 51.1129 116.329 46.8367 114.416C46.3022 114.177 45.68 114.42 45.4432 114.949C45.2053 115.481 45.4443 116.105 45.9757 116.342C48.2025 117.337 51.2709 117.885 54.4153 117.885C58.2869 117.885 62.2731 117.054 64.9364 115.211C65.4153 114.879 65.5345 114.222 65.203 113.742Z" fill="white"/>
<path d="M77.6099 39.0926C67.3568 33.156 54.2863 35.3694 45.8807 40.1958C45.3762 40.4864 45.2011 41.1301 45.4914 41.6357C45.781 42.1415 46.4258 42.3148 46.9314 42.0252C54.5552 37.6459 67.0764 35.4296 76.5535 40.9181C85.8085 46.2769 90.7031 58.0692 90.7031 75.0192C90.7031 77.965 90.4684 80.8448 90.0027 83.5804C89.9038 84.155 90.2912 84.6991 90.8637 84.7959C90.9236 84.8062 90.9832 84.8122 91.0409 84.8122C91.5478 84.8122 91.9924 84.4478 92.0789 83.9346C92.565 81.0814 92.8124 78.0821 92.8124 75.019C92.8124 52.5996 84.5437 43.1075 77.6099 39.0926Z" fill="white"/>
<path d="M46.4064 114.679C45.8233 114.679 45.3518 115.151 45.3518 115.734V117.071C45.3518 117.654 45.8233 118.126 46.4064 118.126C46.9892 118.126 47.461 117.654 47.461 117.071V115.734C47.461 115.151 46.9892 114.679 46.4064 114.679Z" fill="white"/>
<path d="M43.2627 115.738C42.6799 115.738 42.2081 116.21 42.2081 116.793V117.104C42.2081 117.687 42.6799 118.159 43.2627 118.159C43.8458 118.159 44.3174 117.687 44.3176 117.104V116.793C44.3176 116.21 43.8458 115.738 43.2627 115.738Z" fill="white"/>
<path d="M49.591 115.738C49.0079 115.738 48.5361 116.21 48.5361 116.793V117.104C48.5361 117.687 49.0079 118.159 49.591 118.159C50.1738 118.159 50.6456 117.687 50.6456 117.104V116.793C50.6456 116.21 50.1738 115.738 49.591 115.738Z" fill="white"/>
<path d="M35.3694 8.61492C34.881 8.29054 34.228 8.4224 33.9068 8.90738C33.5835 9.39236 33.7143 10.0467 34.1992 10.37C34.3206 10.4515 46.3436 18.6882 45.3528 37.1729C45.3219 37.7547 45.7676 38.2513 46.3496 38.2832C46.3691 38.2842 46.3879 38.2842 46.4074 38.2842C46.9633 38.2842 47.429 37.8486 47.4602 37.2861C48.5137 17.6117 35.9071 8.97331 35.3694 8.61492Z" fill="white"/>
<path d="M23.1557 45.4158C22.9508 44.8709 22.3453 44.5927 21.7972 44.8008C4.40621 51.3545 8.29529 78.5417 8.46935 79.6952C8.54873 80.2184 8.99863 80.5934 9.51157 80.5934C9.56405 80.5934 9.61679 80.5895 9.67006 80.581C10.246 80.4945 10.6424 79.9568 10.5559 79.3801C10.5158 79.1142 6.72958 52.7324 22.5407 46.7742C23.0855 46.5693 23.3616 45.9604 23.1557 45.4158Z" fill="white"/>
<path d="M78.6235 13.643C77.7379 11.8015 74.4438 10.8674 68.8326 10.8674C63.3377 10.8674 57.3721 11.817 54.6489 13.1251C49.2593 15.7146 46.9789 22.2063 49.5652 27.5962C51.3606 31.3352 55.2014 33.7514 59.35 33.7514C60.9803 33.7514 62.5571 33.3909 64.0371 32.6802C68.6061 30.4861 80.7678 18.1099 78.6235 13.643ZM63.1246 30.7785C61.9321 31.3513 60.6623 31.6417 59.35 31.6417C56.0076 31.6417 52.9123 29.6952 51.4663 26.6835C49.384 22.3411 51.2213 17.112 55.5617 15.0262C57.9955 13.8585 63.7006 12.9769 68.8328 12.9769C74.4728 12.9769 76.461 14.0109 76.7244 14.5566C77.8531 16.9121 68.3218 28.2829 63.1246 30.7785Z" fill="white"/>
<path d="M68.7301 18.6152C68.5816 18.0516 68.0009 17.7138 67.4415 17.8641C67.0325 17.9712 57.3817 20.5501 53.6255 24.5568C53.227 24.9811 53.2486 25.6486 53.674 26.0471C53.8768 26.2378 54.1363 26.3324 54.3948 26.3324C54.6759 26.3324 54.9562 26.2201 55.1643 25.9991C58.5064 22.4354 67.8856 19.9285 67.9792 19.9037C68.5425 19.7552 68.8783 19.1785 68.7301 18.6152Z" fill="white"/>
<path d="M133.945 86.4847H60.1172C59.5344 86.4847 59.0626 86.9565 59.0626 87.5396C59.0626 88.1224 59.5344 88.5942 60.1172 88.5942H133.945C134.528 88.5942 135 88.1224 135 87.5396C135 86.9565 134.528 86.4847 133.945 86.4847Z" fill="white"/>
<path d="M133.945 87.5396C133.362 87.5396 132.891 88.0111 132.891 88.5942C132.891 108.368 116.804 124.454 97.0311 124.454C77.2579 124.454 61.1717 108.368 61.1717 88.5942C61.1717 88.0111 60.6999 87.5396 60.1169 87.5396C59.534 87.5396 59.0622 88.0111 59.0622 88.5942C59.0622 109.532 76.0938 126.563 97.0311 126.563C117.968 126.563 135 109.532 135 88.5942C135 88.0111 134.528 87.5396 133.945 87.5396Z" fill="white"/>
<path d="M110.097 90.7865C109.564 90.5618 108.944 90.8171 108.719 91.3527C106.746 96.0843 102.158 99.1414 97.0312 99.1414C91.9305 99.1414 87.3534 96.1073 85.3676 91.4104C85.1413 90.8748 84.5232 90.6216 83.9875 90.85C83.4498 91.0766 83.2009 91.6947 83.4271 92.2322C85.7426 97.7115 91.0819 101.251 97.0312 101.251C103.013 101.251 108.365 97.6846 110.664 92.1644C110.89 91.6269 110.635 91.0088 110.097 90.7865Z" fill="white"/>
<path d="M129.677 90.71C129.105 90.6337 128.581 91.0765 128.528 91.6575C126.962 107.949 113.42 120.235 97.0311 120.235C80.638 120.235 67.0992 107.949 65.5356 91.6554C65.4802 91.0763 64.9704 90.6295 64.3852 90.7078C63.8053 90.7635 63.381 91.2783 63.4366 91.8571C65.1044 109.239 79.5465 122.344 97.0311 122.344C114.512 122.344 128.956 109.239 130.625 91.8593C130.682 91.2804 130.258 90.7656 129.677 90.71Z" fill="white"/>
<path d="M60.1172 86.4847C59.5344 86.4847 59.0626 86.9565 59.0626 87.5396V88.5942C59.0626 89.177 59.5344 89.6488 60.1172 89.6488C60.7003 89.6488 61.1718 89.177 61.1721 88.5942V87.5396C61.1721 86.9565 60.7003 86.4847 60.1172 86.4847Z" fill="white"/>
<path d="M133.945 86.4847C133.362 86.4847 132.891 86.9565 132.891 87.5396V88.5942C132.891 89.177 133.362 89.6488 133.945 89.6488C134.528 89.6488 135 89.177 135 88.5942V87.5396C135 86.9565 134.528 86.4847 133.945 86.4847Z" fill="white"/>
<path d="M93.929 92.8129H93.9084C93.3277 92.8129 92.8662 93.2847 92.8662 93.8675C92.8662 94.4506 93.3483 94.9222 93.929 94.9222C94.5142 94.9222 94.9836 94.4506 94.9836 93.8675C94.9836 93.2847 94.5142 92.8129 93.929 92.8129Z" fill="white"/>
<path d="M102.366 90.7037H102.346C101.765 90.7037 101.304 91.1753 101.304 91.7583C101.304 92.3412 101.786 92.813 102.366 92.813C102.952 92.813 103.421 92.3412 103.421 91.7583C103.421 91.1753 102.952 90.7037 102.366 90.7037Z" fill="white"/>
</g>
<defs>
<clipPath id="clip0_1_796">
<rect width="135" height="135" fill="white"/>
</clipPath>
</defs>
</svg>
