<svg width="120" height="120" viewBox="0 0 120 120" fill="none" xmlns="http://www.w3.org/2000/svg">
<g clip-path="url(#clip0_1_934)">
<path d="M119.887 29.6127C119.368 28.6626 116.671 23.899 114.417 23.3845C113.864 23.2591 113.333 23.3578 112.89 23.6747C110.929 25.0847 109.029 27.5069 108.948 27.6096C108.629 28.0177 108.703 28.6066 109.111 28.9252C109.517 29.2412 110.107 29.1725 110.427 28.7632C110.444 28.7402 112.238 26.4523 113.956 25.2064C113.961 25.2064 113.967 25.2064 113.97 25.2064C114.642 25.2064 116.53 27.5044 117.999 30.0797C116.31 33.391 108.68 48.8679 111.02 53.7761C114.728 61.5564 111.282 68.6279 107.736 73.191C96.9779 87.0371 69.0345 98.7523 42.6437 93.5356C28.3377 90.7066 9.7489 81.7069 2.04925 54.9635L8.11548 51.8992C16.1939 63.8467 30.0862 70.7917 47.3437 71.4786C68.3275 72.308 90.1756 63.4824 100.538 49.95L112.256 32.4581C112.545 32.0277 112.43 31.4454 112 31.157C111.568 30.8697 110.985 30.9831 110.7 31.4144L99.0157 48.8579C89.0347 61.8874 67.8294 70.4148 47.4187 69.6054C30.4523 68.93 16.8878 62.0285 9.22498 50.1771C8.96501 49.7735 8.44484 49.6314 8.01468 49.8494L0.514754 53.6378C0.115777 53.8394 -0.0858214 54.2944 0.0351376 54.7246C7.85575 82.965 27.325 92.4186 42.281 95.3741C46.7598 96.2602 51.2826 96.6683 55.7649 96.6683C78.3929 96.6683 99.9517 86.2644 109.217 74.3406C114.765 67.1996 115.973 59.8103 112.712 52.9686C111.149 49.691 116.288 37.4432 119.894 30.4934C120.038 30.2161 120.035 29.8865 119.887 29.6127Z" fill="white"/>
<path d="M116.86 34.8861C113.474 32.8153 110.048 29.7079 110.548 28.5599C110.753 28.0857 110.535 27.5327 110.061 27.3267C109.59 27.1178 109.034 27.3367 108.827 27.8128C107.439 31.007 113.875 35.2589 115.882 36.4865C116.034 36.5798 116.202 36.6239 116.371 36.6239C116.685 36.6239 116.993 36.4645 117.171 36.1752C117.44 35.7338 117.301 35.1571 116.86 34.8861Z" fill="white"/>
<path d="M102.576 53.5832C102.105 53.368 101.55 53.5776 101.334 54.0483C97.0822 63.4022 78.4405 75.0384 57.4677 77.4555C37.9762 79.7021 21.3907 73.3192 10.743 59.4891C10.4264 59.0772 9.83679 59.0013 9.42844 59.3189C9.01844 59.6347 8.94156 60.2235 9.25638 60.6338C18.8747 73.1251 33.124 79.7734 49.9293 79.7734C52.458 79.7734 55.0452 79.6213 57.6819 79.3177C75.1225 77.3092 97.5107 66.9874 103.041 54.8247C103.255 54.3533 103.046 53.7975 102.576 53.5832Z" fill="white"/>
<path d="M97.3039 47.614C96.9854 47.2019 96.3958 47.1285 95.9893 47.4454C95.7205 47.6534 95.4457 47.8557 95.1729 48.0551C81.647 57.888 59.169 61.1354 40.4996 55.9442C25.7761 51.8508 14.8889 43.0215 9.84425 31.0822C9.65742 30.642 9.16492 30.4076 8.70897 30.5503L0.667077 32.9819C0.238563 33.1108 -0.0380484 33.5239 0.00414659 33.9688C0.525958 39.3667 1.59349 44.4597 3.18284 49.1051C3.34927 49.5957 3.88234 49.8548 4.37297 49.689C4.86196 49.5214 5.12381 48.9888 4.95526 48.4989C3.49039 44.2098 2.47982 39.5221 1.94863 34.5527L8.45252 32.5862C13.8615 44.6692 25.0307 53.5893 39.9977 57.7504C46.2524 59.4898 52.8316 60.3313 59.35 60.3313C73.1323 60.3313 86.6492 56.5685 96.2786 49.5692C96.566 49.3571 96.8553 49.1457 97.1354 48.9286C97.5456 48.6119 97.6209 48.0233 97.3039 47.614Z" fill="white"/>
<path d="M47.9758 65.907C36.0412 63.8052 19.4501 57.3111 8.17819 38.303C7.91447 37.8555 7.33757 37.7116 6.89452 37.9743C6.4496 38.2388 6.30122 38.8138 6.56681 39.2587C18.1995 58.8794 35.3288 65.583 47.65 67.7528C47.7048 67.7635 47.7599 67.7673 47.8148 67.7673C48.2595 67.7673 48.6551 67.4468 48.7358 66.9928C48.8256 66.4839 48.4847 65.9967 47.9758 65.907Z" fill="white"/>
</g>
<defs>
<clipPath id="clip0_1_934">
<rect width="120" height="120" fill="white"/>
</clipPath>
</defs>
</svg>
