<svg width="945" height="110" viewBox="0 0 945 110" fill="none" xmlns="http://www.w3.org/2000/svg">
<path d="M601.942 1.02534L602.919 0.843848L602.528 0.299441C607.026 -0.426464 620.322 0.117987 621.3 2.47718C615.629 2.84013 607.026 2.11419 601.942 1.02534Z" fill="white"/>
<path d="M177.62 11.551C182.704 9.91769 190.917 7.37698 198.152 8.10289C196.392 10.0991 191.699 10.6436 186.615 10.825C185.051 11.9139 178.598 14.0916 177.62 11.551Z" fill="white"/>
<path d="M369.836 18.9915C364.361 17.7212 368.663 14.8176 369.249 12.4584C370.814 11.7325 372.573 11.0065 375.311 10.8251C378.244 13.9102 374.138 17.9026 369.836 18.9915Z" fill="white"/>
<path d="M658.062 12.2769C656.693 12.2769 655.715 12.2769 655.715 11.7324C656.693 11.7324 658.648 11.3695 658.062 12.2769Z" fill="white"/>
<path d="M184.855 14.636C185.637 14.636 185.637 14.2731 186.615 14.2731C188.961 15.1805 189.157 17.7211 186.028 18.2655L185.051 18.084L184.073 18.2655C184.464 17.1767 183.682 15.3619 184.855 14.636Z" fill="white"/>
<path d="M610.35 18.0841C608.981 18.0841 608.003 18.0841 608.003 17.5396C608.59 16.9952 610.545 17.1767 610.35 18.0841Z" fill="white"/>
<path d="M715.159 18.0841C715.55 18.0841 715.941 18.0841 716.332 18.0841C716.332 18.2656 716.332 18.4471 716.332 18.6286C715.941 18.6286 715.55 18.6286 715.159 18.6286C715.159 18.4471 715.159 18.2656 715.159 18.0841Z" fill="white"/>
<path d="M637.53 20.8064C634.597 20.625 633.424 19.5361 632.055 18.6287C635.379 17.9028 639.485 18.9917 637.53 20.8064Z" fill="white"/>
<path d="M617.585 18.9914C616.021 18.9914 614.652 18.9915 614.652 18.447C615.629 18.6285 618.171 17.9026 617.585 18.9914Z" fill="white"/>
<path d="M595.293 18.9916C596.075 18.4471 598.422 18.8101 599.595 18.4471C600.573 19.7175 595.293 20.2619 595.293 18.9916Z" fill="white"/>
<path d="M99.7953 18.4471C100.577 18.6286 102.924 18.0841 102.728 18.8101C101.946 18.6286 99.7953 18.9915 99.7953 18.4471Z" fill="white"/>
<path d="M653.173 22.0768C652.978 20.988 654.933 21.1694 655.52 20.4435C654.151 19.1732 650.631 21.1694 648.285 20.0806C648.871 18.2658 654.151 18.4473 657.279 18.8103C657.67 20.625 661.386 20.625 662.168 22.2583C658.844 23.1657 656.302 22.4398 653.173 22.0768Z" fill="white"/>
<path d="M36.0493 19.3545C36.4404 19.3545 36.8314 19.3545 37.2225 19.3545C37.2225 19.536 37.2225 19.7174 37.2225 19.8989C36.8314 19.8989 36.4404 19.8989 36.0493 19.8989C36.0493 19.7174 36.0493 19.536 36.0493 19.3545Z" fill="white"/>
<path d="M284.385 19.8988C285.754 20.8062 289.665 20.4433 289.273 22.4395C286.145 23.7099 280.865 20.9877 284.385 19.8988Z" fill="white"/>
<path d="M195.61 20.2619C196.392 21.3508 192.677 20.4434 193.85 19.8989C194.437 19.7175 195.61 20.0804 195.61 20.2619Z" fill="white"/>
<path d="M413.832 22.0767C415.788 21.8952 416.57 22.2582 416.179 23.347C414.81 23.1655 413.441 23.1655 413.832 22.0767Z" fill="white"/>
<path d="M663.928 22.8025C664.71 22.621 665.492 22.4396 666.861 22.4396C667.643 23.5284 664.123 23.7099 663.928 22.8025Z" fill="white"/>
<path d="M182.509 25.5246C182.509 24.7987 182.313 24.0728 183.682 23.8914C183.878 24.2543 184.66 24.4358 184.855 24.7987C183.291 24.6173 183.682 25.5246 182.509 25.5246Z" fill="white"/>
<path d="M468.779 26.432C464.477 26.6135 459.393 27.3394 456.655 26.0691C461.935 24.9802 473.667 23.8913 476.6 25.7061C475.036 26.9764 471.516 26.2505 468.779 26.432Z" fill="white"/>
<path d="M841.869 27.7025C841.869 26.7951 843.238 26.6136 844.215 26.0692C844.607 27.3395 842.651 27.1581 841.869 27.7025Z" fill="white"/>
<path d="M592.947 29.88C592.751 28.7912 590.209 28.9727 588.058 28.9727C586.689 28.0653 587.276 27.8838 587.472 26.432C590.991 26.432 591.382 28.0653 594.706 28.0653C594.315 28.7912 593.533 29.3356 592.947 29.88Z" fill="white"/>
<path d="M314.498 28.9727C313.911 28.2468 316.453 27.521 316.844 28.4283C315.867 28.4283 316.258 29.3357 314.498 28.9727Z" fill="white"/>
<path d="M325.253 28.6096C324.275 28.7911 323.688 29.154 322.906 29.154C322.32 28.4281 324.862 27.8837 325.253 28.6096Z" fill="white"/>
<path d="M79.068 30.243L78.2858 29.88C78.2858 29.5171 78.2858 28.9727 78.2858 28.6097C85.1297 28.4283 92.7559 28.4283 99.4042 28.6097C100.969 28.6097 104.488 28.2468 104.879 29.5171C96.2756 30.606 87.8674 29.5171 78.8725 30.7874L79.068 30.243Z" fill="white"/>
<path d="M67.9223 32.6021C67.9223 31.5133 73.7884 30.9689 76.3305 30.4244V30.9688H77.5038C76.5261 33.1466 67.7267 34.9613 67.9223 32.6021Z" fill="white"/>
<path d="M355.366 28.9726C356.735 29.1541 356.735 28.4282 358.299 28.6097C358.299 28.9727 358.495 29.3356 358.886 29.5171C358.103 30.0615 354.975 30.0615 355.366 28.9726Z" fill="white"/>
<path d="M345.198 29.88L346.175 29.5171L345.784 28.9726C347.544 28.7911 347.544 29.5171 349.304 29.3356C349.5 30.6059 346.371 30.6059 345.198 29.88Z" fill="white"/>
<path d="M350.673 42.765C349.891 42.9465 347.544 42.4021 347.74 43.128C347.935 43.4909 348.522 43.6724 348.326 44.3983C351.455 44.2168 353.801 44.3983 354.975 45.3057C351.455 45.8501 350.673 47.6649 348.913 48.9352C342.851 50.75 339.332 47.8464 334.443 47.6649C328.577 47.4834 326.23 48.9352 321.146 48.9352C316.453 48.7537 314.107 49.1167 310.978 48.5723C305.112 52.7462 293.184 50.0241 282.625 50.387C280.67 47.4834 277.736 45.3057 269.915 45.4872C269.915 44.0353 271.675 43.4909 271.088 41.8576C267.764 40.9502 266.786 42.4021 262.093 42.2206C260.92 41.4947 259.551 40.7688 257.205 40.5873L257.596 40.0429L256.618 39.8614C256.618 39.4984 256.227 39.4984 256.032 39.317L256.423 38.7726L255.445 38.5911C255.445 38.0466 257.4 38.4096 257.792 38.0466C259.747 38.954 265.809 40.7688 268.546 39.317C268.546 36.9578 263.853 37.1392 263.071 35.3245C265.026 34.5986 266.982 35.6874 269.719 35.3245C269.915 35.143 270.306 34.9615 270.893 34.9615C271.284 32.9653 273.239 30.969 278.714 30.0617C280.474 29.6987 283.016 30.0617 285.363 29.6987C286.34 29.5173 286.731 28.9728 287.122 28.7914C292.011 27.7025 295.922 29.5173 297.877 30.4246C299.05 29.8802 300.028 29.3358 302.179 29.1543C303.743 29.8802 306.481 29.8802 309.414 29.6987C312.152 30.4247 313.129 32.0579 317.236 32.2394C320.364 36.0504 325.839 38.5911 336.007 38.7726C337.572 39.1355 337.963 40.0429 338.941 40.5873C342.656 41.1318 348.717 40.5873 351.064 41.8576C355.366 42.0391 359.668 42.2206 361.819 43.4909C357.712 44.2168 354.779 44.0353 350.673 42.765Z" fill="white"/>
<path d="M247.623 41.3131C247.819 40.2243 245.864 40.4057 245.277 39.6798C246.255 38.591 251.534 38.228 253.099 39.3169L252.707 39.6798L252.316 40.0428C251.143 40.7687 249.579 41.1316 247.623 41.3131Z" fill="white"/>
<path d="M612.696 31.1505C610.154 32.0579 608.003 30.6061 607.808 29.3357C610.154 28.4283 612.696 29.6987 612.696 31.1505Z" fill="white"/>
<path d="M336.79 28.9728C337.181 28.9728 337.572 28.9728 337.963 28.9728C337.963 29.1543 337.963 29.3358 337.963 29.5172C337.572 29.5172 337.181 29.5172 336.79 29.5172C336.79 29.3358 336.79 29.1543 336.79 28.9728Z" fill="white"/>
<path d="M450.007 29.5171C451.376 30.4245 453.918 29.1541 450.007 29.5171V29.5171Z" fill="white"/>
<path d="M338.549 31.6949C337.181 32.7837 332.292 32.0578 331.314 31.1505C332.879 30.7875 338.941 29.6987 339.136 31.5134L340.114 31.6949C339.527 31.6949 338.94 31.5134 338.354 31.332L338.549 31.6949Z" fill="white"/>
<path d="M169.799 30.4244C170.972 30.6059 173.514 30.0615 172.732 30.9689C171.363 31.1503 170.385 30.9689 169.799 30.4244Z" fill="white"/>
<path d="M157.675 30.7875C159.044 30.606 160.022 30.2431 161.977 30.4246C162.173 31.8764 158.457 31.3319 157.675 30.7875Z" fill="white"/>
<path d="M660.408 30.7875C661.777 31.6948 664.319 30.4245 660.408 30.7875V30.7875Z" fill="white"/>
<path d="M357.126 32.9651C355.17 32.9651 352.628 33.1465 351.651 32.6021L352.042 32.0577L352.433 31.5133C353.019 30.9689 353.606 30.4244 355.366 30.6059C355.953 31.5133 357.126 32.0577 357.126 32.9651Z" fill="white"/>
<path d="M147.507 31.1504C149.658 31.3319 152.2 30.2431 152.982 31.5134C151.222 31.8764 148.876 31.6949 147.507 31.1504Z" fill="white"/>
<path d="M357.908 32.2394C359.276 32.2394 360.254 32.2394 360.254 32.7838C358.885 32.9653 357.908 32.7838 357.908 32.2394Z" fill="white"/>
<path d="M371.009 33.8725C370.423 33.8725 370.031 34.2355 369.836 34.4169C368.076 33.5096 362.796 34.2355 362.601 32.6022C365.925 32.7836 370.814 32.0578 371.009 33.8725Z" fill="white"/>
<path d="M462.717 34.78C460.371 34.78 458.415 34.78 457.242 34.2356L457.633 33.6911L457.242 33.1467C459.393 32.4208 463.891 32.7838 462.717 34.78Z" fill="white"/>
<path d="M825.444 39.1353C824.27 40.0427 824.27 41.1316 822.51 41.3131C823.879 41.3131 824.857 41.313 824.857 41.8575L823.879 42.039L824.27 42.5834C820.751 42.4019 818.795 42.9463 815.862 42.9463C814.885 41.8575 818.6 40.7686 817.622 39.4983C824.661 38.5909 826.03 34.9614 831.505 33.3281C833.852 35.1429 828.181 37.3206 825.444 39.1353Z" fill="white"/>
<path d="M662.754 34.417C661.777 34.9614 658.648 34.9614 659.039 33.8726C660.799 33.8726 662.754 33.6911 662.754 34.417Z" fill="white"/>
<path d="M237.26 35.1431C236.087 33.3283 242.93 33.5098 243.322 34.5986C242.344 35.1431 238.433 35.3246 237.26 35.1431Z" fill="white"/>
<path d="M516.295 35.6872C515.513 35.6872 514.731 35.6872 513.949 35.6872C515.122 34.9613 512.776 34.2354 515.122 34.054C514.535 35.1428 516.1 35.1428 516.295 35.6872Z" fill="white"/>
<path d="M353.606 34.417C353.997 35.6874 350.673 35.6874 351.26 34.417C352.824 34.417 352.433 33.8726 353.606 34.417Z" fill="white"/>
<path d="M901.704 37.6836L900.726 37.5021C901.508 36.4133 904.246 36.4133 906.788 35.8688C910.699 35.1429 915.392 34.2355 920.085 34.9615C917.934 38.0465 907.961 37.1391 901.313 38.0465L901.704 37.6836Z" fill="white"/>
<path d="M859.859 34.78C861.227 34.78 862.205 34.78 862.205 35.3244C860.836 35.5059 860.054 35.3245 859.859 34.78Z" fill="white"/>
<path d="M533.894 35.3244C532.916 35.3244 530.961 35.6874 531.547 34.78C532.721 34.78 533.698 34.78 533.894 35.3244Z" fill="white"/>
<path d="M826.813 40.587C826.421 39.4981 827.986 39.3167 829.746 39.3167C829.746 40.224 828.963 40.95 826.813 40.587Z" fill="white"/>
<path d="M161.977 39.6798C162.564 40.9502 160.608 40.9501 158.457 40.9501C157.871 39.6798 160.608 39.1354 161.977 39.6798Z" fill="white"/>
<path d="M841.282 40.5872C841.478 39.8612 844.215 40.4057 845.584 40.2242C846.366 41.4945 840.891 41.8575 841.282 40.5872Z" fill="white"/>
<path d="M238.433 42.5833C235.695 42.7648 236.478 40.9501 238.433 40.9501C239.606 41.4945 238.628 41.676 238.433 42.5833Z" fill="white"/>
<path d="M804.521 42.2205C804.325 41.4946 805.303 41.1316 806.867 41.3131C807.454 42.2205 806.085 42.2205 804.521 42.2205Z" fill="white"/>
<path d="M428.302 42.2205C427.716 42.2205 427.129 42.2205 426.542 42.2205C426.542 41.8575 426.542 41.6761 426.542 41.3131C426.933 41.3131 427.324 41.3131 427.716 41.3131C427.716 41.6761 428.498 41.6761 428.302 42.2205Z" fill="white"/>
<path d="M830.919 41.8574C832.287 41.8574 833.265 41.8575 833.265 42.4019C832.483 42.9463 830.723 42.7648 830.919 41.8574Z" fill="white"/>
<path d="M242.735 42.2206C243.517 42.5835 243.517 43.3094 242.148 43.4909C242.148 42.9465 241.953 42.2206 242.735 42.2206Z" fill="white"/>
<path d="M232.371 43.4908C232.371 43.1278 232.371 42.9463 232.371 42.5834C232.762 42.5834 233.153 42.5834 233.545 42.5834C233.545 42.9463 234.327 42.9463 234.131 43.4908C233.74 43.4908 233.153 43.4908 232.371 43.4908Z" fill="white"/>
<path d="M555.598 42.765C555.794 43.6724 554.816 44.0353 553.839 44.3983C553.643 43.8539 552.47 44.0354 551.492 44.0354C551.297 42.5836 554.034 43.8539 555.598 42.765Z" fill="white"/>
<path d="M549.537 42.765C549.537 43.128 549.732 43.4909 550.123 43.6724C549.537 43.6724 548.95 43.6724 548.364 43.6724C548.168 43.128 548.755 42.9465 549.537 42.765Z" fill="white"/>
<path d="M832.092 43.6723C831.114 43.4909 829.55 43.4909 829.159 43.1279C830.723 43.1279 832.092 43.1279 832.092 43.6723Z" fill="white"/>
<path d="M792.984 44.3983C791.42 44.3983 790.051 44.3983 790.051 43.8539C791.42 43.4909 792.788 43.3094 792.984 44.3983Z" fill="white"/>
<path d="M242.735 44.9426C241.562 46.5759 234.327 46.0315 234.327 44.3982C237.26 43.6723 240.78 43.8538 242.735 44.9426Z" fill="white"/>
<path d="M500.652 45.6685C500.652 44.9426 501.63 44.7612 501.825 44.0353C504.172 43.8538 505.541 44.2167 506.127 44.9426C503.976 45.1241 503.194 45.85 500.652 45.6685Z" fill="white"/>
<path d="M424.782 44.7611C423.805 44.7611 423.218 44.5797 423.023 44.2167C424 44.0353 424.391 44.2167 424.782 44.7611Z" fill="white"/>
<path d="M544.062 44.3982C544.453 44.3982 544.844 44.3982 545.235 44.3982C545.235 44.5797 545.235 44.7612 545.235 44.9427C544.844 44.9427 544.453 44.9427 544.062 44.9427C544.062 44.7612 544.062 44.5797 544.062 44.3982Z" fill="white"/>
<path d="M407.77 44.3982C408.944 44.5797 411.877 43.8538 411.29 44.9426C410.899 45.6686 406.988 45.487 407.77 44.3982Z" fill="white"/>
<path d="M265.027 52.7461C262.093 52.2016 262.093 53.109 259.551 53.109C255.836 51.8387 253.294 49.8424 248.797 49.1165C248.406 46.9388 251.339 46.5759 252.512 45.1241C258.183 44.0352 261.702 44.9426 265.222 46.3944C266.395 46.3944 267.569 46.3944 268.937 46.3944C269.133 46.9388 270.306 47.1203 270.111 48.0277C270.306 48.9351 267.96 48.3906 267.764 48.9351C268.937 50.9313 265.809 50.9313 265.027 52.7461Z" fill="white"/>
<path d="M495.763 44.9427C496.154 44.9427 496.546 44.9427 496.937 44.9427C496.937 45.1242 496.937 45.3057 496.937 45.4872C496.546 45.4872 496.154 45.4872 495.763 45.4872C495.763 45.3057 495.763 45.1242 495.763 44.9427Z" fill="white"/>
<path d="M416.961 45.3057C417.743 45.1242 418.525 44.9427 419.894 44.9427C420.872 45.8501 416.765 45.8501 416.961 45.3057Z" fill="white"/>
<path d="M523.53 45.85C525.095 44.3982 530.374 45.85 530.765 47.1203C527.245 47.3018 524.704 47.4833 523.53 45.85Z" fill="white"/>
<path d="M513.949 46.213C513.949 46.0315 513.949 45.8501 513.949 45.6686C514.535 45.6686 515.122 45.6686 515.709 45.6686C515.709 45.8501 515.709 46.0315 515.709 46.213C515.122 46.213 514.535 46.213 513.949 46.213Z" fill="white"/>
<path d="M430.844 45.85C430.844 46.2129 431.626 46.2129 431.431 46.7574C431.04 46.7574 430.649 46.7574 430.258 46.7574C429.475 46.3944 429.476 46.0315 430.844 45.85Z" fill="white"/>
<path d="M533.894 47.8462C534.089 47.1203 534.481 46.5758 535.654 46.2129C535.849 46.9388 538.587 46.3944 538 47.4832C537.609 48.0277 534.872 48.2092 533.894 47.8462Z" fill="white"/>
<path d="M438.079 47.1202C437.102 47.8461 433.973 47.8462 433.777 46.5758C435.146 45.8499 437.688 46.3943 438.079 47.1202Z" fill="white"/>
<path d="M502.998 46.5758C504.563 46.7573 506.323 46.9388 507.3 47.4832C505.54 47.3017 502.216 48.0276 502.998 46.5758Z" fill="white"/>
<path d="M448.834 46.5758C450.594 48.0276 446.096 48.572 444.532 47.4832L445.51 47.1202L445.119 46.5758C446.487 46.5758 447.66 46.5758 448.834 46.5758Z" fill="white"/>
<path d="M502.412 49.661C502.412 49.2981 502.412 48.7536 502.412 48.3906C503.781 48.2092 504.758 48.3907 505.345 48.7536C505.736 49.661 504.172 49.661 502.412 49.661Z" fill="white"/>
<path d="M271.088 48.9351C273.435 48.9351 275.195 49.1165 275.977 49.8424C273.435 50.0239 271.479 49.8424 271.088 48.9351Z" fill="white"/>
<path d="M421.067 49.8424C420.285 49.8424 419.503 49.8424 418.721 49.8424C418.721 49.6609 418.721 49.4794 418.721 49.298C419.503 49.298 420.285 49.298 421.067 49.298C421.067 49.4794 421.067 49.6609 421.067 49.8424Z" fill="white"/>
<path d="M236.087 50.5683C236.087 50.2054 236.087 49.6609 236.087 49.298C236.673 49.298 237.26 49.298 237.846 49.298C238.042 50.0239 237.651 50.5683 236.087 50.5683Z" fill="white"/>
<path d="M348.718 51.4758C347.544 51.4758 346.762 51.2943 346.371 50.9313C347.74 50.7499 348.718 50.9314 348.718 51.4758Z" fill="white"/>
<path d="M430.062 51.8387C431.626 51.6572 432.8 51.2942 433.777 52.2016C432.8 51.8387 430.258 52.3831 430.062 51.8387Z" fill="white"/>
<path d="M701.471 51.8386C701.471 52.2016 701.667 52.5645 702.058 52.746C700.689 52.5645 700.689 53.2905 699.125 53.109C698.733 52.0201 699.516 51.6572 701.471 51.8386Z" fill="white"/>
<path d="M451.767 52.3831C451.963 52.9275 451.181 53.109 451.181 53.6534C450.007 53.6534 448.834 53.6534 447.661 53.6534C446.488 52.0201 450.203 51.6572 451.767 52.3831Z" fill="white"/>
<path d="M511.602 52.9276C512.384 54.0165 508.669 53.1091 509.842 52.5646C510.233 52.3831 511.407 52.9276 511.602 52.9276Z" fill="white"/>
<path d="M319.191 52.7461C320.951 52.7461 321.342 53.472 322.124 54.0165C320.56 54.7424 318.8 53.835 319.191 52.7461Z" fill="white"/>
<path d="M309.61 54.9239C309.414 53.6536 310.196 52.9277 312.543 53.1091C313.129 53.6536 313.716 54.3795 314.303 54.9239L313.912 55.2868L314.303 55.6498C313.129 55.1054 310.783 55.2869 309.61 54.9239Z" fill="white"/>
<path d="M300.615 53.6534C300.224 53.6534 299.833 53.6534 299.442 53.6534C299.442 53.4719 299.442 53.2905 299.442 53.109C299.833 53.109 300.224 53.109 300.615 53.109C300.615 53.2905 300.615 53.4719 300.615 53.6534Z" fill="white"/>
<path d="M459.589 55.4683C458.611 55.4683 458.024 55.2868 457.829 54.9239C458.806 54.9239 459.98 54.7424 459.589 55.4683Z" fill="white"/>
<path d="M507.3 57.1014C506.518 57.2829 506.127 57.4644 504.954 57.4644C503.976 56.92 504.367 55.8311 505.54 55.6497C504.954 56.557 507.887 55.8311 507.3 57.1014Z" fill="white"/>
<path d="M305.308 58.1904C306.285 59.0978 302.179 58.9163 302.375 58.5534C303.743 58.7348 303.743 58.0089 305.308 58.1904Z" fill="white"/>
<path d="M304.134 61.2754C303.548 61.2754 302.961 61.2754 302.375 61.2754C302.375 61.0939 302.375 60.9124 302.375 60.731C302.961 60.731 303.548 60.731 304.134 60.731C304.134 60.9124 304.134 61.0939 304.134 61.2754Z" fill="white"/>
<path d="M454.896 63.8163C456.264 64.9051 457.242 62.7274 454.896 63.8163V63.8163Z" fill="white"/>
<path d="M466.237 67.6272C467.215 67.6272 466.628 66.9012 467.997 67.0827C468.584 67.6271 466.628 68.3531 466.237 67.6272Z" fill="white"/>
<path d="M325.253 69.079C324.275 69.079 323.688 68.8975 323.493 68.5346C324.471 68.5346 325.644 68.3531 325.253 69.079Z" fill="white"/>
<path d="M465.064 69.6234C465.064 69.2605 465.064 69.079 465.064 68.7161C466.433 68.7161 467.41 68.716 467.41 69.2605C466.628 69.4419 466.433 69.8049 465.064 69.6234Z" fill="white"/>
<path d="M336.79 71.6196C335.616 71.6196 336.007 72.527 334.443 72.1641C334.248 71.2567 336.398 70.5307 336.79 71.6196Z" fill="white"/>
<path d="M105.857 18.4471C106.639 18.4471 108.203 18.4472 107.03 18.8101C105.466 19.1731 105.075 17.5398 105.857 18.4471Z" fill="white"/>
<path d="M486.965 63.4531C486.572 63.6353 487.357 63.6353 486.965 63.4531V63.4531Z" fill="white"/>
<path d="M-60.5474 91.4005V79.4231C-56.8321 79.4231 -52.7257 79.4231 -48.4239 80.3305C-49.0105 79.9675 -49.206 79.4231 -49.0105 78.6972C-47.6417 78.5157 -46.664 78.1527 -44.7086 78.3342C-43.9264 79.786 -42.3621 79.9675 -44.122 81.4193C-43.1443 81.7823 -39.8201 82.6897 -39.2335 81.4193C-39.8201 81.4193 -40.4068 81.4193 -40.9934 81.4193C-41.3845 80.149 -38.4513 79.9675 -39.8201 79.2416C-42.3621 77.9713 -35.5182 76.8824 -35.5182 74.8862C-37.6691 73.6159 -42.3622 73.6159 -43.9265 72.164L-42.9488 71.8011L-43.3398 71.2567C-38.6468 71.6196 -33.3673 73.2529 -28.8699 71.8011C-24.7635 72.7084 -21.4394 73.9788 -15.5732 73.9788C-16.1598 73.0714 -14.5954 73.0714 -14.3999 72.3455C-12.249 72.7085 -7.75151 72.527 -7.16489 71.0752C-8.92475 71.0752 -11.2713 71.2567 -11.4668 70.5308L-10.4891 70.1678L-10.8802 69.6234C-9.9025 68.8975 -5.60067 69.8048 -4.81851 69.0789C-5.60067 67.9901 -6.77388 67.2642 -8.3382 66.5383C-13.0312 66.9012 -14.791 64.7235 -19.0929 63.9976C-19.484 62.3643 -20.2661 60.9125 -24.568 61.2755C-24.568 60.5496 -24.568 59.8237 -23.9814 59.4607C-21.2438 60.0051 -20.2661 59.6422 -17.9196 60.0051C-19.4839 57.6459 -28.0877 58.5533 -30.6297 60.0051C-32.7806 59.8236 -37.0826 60.5495 -36.6915 59.0977C-35.1272 59.0977 -33.7583 58.9163 -32.9762 58.5533C-34.9316 57.8274 -35.9093 56.5571 -39.038 56.3756C-39.038 57.1015 -39.038 57.8274 -39.6246 58.1903C-40.7978 58.1903 -41.971 58.1903 -43.1443 58.1903C-42.7532 59.8236 -46.664 59.4607 -46.0774 60.3681C-46.664 59.4607 -48.8149 59.2792 -50.3793 58.7348C-49.7926 57.6459 -46.8595 57.6459 -48.6194 56.1941C-45.8818 55.2867 -42.5576 54.3794 -38.4513 54.9238C-36.1048 54.0164 -35.3227 53.109 -31.2164 53.6534L-31.6074 54.1979L-30.6297 54.0164C-28.4787 54.9238 -26.3279 53.6535 -23.3948 53.109C-20.6572 52.5646 -19.2884 53.472 -19.875 51.8387L-18.8973 51.4757L-19.2884 50.9313C-16.5508 50.9313 -13.2267 51.1128 -12.6401 50.0239L-11.6624 49.8424L-12.0534 49.298C-3.64517 49.298 4.17642 46.3944 11.4114 47.6647L10.4337 48.0277L13.9534 48.2091C16.4954 48.2091 18.8419 48.0277 21.1884 48.5721L20.7973 48.0277C22.5571 47.8462 24.3169 47.4832 24.5125 46.3944C22.166 46.0314 20.7973 46.0314 18.4508 46.3944C19.0374 45.487 16.4953 46.0315 16.6909 45.1241L17.6686 44.9426C17.082 44.9426 16.6909 44.9426 16.1043 44.7611C15.7132 44.5796 15.5177 44.2167 15.3222 43.8537L14.9311 44.3981C12.5846 43.8537 12.5846 42.0389 10.0426 41.676C7.30503 41.676 3.39424 42.7648 2.221 42.5834C4.95856 40.7686 -1.88534 39.3168 -5.6006 38.9538C-5.79613 38.2279 -5.60062 37.6835 -5.014 37.3206C-5.9917 36.9576 -7.55602 36.9576 -7.9471 36.4132L-7.55599 35.8688L-8.53369 35.6873C3.1987 34.9614 15.5177 33.691 24.7081 36.5947C27.0546 35.6873 29.2054 36.0502 31.3564 36.2317C31.1608 35.3243 32.7252 35.3243 32.5297 34.4169C29.5966 32.6022 23.1438 34.2355 19.233 32.6022L20.2107 32.2393L19.8196 31.6948C27.6412 31.6948 33.7028 31.6948 42.1111 31.3319C42.6977 30.9689 42.6977 30.243 43.2844 29.6986C40.5468 28.4283 38.0047 27.1579 37.2226 24.7987L38.2003 24.6172L38.5914 24.0728C41.5245 24.6172 43.871 27.1579 47.5863 26.2505C46.2175 24.7987 42.5021 24.4357 42.1111 22.621C46.4129 23.5284 52.0836 23.5284 54.2346 25.3431C54.8212 24.7987 56.1899 24.9802 57.1676 24.7987C57.1676 25.8876 58.9276 26.069 58.341 27.3394L57.3633 27.5209L57.7542 28.0653C55.7988 28.4282 56.9722 26.9764 55.4079 27.1579C53.2569 27.7023 51.3015 27.8838 48.7595 27.5209C50.7149 29.5171 53.648 30.7874 58.9276 30.9689C59.9053 32.6022 57.3632 32.6022 57.7542 34.054C59.7096 34.2355 61.6651 34.2355 62.0561 35.3243C59.123 36.5946 54.039 34.054 49.9326 35.6873C48.7594 35.3243 47.5862 35.1429 46.2175 34.7799C45.4353 35.3243 43.0888 34.9614 43.2844 36.0503C43.6754 37.1391 45.4353 37.502 46.8041 38.2279C55.9944 37.865 61.665 40.4057 68.5089 39.1353C68.3134 38.4094 68.509 37.865 69.0956 37.5021C74.1797 37.865 76.9172 39.4983 81.8057 40.0427C82.3924 38.9539 83.9566 38.5909 85.5209 37.865C86.8897 38.0465 87.8674 38.4094 89.8228 38.2279C90.605 40.2242 93.7336 40.9501 98.8176 40.7686C98.8176 40.4057 99.0132 40.0427 99.4043 39.8612C106.639 39.6797 107.617 42.7649 113.874 43.3093C113.874 44.0352 114.265 44.5796 115.048 44.9426C119.545 44.9426 128.735 43.4908 133.037 45.487C140.663 44.2167 153.764 46.0315 161.39 44.9426C163.346 44.5796 165.888 44.9426 169.212 44.5796C169.016 43.6722 170.776 43.6722 170.972 42.9463C169.603 42.4019 169.603 41.1316 169.799 39.8612C171.754 39.8612 174.883 40.9501 176.447 40.2242C175.665 38.228 171.558 38.9538 168.625 38.9538C164.715 38.9538 160.804 37.502 158.457 38.0465C158.848 36.9576 160.999 36.9576 159.631 35.8688C160.999 35.8688 161.977 35.8687 161.977 35.3243C161.39 34.5984 159.826 34.417 160.217 33.1466C167.843 31.1504 175.665 34.5984 183.095 34.9614C184.269 34.9614 183.878 34.4169 185.442 34.4169C186.811 34.4169 187.984 35.1429 188.375 34.9614C189.744 34.7799 190.33 33.5096 192.09 34.054C193.654 35.3243 200.889 35.3243 203.627 34.054C201.867 31.8763 194.241 34.5985 192.872 32.4207C188.57 33.8725 185.833 31.6948 182.704 30.7874L183.095 30.243L183.486 29.6986C192.677 26.2505 200.694 32.6022 207.538 31.3319C206.56 30.606 204.409 30.243 201.476 30.4245C199.325 28.6097 198.152 26.069 193.654 25.5246C193.654 24.9802 193.654 24.4358 193.654 23.8913C198.738 25.1617 202.258 26.432 209.298 26.0691C211.253 26.432 210.275 28.4282 212.817 28.6097C213.404 28.6097 213.795 28.2467 213.991 28.0653C214.186 26.6135 211.449 26.6135 212.231 24.9802C218.292 25.3431 224.55 28.4282 227.874 31.1504C224.354 30.7874 222.79 31.6948 222.399 32.9651C223.572 33.1466 224.941 33.1466 224.745 33.8725C224.159 34.417 223.572 34.9614 221.812 34.7799C218.684 32.2392 211.449 34.7799 206.756 34.2355C207.147 37.1391 219.466 35.3243 219.466 37.3206C222.79 37.3206 230.807 37.1391 235.109 38.2279L234.718 38.7724L235.109 39.3168C234.718 39.8612 231.785 39.3168 231.394 39.8612C230.416 40.4057 231.98 40.9501 231.394 42.039C230.416 42.5834 229.047 42.9464 227.874 43.3093C229.829 43.3093 230.807 43.8537 233.349 43.6722C233.545 46.2129 229.047 46.3944 227.287 48.0277C228.069 48.0277 229.047 48.0277 229.047 48.3906L228.07 48.7536L228.461 49.298C227.483 50.0239 230.611 51.1128 230.807 52.0202C233.153 52.2016 233.349 51.2943 235.109 51.1128C237.26 52.3831 241.757 52.3831 243.517 53.8349C242.735 54.3793 241.953 54.7423 241.171 55.1053C242.931 55.6497 247.232 55.4682 248.992 55.1053L248.601 55.6497L249.579 55.8312C248.992 56.5571 251.534 56.92 251.339 56.3756C250.557 56.3756 250.752 55.8312 250.165 55.8312L250.557 55.2867L250.165 54.7423C251.143 53.8349 252.903 54.9238 254.467 54.7423C255.25 55.8312 252.512 54.9238 253.294 56.0127C254.663 56.3756 255.25 56.0126 257.009 56.5571C258.769 55.6497 260.92 54.7423 263.658 54.3793C270.697 56.3756 279.888 58.3718 288.296 58.7348C286.927 60.1866 287.514 61.2755 289.469 62.3643C289.86 62.0014 288.687 60.731 290.056 60.731C290.251 61.4569 293.966 61.094 295.531 62.0014C296.117 61.094 299.246 61.6384 300.419 61.094C300.615 61.6384 299.442 61.8199 300.419 62.0014C304.917 62.3643 307.654 61.094 311.174 61.4569C310.392 63.2717 318.604 61.4569 321.342 62.7272C321.342 63.4532 320.364 63.6346 320.755 64.542C316.062 64.542 312.934 66.9012 308.632 66.1753L309.023 65.6309L308.632 65.0865C308.045 64.542 306.677 64.3605 304.917 64.542C304.917 64.905 305.894 64.905 306.09 65.0865L305.503 65.6309L306.09 66.1753C305.503 66.9012 302.375 65.6309 301.201 66.5383V66.1753H300.615C299.833 64.905 298.268 66.5383 300.615 66.5383L300.224 67.0827L301.201 66.9012C303.157 69.4419 313.912 68.8975 314.498 71.2567C316.649 70.7122 317.822 69.8048 319.387 69.0789C320.755 70.8937 324.666 69.8048 325.448 71.6196C325.253 70.8937 326.622 70.8937 327.795 70.7122C331.706 71.4381 334.639 72.7085 339.332 73.2529C338.745 75.0677 344.416 75.7936 345.393 74.1603C343.634 74.3418 343.634 73.6158 341.874 73.7973C341.874 71.9826 345.002 71.9826 347.349 71.2567C349.5 71.6196 348.718 73.4344 352.237 73.0714C352.042 72.527 352.824 72.3455 352.824 71.8011L353.802 71.9826L353.215 70.7122L352.824 71.2567C350.673 70.1678 347.349 69.6234 346.762 67.6271C343.634 68.1716 345.002 66.5383 343.242 66.3568C341.678 66.9012 340.114 67.4457 337.767 67.6271C336.985 67.4457 337.767 66.3568 336.594 66.3568C335.225 66.9012 332.097 66.5383 329.946 66.7197C328.772 66.1753 328.968 64.905 327.599 64.542C325.839 64.542 323.884 64.542 324.08 63.6346C324.08 62.5458 327.795 63.4532 327.599 62.3643C326.23 62.0014 324.275 61.8199 324.08 60.731C327.013 60.9125 327.99 60.1866 330.728 60.3681C330.532 59.2792 331.51 58.9163 333.074 58.7348C334.834 60.0051 337.767 62.3643 341.483 62.1828C342.851 62.1828 343.829 61.094 345.785 60.9125C344.025 60.5495 343.438 59.6422 340.309 60.0051C341.874 58.5533 338.55 58.1904 338.55 56.5571C340.896 56.0126 342.851 56.3756 344.611 56.0127C340.896 54.7423 333.074 55.6497 333.857 58.5533C327.795 58.3718 323.884 58.7348 322.32 56.0127C323.493 55.1053 326.817 55.6497 328.968 56.0127C329.946 55.6497 329.555 54.3793 329.555 53.4719C333.074 52.5646 335.812 54.0164 339.136 54.0164C340.309 53.472 340.114 52.3831 342.069 52.3831C349.109 54.1979 352.433 50.5684 357.712 49.661C362.405 50.2054 366.121 48.2091 371.596 48.0277C375.702 49.298 383.719 48.5721 386.652 50.5684C387.63 50.5684 388.608 50.5684 389.585 50.5684C392.323 51.2943 396.234 53.6535 399.753 54.9238C402.296 55.8312 403.664 55.6497 404.055 55.2867C405.229 56.0126 407.184 56.5571 409.53 56.92L408.553 57.283L408.944 57.8274C404.642 58.5533 411.486 60.1866 413.246 60.9125C413.246 61.2754 413.246 61.8199 413.246 62.1828L412.268 62.0014C413.05 62.3643 413.637 62.9087 413.441 63.6346L413.832 63.0902C416.374 63.9976 418.525 63.2717 421.067 63.9976L422.045 64.1791L421.654 63.6346C422.045 63.6346 422.436 63.6346 422.827 63.6346C424 61.4569 431.431 62.5458 431.822 64.1791C434.364 62.5458 438.861 63.9976 443.945 63.6346C444.337 64.7235 447.074 66.1753 448.834 64.905C447.856 64.905 446.683 64.905 447.074 64.3605C450.398 63.8161 452.354 66.3568 456.069 66.5383C459.589 65.6309 464.868 66.3568 465.064 68.1715C459.784 69.6233 454.505 67.2642 449.421 68.5345C452.354 69.8048 455.678 69.6233 457.829 71.6196C457.047 72.164 455.287 71.9826 455.482 72.8899C455.678 74.1603 459.393 73.4344 459.002 74.7047C458.22 75.2491 456.851 75.4306 457.242 76.5195C457.829 76.5195 458.024 76.701 458.415 76.8824C460.566 76.701 462.522 76.338 465.064 76.338L465.455 76.8824L465.846 76.338C467.41 78.5157 475.232 78.1527 480.903 78.1527L481.88 78.3342L482.271 77.7898C483.053 77.9713 483.445 78.1527 484.618 78.1527C483.836 77.7898 484.813 76.701 485.204 75.9751C490.288 75.2491 496.35 77.9713 499.674 75.6121L500.652 75.4306L500.261 74.8862C500.848 74.8862 501.434 74.8862 502.021 74.8862C502.021 74.5232 502.021 73.9788 502.021 73.6158C503.781 73.7973 503.585 73.2529 504.954 73.2529C505.149 74.7047 507.496 75.0676 509.842 75.4306C509.842 74.8862 510.234 74.7047 511.016 74.5232C511.016 75.0676 511.407 75.2491 512.189 75.4306C512.776 75.0676 512.776 74.3418 513.949 74.1603C516.686 75.2491 520.206 72.527 522.944 73.6158C523.335 74.3417 520.206 74.8862 522.357 75.4306C524.117 75.7935 523.335 74.7047 523.53 74.1603C526.463 74.3418 530.179 74.3418 531.938 73.2529C529.592 73.6159 527.441 73.0714 525.29 71.9826C522.748 71.9826 521.77 72.8899 519.228 72.8899C517.664 71.9826 515.122 71.8011 513.167 71.0752C513.167 70.5307 513.167 69.8048 513.167 69.2604C510.233 69.0789 509.842 67.6271 506.518 67.6271C505.54 65.6309 509.06 65.8124 510.233 64.905L510.625 65.4494L511.016 64.905C513.167 65.8124 516.686 64.3605 518.251 65.2679C519.815 65.4494 518.642 63.9976 520.597 64.3605C517.273 63.2717 514.144 64.1791 511.016 64.7235L510.625 64.1791L509.647 63.9976C508.865 62.3643 508.474 63.0902 506.127 63.4531L505.345 62.9087L504.172 63.0902C503.976 62.9087 504.172 62.5458 503.585 62.5458C501.825 61.6384 502.803 63.4532 500.652 63.0902C499.088 62.9087 498.11 62.3643 495.763 62.5458C495.959 62.9087 496.741 63.0902 496.937 63.4531C493.613 63.4531 493.221 63.4531 490.875 63.4531C493.026 63.4531 488.333 63.0902 487.942 63.0902C487.746 63.0902 487.551 63.2717 487.355 63.2717C487.16 63.2717 486.964 63.0902 486.573 63.0902C485.4 62.9087 483.445 63.2717 481.685 63.0902C479.925 61.8199 475.623 61.8199 473.276 60.9125C472.103 61.2754 471.125 61.6384 469.757 61.8199C468.779 61.4569 468.583 60.731 467.41 60.5496C467.41 61.2755 466.628 61.8199 465.064 61.8199C463.695 61.2754 461.74 61.094 459.002 61.2755L458.611 60.731L457.633 60.9125C455.091 60.0051 449.812 60.5495 448.638 59.0977C445.705 59.2792 443.554 58.9163 441.403 58.7348L441.795 58.1903L440.817 57.8274C443.163 57.283 444.532 56.3756 447.465 56.92C447.856 57.8274 447.661 57.6459 449.225 58.1903C451.18 58.1903 452.745 57.6459 455.287 57.8274C455.287 57.1015 454.114 56.92 455.287 56.1941C455.678 56.1941 456.46 56.1941 456.46 55.8312C459.98 56.5571 462.913 56.3756 463.108 58.0089C466.433 56.7385 467.801 54.5608 472.103 54.0164C468.975 53.6535 467.801 53.4719 465.455 53.4719C467.606 55.1052 456.851 55.2867 457.047 52.9275C459.198 52.7461 462.913 52.0201 464.868 52.5646C465.064 51.6572 468.975 52.3831 469.757 51.6572C468.388 50.5683 466.628 49.8424 464.282 49.1165L464.673 48.5721L463.304 48.3906C464.282 45.85 457.829 47.1203 456.069 45.85L456.46 45.3055L456.069 44.7611C459.002 44.2167 462.326 43.1278 465.65 44.2167C473.668 41.3131 487.16 43.1278 491.657 46.3944C494.981 46.2129 495.568 47.3018 498.306 47.3018L497.914 47.8462L498.306 48.3906C498.501 49.1165 495.568 48.2092 496.546 49.298L495.568 49.661L495.959 50.2054C491.266 49.8424 489.897 50.7498 485.791 49.661C485.791 50.7498 488.724 51.6572 486.378 52.2016C487.355 52.2016 488.333 52.2016 489.311 52.2016L490.093 52.7461C490.484 52.2016 491.657 51.6572 492.635 51.8387L492.439 51.2943C495.568 51.1128 494.004 53.109 495.959 53.4719C498.501 53.4719 500.261 53.8349 502.021 54.0164C501.825 55.8312 498.892 54.5608 495.372 54.9238C495.372 56.0126 493.417 56.0126 493.613 57.1015C494.199 57.4644 494.199 58.1904 495.372 58.3718C500.065 57.8274 505.541 58.1904 509.842 58.3718C508.278 58.1904 508.474 56.92 509.842 56.5571C512.776 56.7385 515.318 58.7348 518.837 57.4644C519.619 56.3756 516.882 57.2829 517.664 56.1941L518.642 55.8312L518.251 55.2867C520.401 55.1052 521.575 55.6497 523.139 55.8312C523.53 57.1015 519.815 57.8274 521.966 58.9162C523.335 58.0089 525.486 57.4644 528.614 57.283C528.81 57.8274 528.81 58.5533 530.374 58.5533C530.961 58.5533 531.352 58.1903 531.547 58.0089C530.961 57.4644 529.592 57.283 529.787 56.3756C531.547 55.6497 532.525 56.0127 535.263 56.0127C534.872 54.9238 537.609 55.2867 537.609 54.3793C533.698 53.6534 529.983 50.7498 525.486 52.2016L524.508 52.3831C524.312 52.5646 524.312 52.9275 524.117 53.109L524.899 53.4719C524.899 53.8349 524.703 54.1979 524.312 54.3793C520.988 54.5608 519.033 54.1979 518.837 52.7461C520.011 52.0201 522.161 53.2905 523.726 52.3831C520.793 52.2017 517.469 50.5683 512.971 50.2054C511.602 50.7498 507.496 51.2942 505.736 50.7498C507.105 49.4795 509.842 48.7536 512.384 48.0277C512.189 49.298 514.535 48.7536 515.318 48.3906C516.1 47.1203 513.362 47.8462 514.144 46.5759C515.904 46.2129 516.686 46.7573 519.62 46.5759L519.228 47.1203L520.206 47.4832C521.575 48.7536 525.486 48.0277 528.028 48.0277C528.81 48.0277 529.788 48.5721 530.374 48.5721C534.089 48.7536 537.414 48.2091 540.542 48.2091C542.302 48.2091 544.844 49.298 546.017 48.2091C546.213 47.4832 543.671 48.0277 544.257 46.9388L544.648 46.5759L544.257 46.2129C547.582 46.2129 549.928 44.2167 552.079 45.6685C552.079 45.1241 552.274 44.7611 552.666 44.3981C557.554 44.3981 557.163 46.9388 559.314 48.3906C560.292 48.0277 562.247 48.2092 563.029 47.8462C561.856 47.8462 561.661 47.4833 561.856 46.9388C565.18 45.3056 571.046 46.0314 573.979 47.3018C573.979 46.7573 575.935 47.1203 575.739 46.3944C573.979 46.0314 573.979 44.5797 570.264 45.1241C570.655 43.8537 569.286 43.4907 567.331 43.4907L567.722 42.9463L566.745 42.7649C566.745 42.5834 566.745 42.4019 566.745 42.2204L567.722 41.8575L567.331 41.3131C573.197 42.039 578.086 39.4983 579.455 37.865C576.717 37.865 575.348 38.5909 573.979 39.4983C569.678 39.6798 566.158 38.9538 563.811 39.8612C563.225 39.1353 560.878 39.3168 560.878 38.2279C562.247 38.0465 564.202 38.0465 564.398 37.3206C561.074 36.5947 557.359 36.0503 554.23 35.1429C552.861 34.9614 552.861 35.6873 551.297 35.5058C550.124 34.054 553.643 33.5096 554.817 34.2355C562.247 34.2355 571.242 33.1466 578.281 34.5984C579.064 34.054 580.628 34.054 581.215 33.691C582.974 33.8725 583.756 34.5985 586.69 34.2355C587.276 33.3281 587.863 32.4207 589.036 31.6948C596.467 32.6022 608.785 35.1429 616.216 32.2393C616.607 33.1466 614.456 34.2355 616.216 34.7799C627.362 32.7837 636.552 36.0503 645.156 36.0503C646.72 37.5021 647.698 37.1391 651.218 37.3206C651.022 38.4094 649.849 39.1353 649.458 40.0427C651.804 39.4983 649.653 41.3131 651.218 41.3131C656.693 41.4945 658.844 44.3982 664.514 44.7611C668.621 44.9426 672.923 42.9463 678.398 43.4907C681.135 43.8537 683.091 44.5796 686.219 43.8537L686.61 44.3981L687.588 44.2167C688.37 44.5797 688.175 45.3056 688.175 46.0315C687.393 46.3944 686.415 46.5759 685.828 46.9388C686.806 47.4833 686.61 48.5721 687.588 49.1165L687.197 49.4795C688.761 49.298 690.717 50.0239 689.935 50.9313L691.108 50.7498C691.108 51.4757 691.89 52.9275 694.823 52.0202C695.605 52.5646 695.605 53.2905 696.583 53.6534C699.907 54.0164 701.667 52.3831 704.405 53.2905C704.6 52.9276 705.187 52.7461 704.991 52.0202C710.271 53.472 712.813 51.2942 717.701 50.7498C717.897 52.0201 720.243 52.7461 717.115 53.2905C720.048 53.109 720.439 54.1979 723.176 54.1979C723.372 53.2905 721.808 53.2905 722.003 52.3831C724.545 52.0202 728.065 50.5684 730.998 51.4757C730.411 51.4757 729.434 52.9275 730.411 52.7461C735.104 52.9275 736.473 51.1128 740.58 52.3831C739.993 52.3831 739.797 52.9275 740.58 52.9275L741.557 53.109C741.753 52.7461 741.948 52.5646 742.339 52.3831C742.926 52.3831 743.904 52.2016 744.686 52.2016L744.295 51.6572C749.379 51.4757 758.569 51.8387 762.284 53.2905C763.262 53.2905 762.676 52.5646 764.044 52.7461C765.609 52.7461 764.826 54.0164 766.391 54.0164C767.368 52.9275 769.715 52.5646 769.324 50.9313C766.586 51.2942 765.413 50.5684 763.849 49.661C766.977 48.7536 773.821 48.3906 777.145 50.0239C778.905 49.661 780.079 48.7536 782.621 49.4795C783.012 50.5684 780.469 50.0239 780.274 50.7498C785.945 53.109 792.789 52.7461 797.677 54.7423C804.716 54.9238 809.996 52.9275 817.036 52.2016C817.036 51.6572 818.6 52.0202 818.209 51.2943C815.667 49.8425 812.343 48.0277 806.672 49.1165C805.303 48.5721 800.61 47.3018 799.437 48.5721C801.197 49.4795 800.024 50.3868 799.437 51.6572L798.459 51.4757L798.068 52.0202C796.308 52.2016 796.113 53.109 793.766 52.9275C793.375 51.4757 788.291 49.8424 790.833 48.935C787.118 49.4795 787.313 47.8462 784.771 47.6647C778.319 47.8462 774.994 46.0314 768.542 47.1203C768.346 46.0314 766.391 45.8499 765.022 45.3055C766 44.2167 765.218 42.2204 767.955 42.2204C768.151 44.2167 770.497 44.9426 774.017 45.3055C777.536 44.2167 778.905 45.1241 783.012 44.0352C786.531 44.9426 788.878 44.9426 791.42 46.5759C794.94 45.6685 798.068 43.4908 802.957 44.9426L803.348 45.487C803.543 45.3055 803.543 45.1241 803.739 44.9426C806.672 43.8537 810.387 44.2167 813.711 44.2167L804.325 45.3055C805.303 48.0277 812.929 46.0315 815.08 44.9426C815.862 45.3055 815.276 46.3944 816.84 46.5759C822.706 44.0352 833.265 44.9426 840.891 46.0315C840.891 45.1241 840.891 44.2167 840.891 43.3093C844.411 42.7649 844.411 43.6723 846.953 44.2167C846.562 44.5797 844.607 44.2167 844.607 44.7611C844.802 45.1241 845.389 45.3056 845.193 46.0315C845.976 45.6685 848.126 45.6685 848.908 46.0315C850.473 46.7574 847.931 46.5759 848.322 47.6647C852.428 49.1165 858.881 46.5759 854.384 44.9426C853.406 45.85 850.864 44.9426 850.082 44.5796C850.864 43.1278 851.841 42.4019 851.841 41.1316C854.384 41.4945 857.708 40.4057 860.25 40.7686C859.663 41.8575 858.099 42.5834 856.73 43.3093C858.099 43.4908 856.73 44.9426 858.49 44.9426C865.334 43.8537 870.418 46.3944 875.306 44.3981C872.764 43.8537 870.222 44.3982 866.898 43.8537C868.267 42.5834 864.552 42.5834 865.725 40.4057C869.44 40.5872 872.96 39.4983 875.893 40.4057C876.089 40.9501 875.111 40.9501 874.72 41.3131C879.608 41.3131 884.497 40.9501 889.19 41.676C890.754 41.4945 891.927 40.0427 893.492 40.7686C895.056 41.1316 894.665 42.5834 896.425 42.9463C900.14 43.3093 900.531 42.039 901.9 41.1316C916.37 42.039 931.231 39.8612 944.527 40.7686V52.0202V59.2792V111H445.314H440.817H438.079H435.342H430.453H428.693H420.676H416.961H416.374H381.568H381.373H366.121H353.997H345.589H-29.652H-29.8476H-58.2009C-57.0276 110.637 -56.0499 110.456 -54.4856 110.637C-56.441 109.73 -58.3964 109.73 -60.5474 109.911V100.837C-56.441 101.382 -52.3347 99.204 -48.4239 101.2C-47.8372 100.656 -47.055 100.293 -46.664 99.567C-50.1837 99.7485 -51.3569 98.6595 -54.4856 97.9336C-57.4187 98.1151 -58.592 97.3892 -60.5474 97.0263V93.7597C-58.592 93.7597 -56.6366 93.9412 -55.6589 93.3967C-55.6589 93.0338 -55.6589 92.4894 -55.6589 92.1264C-56.8321 92.6709 -58.7875 91.7635 -60.5474 91.4005Z" fill="white"/>
<path d="M943.354 35.6874L942.963 35.1429C943.354 35.1429 943.55 35.1429 943.941 35.1429V36.9577C943.354 36.5948 942.767 36.4133 942.376 36.0503L943.354 35.6874Z" fill="white"/>
<path d="M686.219 43.4908C687.784 43.1279 690.912 42.9464 691.695 43.8538C690.717 44.2168 689.739 44.7612 687.393 44.3982L687.784 43.8538L686.806 44.0353C687.002 43.6724 686.415 43.6723 686.219 43.4908Z" fill="white"/>
<path d="M453.136 48.3907L454.113 48.0278L453.722 47.4833C456.46 47.1204 459.002 47.6648 461.544 48.0278C462.326 48.0278 462.717 47.4833 462.717 48.3907L461.739 48.7537L462.131 49.2981C459.002 49.6611 454.896 48.9352 453.136 48.3907Z" fill="white"/>
<path d="M426.542 58.0089C427.911 57.1015 431.04 56.92 433.191 56.3756C433.777 56.7386 433.777 57.4645 434.951 57.646L434.559 58.1904L435.537 58.5533C432.8 59.8237 428.302 59.4607 426.542 58.0089Z" fill="white"/>
<path d="M503.78 67.6273L502.803 67.4458C503.194 67.8088 503.389 68.1717 503.194 68.5347H503.78C506.322 68.1717 507.105 68.3532 509.255 68.8976C509.451 70.5309 507.3 71.2568 504.954 71.6197C502.607 71.0753 498.501 69.2606 496.545 70.3494C496.545 70.7124 497.523 70.7124 497.719 70.8938C494.199 70.7124 489.702 71.9827 487.551 70.5309L487.942 69.9865L488.333 69.4421C489.31 68.1717 485.4 69.4421 487.16 69.4421L486.768 69.9865L487.16 70.5309C481.88 72.3457 479.729 69.9865 476.405 68.8976C474.254 68.1717 471.516 68.5347 471.516 67.2643C472.494 67.2643 473.667 67.4458 473.863 66.9014C471.712 66.7199 470.93 65.4496 468.388 66.3569C468.192 65.994 467.605 65.8125 467.801 65.0866L468.192 64.5422L467.801 63.9978C471.712 63.8163 480.707 63.4533 482.858 65.2681C484.031 64.9051 487.159 65.4496 486.377 63.9978C487.355 65.0866 489.701 63.8163 491.266 63.9978C492.243 64.1792 494.003 65.8125 494.785 64.3607C494.59 65.0866 494.981 65.4496 495.959 65.631C497.523 64.7237 500.065 64.3607 502.02 63.8163C502.607 64.5422 504.171 64.5422 506.322 64.3607L506.713 64.9052L507.691 65.0866C506.713 66.357 502.998 65.8125 503.78 67.6273Z" fill="white"/>
<path d="M460.957 64.1792C462.131 64.1792 464.868 63.4533 465.846 64.1792L465.455 64.7236L465.846 65.268C464.477 65.631 460.762 65.268 460.957 64.1792Z" fill="white"/>
<path d="M494.004 75.2491C493.808 74.3417 494.786 73.9788 495.763 73.6158L496.155 74.1603L497.132 73.9788C497.719 73.9788 498.11 74.3418 498.306 74.5232L497.328 74.7047L497.719 75.2491C496.35 75.4306 495.568 75.6121 494.004 75.2491Z" fill="white"/>
<path d="M482.662 75.6121C482.858 76.5194 481.88 76.8824 481.489 77.4268L480.511 77.2453L480.12 77.7898C478.556 77.6083 477.774 76.8824 475.818 76.8824C475.232 75.975 475.623 75.975 476.405 75.2491L477.383 75.0677L476.992 74.5232C479.338 74.7047 479.534 75.7935 482.662 75.6121Z" fill="white"/>
<path d="M471.712 76.5195C471.712 75.9751 471.712 75.2492 471.712 74.7047C473.276 74.7047 472.885 74.1603 474.059 74.7047L473.667 75.2491L474.059 75.7936C474.254 76.338 472.885 76.338 471.712 76.5195Z" fill="white"/>
<path d="M463.304 74.7046L464.477 74.8861L465.064 74.3417C466.041 74.1602 467.019 75.4305 465.65 75.612L465.064 75.0676L464.477 75.612C463.304 75.7935 461.74 74.7046 463.304 74.7046Z" fill="white"/>
<path d="M460.957 73.4345C462.522 72.1641 466.041 73.0716 467.019 73.9789C466.433 73.9789 465.846 73.9789 465.259 73.9789L464.282 73.616L463.304 73.9789C462.326 73.9789 460.371 74.3419 460.957 73.4345Z" fill="white"/>
<path d="M420.481 56.7386L420.09 57.2831L421.067 57.4645C422.436 57.4645 421.067 58.5534 420.481 58.7349L419.503 58.5534L419.894 59.0978C419.503 59.0978 418.721 59.0979 418.721 58.7349L419.503 58.0089L419.308 57.1016C419.503 56.7386 419.894 56.7386 420.481 56.7386Z" fill="white"/>
<path d="M416.961 54.5609C421.263 53.4721 425.76 54.7424 428.498 56.1942C425.565 56.1942 423.609 56.5572 421.263 56.7386L421.654 56.1942L420.676 56.0128C420.09 55.1054 416.961 55.6498 416.961 54.5609Z" fill="white"/>
<path d="M242.735 38.2279C243.126 39.8612 240.584 40.2241 239.215 40.95C238.433 40.2241 236.087 40.4056 235.695 39.3168L236.673 38.9538L236.282 38.4094C238.824 38.5909 239.802 37.8649 242.735 38.2279Z" fill="white"/>
<path d="M64.9892 29.8801C63.2293 30.243 60.8828 30.243 60.6873 28.9727L61.0784 28.6098L60.6873 28.2468C62.2516 27.7024 65.1847 28.4283 64.9892 29.8801Z" fill="white"/>
<path d="M142.032 31.1504C141.054 30.9689 139.49 30.969 139.099 30.606C140.272 30.4245 143.401 30.7875 142.032 31.1504Z" fill="white"/>
<path d="M117.394 39.4983C117.003 39.8612 119.741 40.2242 117.981 40.4057C117.981 40.0427 115.439 39.6798 117.394 39.4983Z" fill="white"/>
<path d="M835.807 40.0428C835.807 40.5873 837.567 40.2244 837.567 40.5873C836.981 41.3132 834.438 40.2243 835.807 40.0428Z" fill="white"/>
<path d="M762.284 48.7536C753.876 49.661 754.267 45.487 748.987 45.1241C748.987 44.5797 748.987 43.8537 748.987 43.3093C746.25 43.3093 744.686 42.9464 743.512 43.3093C745.077 45.487 737.255 44.7611 735.104 44.5796C736.277 45.6685 734.322 45.487 733.931 46.3944C730.998 46.5759 730.02 45.85 727.283 46.0315C727.087 45.487 727.478 44.9426 726.696 44.7611C724.349 46.0314 717.506 45.1241 716.528 43.8537C718.288 42.2204 722.003 42.4019 724.936 42.5834C725.327 43.4907 723.763 43.1278 723.763 43.8537C725.132 44.0352 726.305 44.2167 727.283 44.3981C727.087 43.4907 728.847 43.4908 729.043 42.7649C731.193 42.7649 731.193 43.6722 733.344 43.6722C734.126 42.9463 736.277 42.9463 736.864 42.039C736.082 40.7686 733.54 40.4057 731.976 39.4983C729.629 40.0427 728.26 41.1316 727.087 42.2205C722.003 40.4057 711.444 43.4907 708.315 41.676C706.36 42.9463 702.84 42.9464 699.32 42.2205L699.712 41.676C697.952 41.8575 695.605 42.039 694.236 41.1316L694.628 41.676C692.868 42.2204 688.566 42.039 687.979 41.1316C689.152 40.2242 692.281 39.1353 694.628 39.8612L694.236 40.4057L695.996 39.8612L695.019 40.0427C694.627 39.4983 693.259 39.3168 692.672 38.7724C688.37 39.4983 682.113 39.1354 677.615 40.4057C675.856 40.0427 673.9 39.6798 673.314 38.5909C673.509 37.865 676.247 38.4094 675.66 37.3206C675.269 37.3206 674.878 37.3206 675.074 36.9576L675.465 36.4132L674.487 36.2317C677.42 34.5984 687.392 36.7761 689.543 34.5984C686.219 33.5096 681.331 32.7837 678.789 32.0578C679.18 32.0578 679.962 32.0577 679.962 31.6948C678.202 31.5133 677.029 30.9689 675.66 30.4245C675.269 29.3356 678.202 30.0615 677.42 28.7912C675.465 29.5171 674.291 28.9727 672.531 29.3356L672.14 28.7912L671.749 28.2468C671.945 27.8838 669.989 27.1579 669.989 27.8838C669.989 28.0653 669.989 28.2468 669.989 28.4282L669.012 28.6097L669.403 29.1541C668.23 29.1541 662.754 28.7912 660.995 28.2468L661.386 27.7023C660.017 27.8838 658.844 27.5208 657.866 27.1579C657.866 26.7949 657.866 26.6135 658.061 26.2505C659.43 25.8875 660.799 26.069 662.168 26.2505L661.777 25.7061C666.665 24.0728 673.705 24.7987 676.833 24.0728L677.224 24.6172C677.42 24.2543 677.615 24.0728 677.811 23.7098C678.202 23.3469 678.593 22.9839 678.984 22.8025L678.007 22.621C677.42 21.3506 675.073 20.9877 673.705 20.0803C680.353 20.2618 687.784 19.8989 689.348 16.0879C692.476 15.9064 695.801 18.2656 697.756 16.6323C694.627 14.636 689.935 13.3657 688.761 10.4621C689.544 10.4621 689.543 10.0991 690.521 10.0991C695.996 12.8213 700.885 15.9064 706.164 18.81C706.36 19.7174 704.6 19.5359 704.405 20.4433C705.969 23.5284 713.399 21.7136 715.941 24.4357C722.198 24.6172 724.741 26.795 726.109 29.3356C724.936 30.0615 723.176 30.606 722.394 31.5134C725.523 31.8763 726.892 33.1466 729.043 34.054C731.389 33.3281 733.344 34.2355 735.691 33.691C735.3 34.5984 737.255 34.2355 736.864 35.3243C737.06 36.0502 734.518 35.5058 735.104 36.5947C736.082 36.5947 737.059 36.5947 737.451 36.9576C737.842 38.0465 736.082 38.2279 736.277 39.1353C738.428 38.5909 740.579 40.2242 741.753 40.9501C745.272 41.313 746.054 40.0427 747.228 39.1353C746.445 39.1353 745.859 38.9539 745.468 38.7724L745.859 38.2279L744.881 37.865C744.881 37.1391 747.032 37.6835 747.814 37.5021C748.205 36.5947 745.663 36.5947 747.228 35.8688C749.574 35.5058 748.987 36.5947 750.943 36.4132C749.574 35.1429 746.446 34.9614 745.468 33.3281H744.881C744.881 34.2355 742.73 34.2355 741.948 33.8725C741.753 33.1466 742.73 32.7837 744.294 32.9651L743.903 33.5096C744.686 33.1466 745.468 33.3281 746.054 33.3281V33.8725C750.356 32.4207 757.005 34.5984 760.524 35.5058C757.982 36.0502 755.831 36.9576 753.876 38.0465C756.418 39.3168 761.893 39.1353 763.457 40.7686C761.698 42.9463 765.022 45.487 762.284 48.7536Z" fill="white"/>
<path d="M677.811 23.8914L678.202 24.4358L677.224 24.6173C677.42 24.2543 677.224 23.8914 677.811 23.8914Z" fill="white"/>
<path d="M671.163 32.6022C670.772 32.4207 669.794 31.1504 671.163 30.9689L672.14 30.7874L672.531 30.243C673.9 31.1504 673.705 32.6022 671.163 32.6022Z" fill="white"/>
<path d="M439.839 34.417C445.314 35.6873 450.007 37.3206 457.242 37.5021L456.851 38.0465L457.242 38.591C454.896 39.6798 449.225 38.591 445.119 38.591C442.968 38.591 441.208 39.6798 440.23 38.591C441.012 39.4983 439.252 39.3168 439.057 39.8613C432.995 40.2242 424.196 41.1316 419.112 39.4984C404.838 42.039 395.061 37.6836 380.591 36.9577C379.808 36.0503 380.395 35.3244 381.764 34.78C379.613 34.9614 378.44 34.417 376.875 34.2355C376.289 32.7837 380.199 33.5096 379.808 32.0578C378.44 32.2393 377.462 32.0578 376.875 31.6948L377.266 31.1504L376.875 30.606C380.982 29.6986 386.261 29.1542 391.345 28.7913C389.194 28.0654 389.585 26.9765 390.172 25.3432C396.429 22.8025 405.62 25.7061 411.29 27.1579C413.637 26.432 417.352 26.4321 420.285 25.8876C428.693 27.158 432.409 30.7875 439.644 32.6022L439.253 33.1467L440.23 33.5096C440.426 34.2355 439.839 34.2355 439.839 34.417Z" fill="white"/>
<path d="M367.489 30.4247C369.054 29.5173 373.747 29.6988 375.311 30.4247L374.92 30.9691L375.311 31.5135C372.964 32.2394 368.076 32.058 367.489 30.4247Z" fill="white"/>
<path d="M602.919 1.02536L596.662 0.480957C598.617 0.480957 600.768 0.480935 602.919 1.02536Z" fill="white"/>
<path d="M23.5347 15.3622L19.6239 17.3584C20.2105 16.2696 21.9704 15.9066 23.5347 15.3622Z" fill="white"/>
<path d="M25.2948 14.4546C24.9037 14.8175 24.3171 14.999 23.7305 15.362L25.2948 14.4546Z" fill="white"/>
<path d="M185.246 18.2656C185.246 18.6286 185.246 19.173 185.051 19.536L185.246 18.2656Z" fill="white"/>
<path d="M185.051 19.536L184.855 21.7137C184.66 20.9878 184.855 20.2619 185.051 19.536Z" fill="white"/>
<path d="M32.7253 17.3583C32.1387 16.9954 31.7477 16.451 31.5521 16.088L32.7253 17.3583Z" fill="white"/>
<path d="M534.676 19.5359C533.503 19.5359 532.329 19.173 531.156 19.173L534.676 19.5359Z" fill="white"/>
<path d="M640.267 25.5246C639.485 25.5246 638.703 25.5246 637.921 25.3431L640.267 25.5246Z" fill="white"/>
<path d="M79.0681 30.243L76.5261 31.1504C77.1127 30.7875 77.8949 30.4245 79.0681 30.243Z" fill="white"/>
<path d="M345.98 29.5171C345.393 29.5171 344.807 29.3357 344.22 29.1542L345.98 29.5171Z" fill="white"/>
<path d="M256.227 38.9539L254.858 39.3168C255.249 39.1354 255.64 38.9539 256.227 38.9539Z" fill="white"/>
<path d="M252.707 39.6797L254.858 39.1353C254.272 39.4982 253.685 39.8612 252.707 39.6797Z" fill="white"/>
<path d="M352.042 32.2393L345.98 31.8763C348.131 31.8763 350.086 31.8764 352.042 32.2393Z" fill="white"/>
<path d="M643.983 33.5096L638.507 32.0579C640.854 32.0579 642.027 32.9652 643.983 33.5096Z" fill="white"/>
<path d="M824.075 42.0391L825.835 42.2205C825.248 42.2205 824.662 42.0391 824.075 42.0391Z" fill="white"/>
<path d="M901.704 37.6836C900.531 38.0465 899.358 38.0465 897.989 38.0465L901.704 37.6836Z" fill="white"/>
<path d="M898.184 38.0465L890.949 38.9539C892.905 38.0465 895.642 38.228 898.184 38.0465Z" fill="white"/>
<path d="M535.849 37.6836L534.089 37.5021C534.676 37.6836 535.262 37.6836 535.849 37.6836Z" fill="white"/>
<path d="M794.548 41.1316C790.051 41.3131 785.749 41.4946 781.252 41.4946L794.548 41.1316Z" fill="white"/>
<path d="M264.831 44.0352L262.289 43.3093C263.462 43.1278 264.049 43.8537 264.831 44.0352Z" fill="white"/>
<path d="M422.631 45.6685C423.609 45.487 424.587 46.0314 425.565 46.2129L422.631 45.6685Z" fill="white"/>
<path d="M445.51 47.1203C444.728 47.1203 443.945 46.9388 443.163 46.9388L445.51 47.1203Z" fill="white"/>
<path d="M408.161 49.8424L405.228 50.7498C406.011 50.2054 407.184 50.0239 408.161 49.8424Z" fill="white"/>
<path d="M323.102 52.2017L325.448 52.3831C324.471 52.5646 323.884 52.3831 323.102 52.2017Z" fill="white"/>
<path d="M686.024 44.7611L687.784 43.8538C687.197 44.2167 686.806 44.5797 686.024 44.7611Z" fill="white"/>
<path d="M567.331 42.402L564.789 42.0391C565.571 42.2205 566.549 42.2206 567.331 42.402Z" fill="white"/>
<path d="M561.269 44.2167L567.331 43.6722C565.376 44.0352 563.42 44.5797 561.269 44.2167Z" fill="white"/>
<path d="M542.302 46.7573L544.453 47.1202C543.475 47.3017 543.084 46.9388 542.302 46.7573Z" fill="white"/>
<path d="M518.446 55.8312L514.926 56.0127C516.1 55.8312 517.273 55.4682 518.446 55.8312Z" fill="white"/>
<path d="M495.568 49.661L499.088 50.0239C497.915 50.2054 496.741 50.024 495.568 49.661Z" fill="white"/>
<path d="M447.856 44.5796L456.264 45.487C453.527 45.3055 449.811 46.0314 447.856 44.5796Z" fill="white"/>
<path d="M461.74 48.7537H464.086C463.499 48.7537 462.522 48.9351 461.74 48.7537Z" fill="white"/>
<path d="M437.492 58.1904H434.559C435.733 58.0089 436.515 58.1904 437.492 58.1904Z" fill="white"/>
<path d="M437.493 58.1904H441.208C440.035 58.5534 438.666 58.3719 437.493 58.1904Z" fill="white"/>
<path d="M458.22 60.9124C457.633 61.2753 457.242 61.6383 456.851 61.8197L458.22 60.9124Z" fill="white"/>
<path d="M504.758 63.0902C504.563 63.2717 504.367 63.4531 503.976 63.6346L504.758 63.0902Z" fill="white"/>
<path d="M510.038 64.3606L506.518 65.268C507.496 64.7235 508.474 64.3606 510.038 64.3606Z" fill="white"/>
<path d="M467.801 64.9051L465.455 64.5421C466.237 64.7236 467.019 64.7236 467.801 64.9051Z" fill="white"/>
<path d="M499.674 75.4306C498.697 75.2492 498.306 75.0677 497.328 74.8862L499.674 75.4306Z" fill="white"/>
<path d="M496.155 74.1604L496.35 73.0715C496.546 73.4345 496.546 73.7974 496.155 74.1604Z" fill="white"/>
<path d="M477.383 75.0677H473.667C475.036 75.0677 476.405 74.8862 477.383 75.0677Z" fill="white"/>
<path d="M464.868 76.701C464.868 76.3381 465.064 75.7937 465.259 75.0677L464.868 76.701Z" fill="white"/>
<path d="M464.477 74.8862C464.282 74.5232 464.282 74.1603 464.282 73.6158L464.477 74.8862Z" fill="white"/>
<path d="M421.458 64.3605L419.894 63.4531C420.676 63.6346 421.067 63.9976 421.458 64.3605Z" fill="white"/>
<path d="M408.162 57.4645L419.503 58.0089C415.592 57.8274 411.877 57.646 408.162 57.4645Z" fill="white"/>
<path d="M421.067 59.4608C420.676 59.2793 420.285 58.9164 419.503 58.3719L424 59.4608C423.218 59.6423 422.045 59.6423 421.067 59.4608Z" fill="white"/>
<path d="M420.285 57.1016C420.676 56.7386 421.067 56.5572 421.459 56.1942L420.285 57.1016Z" fill="white"/>
<path d="M57.3632 28.0653L61.0783 28.6098C59.7096 28.7912 58.5364 28.4283 57.3632 28.0653Z" fill="white"/>
<path d="M38.0049 25.3432L34.4852 23.71C36.0495 24.0729 36.8317 24.7988 38.0049 25.3432Z" fill="white"/>
<path d="M20.0149 32.9652L17.0818 32.7837C18.0595 32.7837 19.0372 32.7837 20.0149 32.9652Z" fill="white"/>
<path d="M658.453 26.9766L647.502 26.2506C651.217 26.2506 654.933 26.4321 658.453 26.9766Z" fill="white"/>
<path d="M671.554 29.6986L672.14 30.9689C671.554 30.4245 671.358 30.0616 671.554 29.6986Z" fill="white"/>
<path d="M671.554 36.2317L675.855 36.5947C674.487 36.7761 672.727 36.5946 671.554 36.2317Z" fill="white"/>
<path d="M377.462 31.1503C376.68 30.9689 375.898 30.9688 375.115 30.7874L377.462 31.1503Z" fill="white"/>
<path d="M457.047 38.0465C458.024 38.228 459.002 38.228 459.784 38.591L457.047 38.0465Z" fill="white"/>
<path d="M439.448 33.5096C440.23 33.3281 441.012 33.5096 441.794 33.3281L439.448 33.5096Z" fill="white"/>
</svg>
