<svg width="129" height="129" viewBox="0 0 129 129" fill="none" xmlns="http://www.w3.org/2000/svg">
<path d="M32.6911 78.9051C30.5302 78.9051 28.4832 79.1591 26.8398 79.3637C25.7536 79.4995 24.8165 79.6156 24.1848 79.6156C23.5531 79.6156 22.6143 79.4995 21.5298 79.3637C19.8842 79.1591 17.8395 78.9051 15.6783 78.9051C5.27474 78.9051 0 85.2464 0 97.7542C0 111.09 10.8483 121.939 24.1846 121.939C37.5208 121.939 48.3691 111.09 48.3694 97.7542C48.3694 85.2464 43.0949 78.9051 32.6911 78.9051ZM24.1846 119.924C11.9603 119.924 2.01525 109.979 2.01525 97.7542C2.01525 82.6662 9.81322 80.9206 15.6781 80.9206C17.7132 80.9206 19.6912 81.1668 21.2796 81.3636C22.4329 81.5072 23.4269 81.6311 24.1846 81.6311C24.9422 81.6311 25.9363 81.5069 27.0875 81.3636C28.6777 81.1668 30.6557 80.9206 32.6908 80.9206C38.5559 80.9206 46.3539 82.6662 46.3539 97.7542C46.3539 109.978 36.4089 119.924 24.1846 119.924Z" fill="white"/>
<path d="M24.1848 115.539C14.2178 115.539 6.1092 107.43 6.1092 97.4633C6.1092 96.9062 5.65842 96.4554 5.10132 96.4554C4.54446 96.4554 4.09369 96.9062 4.09369 97.4633C4.09369 108.542 13.1056 117.554 24.1845 117.554C24.7414 117.554 25.1921 117.103 25.1924 116.546C25.1924 115.989 24.7416 115.539 24.1848 115.539Z" fill="white"/>
<path d="M93.153 78.9051C90.9936 78.9051 88.9468 79.1591 87.3015 79.3637C86.217 79.4995 85.2782 79.6156 84.6465 79.6156C84.0148 79.6156 83.0759 79.4995 81.9915 79.3637C80.3458 79.1591 78.3011 78.9051 76.14 78.9051C65.7364 78.9051 60.4616 85.2464 60.4616 97.7542C60.4616 111.09 71.3099 121.939 84.6462 121.939C97.9825 121.939 108.831 111.09 108.831 97.7542C108.831 85.2464 103.557 78.9051 93.153 78.9051ZM84.6462 119.924C72.4219 119.924 62.4769 109.979 62.4769 97.7542C62.4769 82.6662 70.2749 80.9206 76.1397 80.9206C78.1749 80.9206 80.1528 81.1668 81.7412 81.3636C82.8945 81.5072 83.8885 81.6311 84.6462 81.6311C85.4039 81.6311 86.3979 81.5069 87.5512 81.3636C89.1393 81.1668 91.1173 80.9206 93.1525 80.9206C99.0176 80.9206 106.815 82.6662 106.815 97.7542C106.815 109.978 96.8705 119.924 84.6462 119.924Z" fill="white"/>
<path d="M84.6462 115.539C74.6795 115.539 66.5706 107.43 66.5706 97.4633C66.5706 96.9062 66.1201 96.4554 65.563 96.4554C65.0061 96.4554 64.5553 96.9062 64.5553 97.4633C64.5553 108.542 73.5673 117.554 84.6462 117.554C85.203 117.554 85.6538 117.103 85.6538 116.546C85.6538 115.989 85.203 115.539 84.6462 115.539Z" fill="white"/>
<path d="M76.071 7.78186C75.9138 7.2497 75.3584 6.94457 74.8172 7.10306C74.3017 7.25651 23.177 23.052 23.177 76.5926C23.177 77.1494 23.6275 77.6002 24.1846 77.6002C24.7415 77.6002 25.1923 77.1494 25.1925 76.5926C25.1925 24.5792 74.8903 9.18433 75.3922 9.03567C75.9256 8.87617 76.2285 8.31528 76.071 7.78186Z" fill="white"/>
<path d="M82.9949 62.1733C79.468 51.7823 70.8433 37.4158 49.7882 27.9775C49.2805 27.7512 48.6861 27.9754 48.4578 28.4844C48.2295 28.9919 48.4578 29.5886 48.9655 29.8158C69.3575 38.9578 77.6889 52.8098 81.0859 62.8206C84.4258 72.6525 83.6522 80.4386 83.6444 80.5172C83.5855 81.0703 83.9871 81.5662 84.5399 81.6251C84.5755 81.6289 84.6128 81.6309 84.6483 81.6309C85.156 81.6309 85.5929 81.2474 85.6478 80.7319C85.6834 80.3973 86.4864 72.4499 82.9949 62.1733Z" fill="white"/>
<path d="M75.6322 57.8969C71.8945 57.6923 69.0051 57.334 67.2734 56.8598C57.4188 54.1577 51.1188 44.5097 52.6185 34.4178C52.7012 33.8668 52.3212 33.354 51.7702 33.2724C51.2347 33.1976 50.7071 33.5707 50.6265 34.1208C48.9753 45.2211 55.903 55.8325 66.7417 58.8042C68.6353 59.322 71.5896 59.6939 75.5218 59.9084C75.5415 59.9104 75.5594 59.9104 75.577 59.9104C76.1082 59.9104 76.5532 59.4954 76.5826 58.9577C76.6141 58.4016 76.187 57.9264 75.6322 57.8969Z" fill="white"/>
<path d="M78.5037 15.9202C69.0445 13.3292 58.8455 17.3403 53.7008 25.6785C53.4095 26.1527 53.5571 26.7738 54.0296 27.0661C54.5038 27.3554 55.1239 27.2117 55.4172 26.7373C60.0955 19.152 69.3614 15.505 77.9723 17.8649C90.2593 21.2343 127.44 48.3329 127.007 52.1353C126.143 54.3212 106.863 57.9337 85.646 58.0901C85.0891 58.0939 84.6421 58.5485 84.6462 59.1056C84.6502 59.6597 85.1007 60.1054 85.6538 60.1054C85.6558 60.1054 85.6578 60.1054 85.6616 60.1052C99.6218 60.0018 127.581 57.6489 128.949 52.6736C130.648 46.464 89.169 18.8448 78.5037 15.9202Z" fill="white"/>
<path d="M108.288 45.6914C107.788 45.4326 95.7765 39.302 71.7116 35.2908C71.1724 35.1974 70.6448 35.5703 70.5525 36.1193C70.4601 36.6676 70.8317 37.1872 71.381 37.2786C95.0931 41.2308 107.241 47.4187 107.361 47.4806C107.508 47.5572 107.666 47.5938 107.821 47.5938C108.188 47.5938 108.538 47.395 108.719 47.0495C108.975 46.5554 108.782 45.9474 108.288 45.6914Z" fill="white"/>
</svg>
