<svg width="224" height="73" viewBox="0 0 224 73" fill="none" xmlns="http://www.w3.org/2000/svg">
<path d="M9 65.3C7.56 65.3 6.28 65.12 5.16 64.76C4.04 64.4 2.99 63.79 2.01 62.93C1.47 62.45 1.2 61.92 1.2 61.34C1.2 60.88 1.37 60.48 1.71 60.14C2.05 59.78 2.46 59.6 2.94 59.6C3.32 59.6 3.66 59.72 3.96 59.96C4.76 60.62 5.54 61.1 6.3 61.4C7.06 61.7 7.96 61.85 9 61.85C10.12 61.85 11.08 61.6 11.88 61.1C12.7 60.6 13.11 59.98 13.11 59.24C13.11 58.34 12.71 57.64 11.91 57.14C11.11 56.62 9.84 56.23 8.1 55.97C3.72 55.33 1.53 53.29 1.53 49.85C1.53 48.59 1.86 47.5 2.52 46.58C3.18 45.64 4.08 44.93 5.22 44.45C6.36 43.95 7.63 43.7 9.03 43.7C10.29 43.7 11.47 43.89 12.57 44.27C13.69 44.65 14.62 45.15 15.36 45.77C15.94 46.23 16.23 46.76 16.23 47.36C16.23 47.82 16.06 48.23 15.72 48.59C15.38 48.93 14.98 49.1 14.52 49.1C14.22 49.1 13.95 49.01 13.71 48.83C13.19 48.41 12.46 48.03 11.52 47.69C10.6 47.33 9.77 47.15 9.03 47.15C7.77 47.15 6.79 47.39 6.09 47.87C5.41 48.33 5.07 48.94 5.07 49.7C5.07 50.56 5.42 51.21 6.12 51.65C6.84 52.09 7.96 52.45 9.48 52.73C11.2 53.03 12.57 53.42 13.59 53.9C14.63 54.36 15.41 55 15.93 55.82C16.45 56.62 16.71 57.69 16.71 59.03C16.71 60.29 16.35 61.4 15.63 62.36C14.93 63.3 13.99 64.03 12.81 64.55C11.63 65.05 10.36 65.3 9 65.3ZM48.3604 43.97C48.8604 43.97 49.2904 44.15 49.6504 44.51C50.0304 44.85 50.2204 45.28 50.2204 45.8V63.17C50.2204 63.69 50.0504 64.13 49.7104 64.49C49.3704 64.83 48.9204 65 48.3604 65C47.8004 65 47.3404 64.83 46.9804 64.49C46.6404 64.15 46.4704 63.71 46.4704 63.17V51.08L41.5204 58.64C41.3204 58.88 41.0904 59.08 40.8304 59.24C40.5704 59.38 40.3004 59.44 40.0204 59.42C39.7604 59.44 39.5004 59.38 39.2404 59.24C38.9804 59.08 38.7504 58.88 38.5504 58.64L33.6004 50.81V63.17C33.6004 63.71 33.4404 64.15 33.1204 64.49C32.8004 64.83 32.3804 65 31.8604 65C31.3604 65 30.9504 64.83 30.6304 64.49C30.3104 64.13 30.1504 63.69 30.1504 63.17V45.8C30.1504 45.3 30.3304 44.87 30.6904 44.51C31.0704 44.15 31.5204 43.97 32.0404 43.97C32.3404 43.97 32.6404 44.05 32.9404 44.21C33.2404 44.35 33.4704 44.54 33.6304 44.78L40.1704 54.83L46.8904 44.78C47.0504 44.54 47.2604 44.35 47.5204 44.21C47.8004 44.05 48.0804 43.97 48.3604 43.97ZM84.0505 54.5C84.0505 56.48 83.6105 58.3 82.7305 59.96C81.8505 61.6 80.6305 62.9 79.0705 63.86C77.5305 64.82 75.7905 65.3 73.8505 65.3C71.9105 65.3 70.1605 64.82 68.6005 63.86C67.0605 62.9 65.8505 61.6 64.9705 59.96C64.1105 58.3 63.6805 56.48 63.6805 54.5C63.6805 52.52 64.1105 50.71 64.9705 49.07C65.8505 47.41 67.0605 46.1 68.6005 45.14C70.1605 44.18 71.9105 43.7 73.8505 43.7C75.7905 43.7 77.5305 44.18 79.0705 45.14C80.6305 46.1 81.8505 47.41 82.7305 49.07C83.6105 50.71 84.0505 52.52 84.0505 54.5ZM80.1505 54.5C80.1505 53.16 79.8805 51.95 79.3405 50.87C78.8005 49.77 78.0505 48.9 77.0905 48.26C76.1305 47.62 75.0505 47.3 73.8505 47.3C72.6305 47.3 71.5405 47.62 70.5805 48.26C69.6405 48.88 68.9005 49.74 68.3605 50.84C67.8405 51.94 67.5805 53.16 67.5805 54.5C67.5805 55.84 67.8405 57.06 68.3605 58.16C68.9005 59.26 69.6405 60.13 70.5805 60.77C71.5405 61.39 72.6305 61.7 73.8505 61.7C75.0505 61.7 76.1305 61.38 77.0905 60.74C78.0505 60.1 78.8005 59.24 79.3405 58.16C79.8805 57.06 80.1505 55.84 80.1505 54.5ZM116.814 54.5C116.814 56.48 116.374 58.3 115.494 59.96C114.614 61.6 113.394 62.9 111.834 63.86C110.294 64.82 108.554 65.3 106.614 65.3C104.674 65.3 102.924 64.82 101.364 63.86C99.8241 62.9 98.6141 61.6 97.7341 59.96C96.8741 58.3 96.4441 56.48 96.4441 54.5C96.4441 52.52 96.8741 50.71 97.7341 49.07C98.6141 47.41 99.8241 46.1 101.364 45.14C102.924 44.18 104.674 43.7 106.614 43.7C108.554 43.7 110.294 44.18 111.834 45.14C113.394 46.1 114.614 47.41 115.494 49.07C116.374 50.71 116.814 52.52 116.814 54.5ZM112.914 54.5C112.914 53.16 112.644 51.95 112.104 50.87C111.564 49.77 110.814 48.9 109.854 48.26C108.894 47.62 107.814 47.3 106.614 47.3C105.394 47.3 104.304 47.62 103.344 48.26C102.404 48.88 101.664 49.74 101.124 50.84C100.604 51.94 100.344 53.16 100.344 54.5C100.344 55.84 100.604 57.06 101.124 58.16C101.664 59.26 102.404 60.13 103.344 60.77C104.304 61.39 105.394 61.7 106.614 61.7C107.814 61.7 108.894 61.38 109.854 60.74C110.814 60.1 111.564 59.24 112.104 58.16C112.644 57.06 112.914 55.84 112.914 54.5ZM143.472 44C144.012 44 144.452 44.16 144.792 44.48C145.132 44.8 145.302 45.22 145.302 45.74C145.302 46.26 145.132 46.68 144.792 47C144.452 47.3 144.012 47.45 143.472 47.45H138.762V63.17C138.762 63.69 138.572 64.13 138.192 64.49C137.812 64.83 137.342 65 136.782 65C136.222 65 135.762 64.83 135.402 64.49C135.042 64.13 134.862 63.69 134.862 63.17V47.45H130.152C129.612 47.45 129.172 47.29 128.832 46.97C128.492 46.65 128.322 46.23 128.322 45.71C128.322 45.21 128.492 44.8 128.832 44.48C129.192 44.16 129.632 44 130.152 44H143.472ZM173.661 44C174.221 44 174.671 44.17 175.011 44.51C175.351 44.85 175.521 45.29 175.521 45.83V63.17C175.521 63.69 175.341 64.13 174.981 64.49C174.621 64.83 174.161 65 173.601 65C173.101 65 172.671 64.83 172.311 64.49C171.951 64.13 171.771 63.69 171.771 63.17V56.18H162.201V63.17C162.201 63.69 162.011 64.13 161.631 64.49C161.251 64.83 160.811 65 160.311 65C159.771 65 159.321 64.83 158.961 64.49C158.621 64.13 158.451 63.69 158.451 63.17V45.83C158.451 45.31 158.631 44.88 158.991 44.54C159.351 44.18 159.811 44 160.371 44C160.871 44 161.301 44.18 161.661 44.54C162.021 44.88 162.201 45.31 162.201 45.83V52.73H171.771V45.83C171.771 45.31 171.961 44.88 172.341 44.54C172.721 44.18 173.161 44 173.661 44ZM193.764 63.17C193.764 63.69 193.574 64.13 193.194 64.49C192.814 64.83 192.374 65 191.874 65C191.334 65 190.884 64.83 190.524 64.49C190.184 64.13 190.014 63.69 190.014 63.17V45.83C190.014 45.31 190.194 44.88 190.554 44.54C190.914 44.18 191.374 44 191.934 44C192.434 44 192.864 44.18 193.224 44.54C193.584 44.88 193.764 45.31 193.764 45.83V63.17ZM220.155 61.55C220.675 61.55 221.105 61.73 221.445 62.09C221.805 62.43 221.985 62.83 221.985 63.29C221.985 63.79 221.805 64.2 221.445 64.52C221.105 64.84 220.675 65 220.155 65H210.105C209.585 65 209.145 64.83 208.785 64.49C208.445 64.13 208.275 63.69 208.275 63.17V45.83C208.275 45.31 208.445 44.88 208.785 44.54C209.145 44.18 209.585 44 210.105 44H220.155C220.675 44 221.105 44.17 221.445 44.51C221.805 44.83 221.985 45.25 221.985 45.77C221.985 46.27 221.815 46.68 221.475 47C221.135 47.3 220.695 47.45 220.155 47.45H212.025V52.55H218.805C219.325 52.55 219.755 52.72 220.095 53.06C220.455 53.38 220.635 53.8 220.635 54.32C220.635 54.82 220.465 55.23 220.125 55.55C219.785 55.85 219.345 56 218.805 56H212.025V61.55H220.155Z" fill="white"/>
<path d="M5.16 64.76L4.54798 66.6641L5.16 64.76ZM2.01 62.93L0.681246 64.4248L0.69082 64.4333L2.01 62.93ZM1.71 60.14L3.12421 61.5542L3.14441 61.534L3.16403 61.5132L1.71 60.14ZM3.96 59.96L5.23277 58.4173L5.22115 58.4077L5.20939 58.3983L3.96 59.96ZM11.88 61.1L10.8388 59.3924L10.8294 59.3982L10.82 59.404L11.88 61.1ZM11.91 57.14L10.82 58.8169L10.8349 58.8266L10.85 58.836L11.91 57.14ZM8.1 55.97L8.39557 53.9919L8.38917 53.991L8.1 55.97ZM2.52 46.58L4.14508 47.7458L4.15099 47.7376L4.15683 47.7293L2.52 46.58ZM5.22 44.45L5.99612 46.2933L6.00976 46.2875L6.02332 46.2816L5.22 44.45ZM12.57 44.27L11.917 46.1604L11.9274 46.164L12.57 44.27ZM15.36 45.77L14.0756 47.303L14.0962 47.3203L14.1172 47.337L15.36 45.77ZM15.72 48.59L17.1342 50.0042L17.1544 49.984L17.174 49.9632L15.72 48.59ZM13.71 48.83L12.4533 50.3859L12.4813 50.4084L12.51 50.43L13.71 48.83ZM11.52 47.69L10.7912 49.5525L10.8153 49.5619L10.8397 49.5708L11.52 47.69ZM6.09 47.87L7.21064 49.5266L7.22106 49.5195L6.09 47.87ZM6.12 51.65L5.05566 53.3433L5.06634 53.35L5.0771 53.3566L6.12 51.65ZM9.48 52.73L9.11768 54.6969L9.12701 54.6986L9.13635 54.7003L9.48 52.73ZM13.59 53.9L12.7384 55.7096L12.7596 55.7196L12.781 55.7291L13.59 53.9ZM15.93 55.82L14.241 56.8911L14.247 56.9006L14.2531 56.91L15.93 55.82ZM15.63 62.36L14.03 61.16L14.0259 61.1655L15.63 62.36ZM12.81 64.55L13.5903 66.3915L13.6034 66.3859L13.6165 66.3802L12.81 64.55ZM9 63.3C7.72299 63.3 6.6557 63.14 5.77202 62.8559L4.54798 66.6641C5.9043 67.1 7.39702 67.3 9 67.3V63.3ZM5.77202 62.8559C4.93962 62.5884 4.12576 62.1258 3.32918 61.4267L0.69082 64.4333C1.85424 65.4542 3.14038 66.2116 4.54798 66.6641L5.77202 62.8559ZM3.33873 61.4352C3.21623 61.3263 3.18494 61.2654 3.18458 61.2646C3.18438 61.2642 3.18567 61.2667 3.18763 61.272C3.1896 61.2773 3.19188 61.2844 3.19396 61.2929C3.19843 61.3113 3.2 61.3282 3.2 61.34H-0.8C-0.8 62.6269 -0.172635 63.6658 0.681272 64.4248L3.33873 61.4352ZM3.2 61.34C3.2 61.3629 3.19437 61.4156 3.16816 61.4773C3.1427 61.5372 3.11627 61.5622 3.12421 61.5542L0.295787 58.7258C-0.40036 59.4219 -0.8 60.3234 -0.8 61.34H3.2ZM3.16403 61.5132C3.16972 61.5072 3.14141 61.5378 3.07648 61.5663C3.01018 61.5954 2.95657 61.6 2.94 61.6V57.6C1.89041 57.6 0.960314 58.021 0.255973 58.7668L3.16403 61.5132ZM2.94 61.6C2.91559 61.6 2.8695 61.5954 2.81436 61.576C2.7595 61.5566 2.72412 61.5325 2.71061 61.5217L5.20939 58.3983C4.55902 57.878 3.77956 57.6 2.94 57.6V61.6ZM2.68723 61.5027C3.60754 62.262 4.56631 62.8658 5.56567 63.2603L7.03433 59.5397C6.51369 59.3342 5.91246 58.978 5.23277 58.4173L2.68723 61.5027ZM5.56567 63.2603C6.61367 63.674 7.77431 63.85 9 63.85V59.85C8.14569 59.85 7.50633 59.726 7.03433 59.5397L5.56567 63.2603ZM9 63.85C10.4239 63.85 11.7669 63.5292 12.94 62.796L10.82 59.404C10.3931 59.6708 9.81615 59.85 9 59.85V63.85ZM12.9212 62.8076C14.1349 62.0676 15.11 60.8851 15.11 59.24H11.11C11.11 59.24 11.11 59.2388 11.1102 59.2363C11.1103 59.2338 11.1107 59.2304 11.1113 59.2261C11.1126 59.2172 11.1148 59.2066 11.1182 59.1952C11.1258 59.1703 11.1344 59.1566 11.1343 59.1568C11.1314 59.1611 11.0684 59.2524 10.8388 59.3924L12.9212 62.8076ZM15.11 59.24C15.11 57.6111 14.3206 56.2881 12.97 55.444L10.85 58.836C11.0176 58.9408 11.0633 59.0144 11.0735 59.0323C11.0814 59.0461 11.11 59.0967 11.11 59.24H15.11ZM13 55.4631C11.8344 54.7055 10.2194 54.2645 8.39557 53.992L7.80443 57.948C9.46057 58.1955 10.3856 58.5345 10.82 58.8169L13 55.4631ZM8.38917 53.991C6.41886 53.7031 5.22225 53.1361 4.53571 52.4966C3.90893 51.9127 3.53 51.1059 3.53 49.85H-0.47C-0.47 52.0341 0.246071 53.9673 1.80929 55.4234C3.31275 56.8239 5.40114 57.5969 7.81083 57.949L8.38917 53.991ZM3.53 49.85C3.53 48.9589 3.75617 48.2879 4.14508 47.7458L0.894924 45.4142C-0.036165 46.7121 -0.47 48.2211 -0.47 49.85H3.53ZM4.15683 47.7293C4.58417 47.1206 5.17478 46.6391 5.99612 46.2933L4.44388 42.6067C2.98522 43.2209 1.77584 44.1594 0.883174 45.4307L4.15683 47.7293ZM6.02332 46.2816C6.88028 45.9057 7.87204 45.7 9.03 45.7V41.7C7.38796 41.7 5.83972 41.9943 4.41668 42.6184L6.02332 46.2816ZM9.03 45.7C10.0861 45.7 11.0437 45.8587 11.917 46.1604L13.223 42.3796C11.8963 41.9213 10.4939 41.7 9.03 41.7V45.7ZM11.9274 46.164C12.8641 46.4818 13.5627 46.8734 14.0756 47.303L16.6444 44.237C15.6773 43.4266 14.5159 42.8182 13.2126 42.376L11.9274 46.164ZM14.1172 47.337C14.2437 47.4373 14.2667 47.4885 14.258 47.4725C14.2534 47.4642 14.245 47.446 14.2384 47.4203C14.2318 47.3945 14.23 47.3729 14.23 47.36H18.23C18.23 46.0077 17.5378 44.9446 16.6028 44.203L14.1172 47.337ZM14.23 47.36C14.23 47.3511 14.2309 47.3344 14.2352 47.3121C14.2396 47.2896 14.2465 47.2671 14.255 47.2465C14.2733 47.2023 14.2882 47.1932 14.266 47.2168L17.174 49.9632C17.8353 49.2631 18.23 48.3719 18.23 47.36H14.23ZM14.3058 47.1758C14.2978 47.1837 14.3228 47.1573 14.3827 47.1318C14.4444 47.1056 14.4971 47.1 14.52 47.1V51.1C15.5366 51.1 16.4381 50.7004 17.1342 50.0042L14.3058 47.1758ZM14.52 47.1C14.5733 47.1 14.6452 47.1086 14.725 47.1351C14.8047 47.1617 14.8674 47.198 14.91 47.23L12.51 50.43C13.0962 50.8696 13.7873 51.1 14.52 51.1V47.1ZM14.9667 47.2741C14.2109 46.6636 13.2561 46.1911 12.2003 45.8092L10.8397 49.5708C11.6639 49.8689 12.1692 50.1564 12.4533 50.3859L14.9667 47.2741ZM12.2488 45.8275C11.1699 45.4053 10.0876 45.15 9.03 45.15V49.15C9.45245 49.15 10.0301 49.2547 10.7912 49.5525L12.2488 45.8275ZM9.03 45.15C7.55108 45.15 6.11731 45.4262 4.95894 46.2205L7.22106 49.5195C7.46269 49.3538 7.98892 49.15 9.03 49.15V45.15ZM4.96938 46.2134C3.79164 47.0101 3.07 48.2155 3.07 49.7H7.07C7.07 49.66 7.07435 49.6419 7.07487 49.6399C7.07517 49.6386 7.0741 49.6424 7.07196 49.6462C7.06491 49.6589 7.08459 49.6118 7.21062 49.5266L4.96938 46.2134ZM3.07 49.7C3.07 51.2143 3.7456 52.5198 5.05566 53.3433L7.18434 49.9567C7.13407 49.9251 7.10993 49.9023 7.10102 49.8931C7.09635 49.8882 7.0943 49.8855 7.09382 49.8848C7.09367 49.8846 7.09357 49.8845 7.09352 49.8844C7.09349 49.8844 7.09347 49.8843 7.09346 49.8843C7.09346 49.8843 7.09345 49.8843 7.09345 49.8843C7.09345 49.8843 7.09345 49.8843 7.09345 49.8843C7.09345 49.8843 7.09345 49.8843 7.09345 49.8843C7.09345 49.8843 7.09345 49.8843 7.09345 49.8843C7.09346 49.8843 7.09346 49.8843 7.09347 49.8843C7.09347 49.8844 7.09347 49.8843 7.09344 49.8843C7.09341 49.8842 7.09321 49.8839 7.09286 49.8831C7.09251 49.8823 7.09192 49.8809 7.09114 49.8789C7.08962 49.8748 7.08695 49.8669 7.08397 49.854C7.07806 49.8285 7.07 49.7794 7.07 49.7H3.07ZM5.0771 53.3566C6.11339 53.9898 7.52297 54.4031 9.11768 54.6969L9.84233 50.7631C8.39703 50.4969 7.56661 50.1901 7.1629 49.9434L5.0771 53.3566ZM9.13635 54.7003C10.7655 54.9844 11.9426 55.3352 12.7384 55.7096L14.4416 52.0904C13.1974 51.5048 11.6345 51.0756 9.82365 50.7597L9.13635 54.7003ZM12.781 55.7291C13.5225 56.057 13.9672 56.4593 14.241 56.8911L17.619 54.7489C16.8528 53.5407 15.7375 52.663 14.399 52.0709L12.781 55.7291ZM14.2531 56.91C14.4931 57.2792 14.71 57.9268 14.71 59.03H18.71C18.71 57.4532 18.4069 55.9608 17.6069 54.73L14.2531 56.91ZM14.71 59.03C14.71 59.8804 14.4768 60.5643 14.03 61.16L17.23 63.56C18.2232 62.2357 18.71 60.6996 18.71 59.03H14.71ZM14.0259 61.1655C13.5526 61.8011 12.8997 62.3249 12.0035 62.7198L13.6165 66.3802C15.0803 65.7351 16.3074 64.7989 17.2341 63.5545L14.0259 61.1655ZM12.0297 62.7085C11.1114 63.0976 10.1086 63.3 9 63.3V67.3C10.6114 67.3 12.1486 67.0024 13.5903 66.3915L12.0297 62.7085ZM49.6504 44.51L48.2362 45.9242L48.2754 45.9635L48.3168 46.0005L49.6504 44.51ZM49.7104 64.49L51.1246 65.9042L51.1448 65.884L51.1644 65.8632L49.7104 64.49ZM46.9804 64.49L45.5662 65.9042L45.5864 65.9244L45.6071 65.944L46.9804 64.49ZM46.4704 51.08H48.4704V44.3744L44.7972 49.9844L46.4704 51.08ZM41.5204 58.64L43.0568 59.9204L43.1306 59.8319L43.1936 59.7356L41.5204 58.64ZM40.8304 59.24L41.7786 61.0009L41.8294 60.9736L41.8786 60.9433L40.8304 59.24ZM40.0204 59.42L40.1629 57.4251L40.0149 57.4145L39.867 57.4259L40.0204 59.42ZM39.2404 59.24L38.1922 60.9433L38.2414 60.9736L38.2922 61.0009L39.2404 59.24ZM38.5504 58.64L36.8599 59.7087L36.93 59.8196L37.0139 59.9204L38.5504 58.64ZM33.6004 50.81L35.2909 49.7413L31.6004 43.9036V50.81H33.6004ZM30.6304 64.49L29.1356 65.8187L29.1545 65.84L29.174 65.8607L30.6304 64.49ZM30.6904 44.51L29.3149 43.0581L29.2953 43.0767L29.2762 43.0958L30.6904 44.51ZM32.9404 44.21L31.9992 45.9747L32.0463 45.9998L32.0946 46.0224L32.9404 44.21ZM33.6304 44.78L35.3067 43.6891L35.3007 43.6798L35.2945 43.6706L33.6304 44.78ZM40.1704 54.83L38.4941 55.9209L40.1477 58.462L41.833 55.9417L40.1704 54.83ZM46.8904 44.78L48.553 45.8917L48.5545 45.8894L46.8904 44.78ZM47.5204 44.21L48.4686 45.9709L48.4908 45.959L48.5127 45.9465L47.5204 44.21ZM48.3604 45.97C48.3649 45.97 48.3579 45.9704 48.3422 45.9673C48.3262 45.9642 48.3065 45.9586 48.2856 45.9499C48.2648 45.9412 48.2488 45.9318 48.2386 45.9249C48.2288 45.9181 48.2283 45.9163 48.2362 45.9242L51.0646 43.0958C50.3372 42.3684 49.4016 41.97 48.3604 41.97V45.97ZM48.3168 46.0005C48.317 46.0007 48.3069 45.9916 48.2923 45.9718C48.2774 45.9517 48.2618 45.9259 48.2485 45.8958C48.2196 45.8303 48.2204 45.7887 48.2204 45.8H52.2204C52.2204 44.7239 51.7975 43.7474 50.984 43.0195L48.3168 46.0005ZM48.2204 45.8V63.17H52.2204V45.8H48.2204ZM48.2204 63.17C48.2204 63.1908 48.2187 63.1987 48.2192 63.1963C48.2197 63.1934 48.2218 63.1835 48.2273 63.1692C48.2329 63.1547 48.2399 63.1411 48.2471 63.1299C48.2541 63.1188 48.2584 63.1146 48.2564 63.1168L51.1644 65.8632C51.874 65.112 52.2204 64.1724 52.2204 63.17H48.2204ZM48.2962 63.0758C48.309 63.063 48.3272 63.0476 48.35 63.0328C48.3729 63.0181 48.3943 63.0079 48.4111 63.0016C48.4458 62.9885 48.4379 63 48.3604 63V67C49.3565 67 50.3477 66.6811 51.1246 65.9042L48.2962 63.0758ZM48.3604 63C48.3215 63 48.2982 62.9971 48.2879 62.9953C48.278 62.9937 48.2793 62.993 48.2887 62.9965C48.2984 63.0001 48.3114 63.0061 48.3254 63.0148C48.3393 63.0235 48.3489 63.0315 48.3536 63.036L45.6071 65.944C46.3878 66.6813 47.3619 67 48.3604 67V63ZM48.3946 63.0758C48.4038 63.085 48.4172 63.1004 48.4312 63.1217C48.4452 63.1432 48.456 63.1649 48.4635 63.1842C48.4792 63.2249 48.4704 63.2288 48.4704 63.17H44.4704C44.4704 64.1692 44.8035 65.1416 45.5662 65.9042L48.3946 63.0758ZM48.4704 63.17V51.08H44.4704V63.17H48.4704ZM44.7972 49.9844L39.8472 57.5444L43.1936 59.7356L48.1436 52.1756L44.7972 49.9844ZM39.9839 57.3596C39.9194 57.4371 39.8533 57.4929 39.7822 57.5367L41.8786 60.9433C42.3275 60.6671 42.7214 60.3229 43.0568 59.9204L39.9839 57.3596ZM39.8822 57.4791C39.9031 57.4678 39.9429 57.4501 39.999 57.4376C40.0559 57.425 40.1126 57.4215 40.1629 57.4251L39.8779 61.4149C40.5564 61.4634 41.2028 61.311 41.7786 61.0009L39.8822 57.4791ZM39.867 57.4259C39.9439 57.42 40.0172 57.4267 40.0801 57.4412C40.1413 57.4553 40.1781 57.4734 40.1886 57.4791L38.2922 61.0009C38.8435 61.2978 39.4829 61.4673 40.1738 61.4141L39.867 57.4259ZM40.2886 57.5367C40.2175 57.4929 40.1514 57.4371 40.0868 57.3596L37.0139 59.9204C37.3494 60.3229 37.7433 60.6671 38.1922 60.9433L40.2886 57.5367ZM40.2409 57.5713L35.2909 49.7413L31.9099 51.8787L36.8599 59.7087L40.2409 57.5713ZM31.6004 50.81V63.17H35.6004V50.81H31.6004ZM31.6004 63.17C31.6004 63.2421 31.5899 63.2514 31.6008 63.2215C31.606 63.2071 31.6146 63.1884 31.6271 63.1681C31.6396 63.1477 31.6528 63.1312 31.664 63.1193L34.5768 65.8607C35.3005 65.0918 35.6004 64.1339 35.6004 63.17H31.6004ZM31.664 63.1193C31.6773 63.1052 31.6981 63.086 31.7267 63.0663C31.7554 63.0465 31.7858 63.0304 31.815 63.0186C31.876 62.9939 31.9008 63 31.8604 63V67C32.8625 67 33.8338 66.6501 34.5768 65.8607L31.664 63.1193ZM31.8604 63C31.8401 63 31.8772 62.9974 31.9439 63.025C32.0137 63.0539 32.0632 63.0943 32.0868 63.1193L29.174 65.8607C29.9009 66.633 30.8526 67 31.8604 67V63ZM32.1252 63.1613C32.1251 63.1611 32.1294 63.1661 32.1354 63.176C32.1414 63.1861 32.1464 63.1968 32.15 63.2065C32.1535 63.2161 32.1538 63.2201 32.1532 63.2162C32.1525 63.212 32.1504 63.1973 32.1504 63.17H28.1504C28.1504 64.1375 28.4631 65.0622 29.1356 65.8187L32.1252 63.1613ZM32.1504 63.17V45.8H28.1504V63.17H32.1504ZM32.1504 45.8C32.1504 45.7955 32.1507 45.8025 32.1477 45.8182C32.1446 45.8342 32.139 45.8539 32.1303 45.8748C32.1216 45.8956 32.1122 45.9115 32.1053 45.9217C32.0985 45.9316 32.0967 45.9321 32.1046 45.9242L29.2762 43.0958C28.5488 43.8232 28.1504 44.7588 28.1504 45.8H32.1504ZM32.0659 45.9619C32.0779 45.9505 32.0826 45.948 32.0792 45.9502C32.0755 45.9526 32.0674 45.9573 32.0557 45.962C32.044 45.9666 32.0341 45.9691 32.0284 45.9702C32.023 45.9712 32.0262 45.97 32.0404 45.97V41.97C31.0049 41.97 30.0636 42.3488 29.3149 43.0581L32.0659 45.9619ZM32.0404 45.97C32.0262 45.97 32.0129 45.969 32.0011 45.9675C31.9893 45.9659 31.9805 45.9639 31.9751 45.9625C31.9639 45.9595 31.9716 45.96 31.9992 45.9747L33.8816 42.4453C33.331 42.1516 32.7103 41.97 32.0404 41.97V45.97ZM32.0946 46.0224C32.1077 46.0285 32.0932 46.0234 32.0641 45.9994C32.0338 45.9744 31.9983 45.9374 31.9663 45.8894L35.2945 43.6706C34.9027 43.0829 34.3682 42.6692 33.7862 42.3976L32.0946 46.0224ZM31.9541 45.8709L38.4941 55.9209L41.8467 53.7391L35.3067 43.6891L31.9541 45.8709ZM41.833 55.9417L48.553 45.8917L45.2278 43.6683L38.5078 53.7183L41.833 55.9417ZM48.5545 45.8894C48.5446 45.9042 48.5294 45.9227 48.5097 45.9406C48.4902 45.9582 48.4744 45.9678 48.4686 45.9709L46.5722 42.4491C46.0309 42.7405 45.5724 43.1514 45.2263 43.6706L48.5545 45.8894ZM48.5127 45.9465C48.5278 45.9378 48.5199 45.9444 48.4898 45.953C48.4583 45.962 48.4136 45.97 48.3604 45.97V41.97C47.6825 41.97 47.0639 42.1674 46.5281 42.4735L48.5127 45.9465ZM82.7305 59.96L84.4928 60.9056L84.4975 60.8968L82.7305 59.96ZM79.0705 63.86L78.0223 62.1567L78.0125 62.1628L79.0705 63.86ZM68.6005 63.86L67.5424 65.5573L67.5523 65.5633L68.6005 63.86ZM64.9705 59.96L63.1946 60.88L63.2013 60.8929L63.2081 60.9056L64.9705 59.96ZM64.9705 49.07L63.2034 48.1332L63.1992 48.1412L64.9705 49.07ZM68.6005 45.14L67.5523 43.4367L67.5424 43.4428L68.6005 45.14ZM79.0705 45.14L78.0124 46.8373L78.0223 46.8433L79.0705 45.14ZM82.7305 49.07L80.9634 50.0068L80.9681 50.0156L82.7305 49.07ZM79.3405 50.87L77.5451 51.7513L77.5484 51.7579L77.5516 51.7644L79.3405 50.87ZM70.5805 48.26L71.6817 49.9296L71.6899 49.9241L70.5805 48.26ZM68.3605 50.84L66.5651 49.9587L66.5586 49.9719L66.5523 49.9852L68.3605 50.84ZM68.3605 58.16L66.5523 59.0148L66.5586 59.0281L66.5651 59.0413L68.3605 58.16ZM70.5805 60.77L69.4549 62.4232L69.475 62.4369L69.4954 62.4501L70.5805 60.77ZM77.0905 60.74L78.1999 62.4041L77.0905 60.74ZM79.3405 58.16L81.1293 59.0544L81.1326 59.0479L81.1358 59.0413L79.3405 58.16ZM82.0505 54.5C82.0505 56.1716 81.6822 57.6674 80.9634 59.0232L84.4975 60.8968C85.5388 58.9326 86.0505 56.7884 86.0505 54.5H82.0505ZM80.9681 59.0144C80.2523 60.3484 79.2765 61.3849 78.0223 62.1567L80.1187 65.5633C81.9845 64.4151 83.4486 62.8516 84.4928 60.9056L80.9681 59.0144ZM78.0125 62.1628C76.812 62.9111 75.4434 63.3 73.8505 63.3V67.3C76.1376 67.3 78.249 66.7289 80.1285 65.5572L78.0125 62.1628ZM73.8505 63.3C72.2577 63.3 70.8745 62.9111 69.6487 62.1567L67.5523 65.5633C69.4464 66.7289 71.5632 67.3 73.8505 67.3V63.3ZM69.6585 62.1628C68.4227 61.3924 67.4521 60.3549 66.7328 59.0144L63.2081 60.9056C64.2488 62.8451 65.6982 64.4076 67.5424 65.5572L69.6585 62.1628ZM66.7463 59.04C66.0423 57.6811 65.6805 56.1793 65.6805 54.5H61.6805C61.6805 56.7807 62.1786 58.9189 63.1946 60.88L66.7463 59.04ZM65.6805 54.5C65.6805 52.8205 66.0423 51.3326 66.7417 49.9988L63.1992 48.1412C62.1786 50.0874 61.6805 52.2195 61.6805 54.5H65.6805ZM66.7375 50.0068C67.4585 48.6468 68.4286 47.6039 69.6585 46.8372L67.5424 43.4428C65.6923 44.5961 64.2425 46.1732 63.2034 48.1332L66.7375 50.0068ZM69.6487 46.8433C70.8745 46.0889 72.2577 45.7 73.8505 45.7V41.7C71.5632 41.7 69.4464 42.2711 67.5523 43.4367L69.6487 46.8433ZM73.8505 45.7C75.4434 45.7 76.812 46.0889 78.0125 46.8372L80.1285 43.4428C78.249 42.2711 76.1376 41.7 73.8505 41.7V45.7ZM78.0223 46.8433C79.2705 47.6115 80.2459 48.6533 80.9634 50.0068L84.4975 48.1332C83.455 46.1667 81.9904 44.5885 80.1187 43.4367L78.0223 46.8433ZM80.9681 50.0156C81.6822 51.3463 82.0505 52.8283 82.0505 54.5H86.0505C86.0505 52.2117 85.5388 50.0737 84.4928 48.1244L80.9681 50.0156ZM82.1505 54.5C82.1505 52.884 81.8228 51.3626 81.1293 49.9756L77.5516 51.7644C77.9381 52.5374 78.1505 53.436 78.1505 54.5H82.1505ZM81.1358 49.9887C80.4503 48.5922 79.4719 47.4439 78.1999 46.5959L75.9811 49.9241C76.629 50.356 77.1507 50.9478 77.5451 51.7513L81.1358 49.9887ZM78.1999 46.5959C76.8977 45.7278 75.4286 45.3 73.8505 45.3V49.3C74.6723 49.3 75.3633 49.5122 75.9811 49.9241L78.1999 46.5959ZM73.8505 45.3C72.2595 45.3 70.7789 45.724 69.4711 46.5959L71.6899 49.9241C72.302 49.516 73.0015 49.3 73.8505 49.3V45.3ZM69.4793 46.5905C68.2159 47.4238 67.2479 48.5679 66.5651 49.9587L70.1558 51.7213C70.5531 50.9121 71.0651 50.3362 71.6817 49.9295L69.4793 46.5905ZM66.5523 49.9852C65.8937 51.3786 65.5805 52.8947 65.5805 54.5H69.5805C69.5805 53.4253 69.7873 52.5014 70.1686 51.6948L66.5523 49.9852ZM65.5805 54.5C65.5805 56.1053 65.8937 57.6214 66.5523 59.0148L70.1686 57.3052C69.7873 56.4986 69.5805 55.5747 69.5805 54.5H65.5805ZM66.5651 59.0413C67.2456 60.4274 68.2065 61.5732 69.4549 62.4232L71.7061 59.1168C71.0744 58.6868 70.5554 58.0926 70.1558 57.2787L66.5651 59.0413ZM69.4954 62.4501C70.8009 63.2932 72.2728 63.7 73.8505 63.7V59.7C72.9882 59.7 72.28 59.4868 71.6655 59.0899L69.4954 62.4501ZM73.8505 63.7C75.4286 63.7 76.8977 63.2722 78.1999 62.4041L75.9811 59.0759C75.3633 59.4878 74.6723 59.7 73.8505 59.7V63.7ZM78.1999 62.4041C79.4632 61.5619 80.4412 60.4307 81.1293 59.0544L77.5516 57.2656C77.1597 58.0493 76.6378 58.6381 75.9811 59.0759L78.1999 62.4041ZM81.1358 59.0413C81.8227 57.6421 82.1505 56.1165 82.1505 54.5H78.1505C78.1505 55.5635 77.9382 56.4779 77.5451 57.2787L81.1358 59.0413ZM115.494 59.96L117.256 60.9056L117.261 60.8968L115.494 59.96ZM111.834 63.86L110.786 62.1567L110.776 62.1628L111.834 63.86ZM101.364 63.86L100.306 65.5573L100.316 65.5633L101.364 63.86ZM97.7341 59.96L95.9583 60.88L95.965 60.8929L95.9718 60.9056L97.7341 59.96ZM97.7341 49.07L95.9671 48.1332L95.9629 48.1412L97.7341 49.07ZM101.364 45.14L100.316 43.4367L100.306 43.4428L101.364 45.14ZM111.834 45.14L110.776 46.8373L110.786 46.8433L111.834 45.14ZM115.494 49.07L113.727 50.0068L113.732 50.0156L115.494 49.07ZM112.104 50.87L110.309 51.7513L110.312 51.7579L110.315 51.7644L112.104 50.87ZM103.344 48.26L104.445 49.9296L104.454 49.9241L103.344 48.26ZM101.124 50.84L99.3288 49.9587L99.3223 49.9719L99.316 49.9852L101.124 50.84ZM101.124 58.16L99.316 59.0148L99.3223 59.0281L99.3288 59.0413L101.124 58.16ZM103.344 60.77L102.219 62.4232L102.239 62.4369L102.259 62.4501L103.344 60.77ZM109.854 60.74L110.964 62.4041L109.854 60.74ZM112.104 58.16L113.893 59.0544L113.896 59.0479L113.899 59.0413L112.104 58.16ZM114.814 54.5C114.814 56.1716 114.446 57.6674 113.727 59.0232L117.261 60.8968C118.302 58.9326 118.814 56.7884 118.814 54.5H114.814ZM113.732 59.0144C113.016 60.3484 112.04 61.3849 110.786 62.1567L112.882 65.5633C114.748 64.4151 116.212 62.8516 117.256 60.9056L113.732 59.0144ZM110.776 62.1628C109.576 62.9111 108.207 63.3 106.614 63.3V67.3C108.901 67.3 111.013 66.7289 112.892 65.5572L110.776 62.1628ZM106.614 63.3C105.021 63.3 103.638 62.9111 102.412 62.1567L100.316 65.5633C102.21 66.7289 104.327 67.3 106.614 67.3V63.3ZM102.422 62.1628C101.186 61.3924 100.216 60.3549 99.4965 59.0144L95.9718 60.9056C97.0125 62.8451 98.4619 64.4076 100.306 65.5572L102.422 62.1628ZM99.51 59.04C98.806 57.6811 98.4441 56.1793 98.4441 54.5H94.4441C94.4441 56.7807 94.9423 58.9189 95.9583 60.88L99.51 59.04ZM98.4441 54.5C98.4441 52.8205 98.806 51.3326 99.5054 49.9988L95.9629 48.1412C94.9423 50.0874 94.4441 52.2195 94.4441 54.5H98.4441ZM99.5012 50.0068C100.222 48.6468 101.192 47.6039 102.422 46.8372L100.306 43.4428C98.456 44.5961 97.0062 46.1732 95.9671 48.1332L99.5012 50.0068ZM102.412 46.8433C103.638 46.0889 105.021 45.7 106.614 45.7V41.7C104.327 41.7 102.21 42.2711 100.316 43.4367L102.412 46.8433ZM106.614 45.7C108.207 45.7 109.576 46.0889 110.776 46.8372L112.892 43.4428C111.013 42.2711 108.901 41.7 106.614 41.7V45.7ZM110.786 46.8433C112.034 47.6115 113.01 48.6533 113.727 50.0068L117.261 48.1332C116.219 46.1667 114.754 44.5885 112.882 43.4367L110.786 46.8433ZM113.732 50.0156C114.446 51.3463 114.814 52.8283 114.814 54.5H118.814C118.814 52.2117 118.302 50.0737 117.256 48.1244L113.732 50.0156ZM114.914 54.5C114.914 52.884 114.587 51.3626 113.893 49.9756L110.315 51.7644C110.702 52.5374 110.914 53.436 110.914 54.5H114.914ZM113.899 49.9887C113.214 48.5922 112.236 47.4439 110.964 46.5959L108.745 49.9241C109.393 50.356 109.914 50.9478 110.309 51.7513L113.899 49.9887ZM110.964 46.5959C109.661 45.7278 108.192 45.3 106.614 45.3V49.3C107.436 49.3 108.127 49.5122 108.745 49.9241L110.964 46.5959ZM106.614 45.3C105.023 45.3 103.543 45.724 102.235 46.5959L104.454 49.9241C105.066 49.516 105.765 49.3 106.614 49.3V45.3ZM102.243 46.5905C100.98 47.4238 100.012 48.5679 99.3288 49.9587L102.919 51.7213C103.317 50.9121 103.829 50.3362 104.445 49.9295L102.243 46.5905ZM99.316 49.9852C98.6573 51.3786 98.3441 52.8947 98.3441 54.5H102.344C102.344 53.4253 102.551 52.5014 102.932 51.6948L99.316 49.9852ZM98.3441 54.5C98.3441 56.1053 98.6573 57.6214 99.316 59.0148L102.932 57.3052C102.551 56.4986 102.344 55.5747 102.344 54.5H98.3441ZM99.3288 59.0413C100.009 60.4274 100.97 61.5732 102.219 62.4232L104.47 59.1168C103.838 58.6868 103.319 58.0926 102.919 57.2787L99.3288 59.0413ZM102.259 62.4501C103.565 63.2932 105.036 63.7 106.614 63.7V59.7C105.752 59.7 105.044 59.4868 104.429 59.0899L102.259 62.4501ZM106.614 63.7C108.192 63.7 109.661 63.2722 110.964 62.4041L108.745 59.0759C108.127 59.4878 107.436 59.7 106.614 59.7V63.7ZM110.964 62.4041C112.227 61.5619 113.205 60.4307 113.893 59.0544L110.315 57.2656C109.923 58.0493 109.401 58.6381 108.745 59.0759L110.964 62.4041ZM113.899 59.0413C114.586 57.6421 114.914 56.1165 114.914 54.5H110.914C110.914 55.5635 110.702 56.4779 110.309 57.2787L113.899 59.0413ZM144.792 44.48L143.421 45.9364V45.9364L144.792 44.48ZM144.792 47L146.115 48.4997L146.139 48.4784L146.163 48.4564L144.792 47ZM138.762 47.45V45.45H136.762V47.45H138.762ZM138.192 64.49L139.525 65.9805L139.547 65.9615L139.567 65.9419L138.192 64.49ZM135.402 64.49L133.988 65.9042L134.008 65.9244L134.029 65.944L135.402 64.49ZM134.862 47.45H136.862V45.45H134.862V47.45ZM128.832 46.97L127.461 48.4264V48.4264L128.832 46.97ZM128.832 44.48L127.503 42.9852L127.482 43.0041L127.461 43.0236L128.832 44.48ZM143.472 46C143.544 46 143.553 46.0104 143.523 45.9996C143.509 45.9944 143.49 45.9858 143.47 45.9733C143.45 45.9608 143.433 45.9476 143.421 45.9364L146.163 43.0236C145.394 42.2999 144.436 42 143.472 42V46ZM143.421 45.9364C143.407 45.9231 143.388 45.9023 143.368 45.8737C143.348 45.8449 143.332 45.8146 143.32 45.7854C143.296 45.7244 143.302 45.6996 143.302 45.74H147.302C147.302 44.7379 146.952 43.7666 146.163 43.0236L143.421 45.9364ZM143.302 45.74C143.302 45.7804 143.296 45.7556 143.32 45.6946C143.332 45.6654 143.348 45.635 143.368 45.6063C143.388 45.5777 143.407 45.5569 143.421 45.5436L146.163 48.4564C146.952 47.7134 147.302 46.7421 147.302 45.74H143.302ZM143.469 45.5003C143.483 45.4878 143.5 45.4753 143.519 45.4645C143.537 45.4538 143.553 45.4475 143.562 45.4445C143.58 45.4382 143.557 45.45 143.472 45.45V49.45C144.401 49.45 145.342 49.1815 146.115 48.4997L143.469 45.5003ZM143.472 45.45H138.762V49.45H143.472V45.45ZM136.762 47.45V63.17H140.762V47.45H136.762ZM136.762 63.17C136.762 63.1777 136.761 63.1723 136.764 63.1567C136.767 63.1407 136.773 63.1199 136.783 63.0971C136.793 63.0744 136.804 63.0565 136.812 63.0445C136.821 63.0328 136.824 63.031 136.816 63.0381L139.567 65.9419C140.343 65.2071 140.762 64.2433 140.762 63.17H136.762ZM136.858 62.9995C136.855 63.0026 136.856 63.0013 136.861 62.9981C136.866 62.995 136.871 62.9928 136.874 62.9917C136.877 62.9908 136.873 62.9926 136.859 62.9948C136.846 62.9971 136.821 63 136.782 63V67C137.782 67 138.742 66.6818 139.525 65.9805L136.858 62.9995ZM136.782 63C136.743 63 136.72 62.9971 136.709 62.9953C136.699 62.9937 136.701 62.993 136.71 62.9965C136.72 63.0001 136.733 63.0061 136.747 63.0148C136.761 63.0235 136.77 63.0315 136.775 63.036L134.029 65.944C134.809 66.6813 135.783 67 136.782 67V63ZM136.816 63.0758C136.812 63.0713 136.815 63.0744 136.823 63.0861C136.831 63.0979 136.84 63.114 136.848 63.1327C136.856 63.1515 136.86 63.1669 136.861 63.1764C136.863 63.1855 136.862 63.1843 136.862 63.17H132.862C132.862 64.2077 133.244 65.1602 133.988 65.9042L136.816 63.0758ZM136.862 63.17V47.45H132.862V63.17H136.862ZM134.862 45.45H130.152V49.45H134.862V45.45ZM130.152 45.45C130.08 45.45 130.07 45.4396 130.1 45.4504C130.115 45.4556 130.133 45.4642 130.154 45.4767C130.174 45.4892 130.191 45.5024 130.203 45.5136L127.461 48.4264C128.23 49.1501 129.188 49.45 130.152 49.45V45.45ZM130.203 45.5136C130.217 45.5269 130.236 45.5477 130.256 45.5763C130.275 45.605 130.291 45.6354 130.303 45.6646C130.328 45.7256 130.322 45.7504 130.322 45.71H126.322C126.322 46.7121 126.672 47.6834 127.461 48.4264L130.203 45.5136ZM130.322 45.71C130.322 45.6897 130.325 45.7268 130.297 45.7935C130.268 45.8633 130.228 45.9129 130.203 45.9364L127.461 43.0236C126.689 43.7505 126.322 44.7022 126.322 45.71H130.322ZM130.161 45.9748C130.161 45.9747 130.156 45.979 130.146 45.985C130.136 45.991 130.125 45.996 130.115 45.9996C130.106 46.0031 130.102 46.0034 130.106 46.0028C130.11 46.0021 130.125 46 130.152 46V42C129.184 42 128.26 42.3127 127.503 42.9852L130.161 45.9748ZM130.152 46H143.472V42H130.152V46ZM174.981 64.49L176.354 65.944L176.375 65.9244L176.395 65.9042L174.981 64.49ZM172.311 64.49L170.897 65.9042L170.917 65.9244L170.938 65.944L172.311 64.49ZM171.771 56.18H173.771V54.18H171.771V56.18ZM162.201 56.18V54.18H160.201V56.18H162.201ZM161.631 64.49L162.965 65.9805L162.986 65.9615L163.007 65.9419L161.631 64.49ZM158.961 64.49L157.507 65.8632L157.546 65.9048L157.588 65.944L158.961 64.49ZM158.991 44.54L160.364 45.994L160.385 45.9744L160.405 45.9542L158.991 44.54ZM161.661 44.54L160.247 45.9542L160.267 45.9744L160.288 45.994L161.661 44.54ZM162.201 52.73H160.201V54.73H162.201V52.73ZM171.771 52.73V54.73H173.771V52.73H171.771ZM172.341 44.54L173.675 46.0305L173.696 46.0115L173.717 45.9919L172.341 44.54ZM173.661 46C173.739 46 173.747 46.0115 173.712 45.9984C173.695 45.9921 173.674 45.9819 173.651 45.9672C173.628 45.9524 173.61 45.937 173.597 45.9242L176.425 43.0958C175.648 42.3189 174.657 42 173.661 42V46ZM173.597 45.9242C173.588 45.915 173.574 45.8996 173.56 45.8782C173.546 45.8568 173.536 45.8351 173.528 45.8158C173.512 45.7751 173.521 45.7712 173.521 45.83H177.521C177.521 44.8308 177.188 43.8584 176.425 43.0958L173.597 45.9242ZM173.521 45.83V63.17H177.521V45.83H173.521ZM173.521 63.17C173.521 63.1843 173.52 63.1855 173.522 63.1764C173.523 63.1669 173.527 63.1515 173.535 63.1327C173.543 63.1139 173.552 63.0979 173.56 63.0861C173.568 63.0744 173.571 63.0713 173.567 63.0758L176.395 65.9042C177.139 65.1602 177.521 64.2077 177.521 63.17H173.521ZM173.608 63.036C173.613 63.0315 173.622 63.0235 173.636 63.0148C173.65 63.0061 173.663 63.0001 173.673 62.9965C173.682 62.993 173.684 62.9937 173.674 62.9953C173.663 62.9971 173.64 63 173.601 63V67C174.6 67 175.574 66.6813 176.354 65.944L173.608 63.036ZM173.601 63C173.59 63 173.59 62.9991 173.599 63.0007C173.608 63.0024 173.622 63.006 173.639 63.0126C173.656 63.0192 173.669 63.0266 173.679 63.0328C173.688 63.0389 173.69 63.0413 173.684 63.036L170.938 65.944C171.673 66.6384 172.596 67 173.601 67V63ZM173.725 63.0758C173.721 63.0713 173.725 63.0744 173.733 63.0861C173.741 63.0979 173.75 63.114 173.757 63.1327C173.765 63.1515 173.769 63.1669 173.771 63.1764C173.772 63.1855 173.771 63.1843 173.771 63.17H169.771C169.771 64.2077 170.153 65.1602 170.897 65.9042L173.725 63.0758ZM173.771 63.17V56.18H169.771V63.17H173.771ZM171.771 54.18H162.201V58.18H171.771V54.18ZM160.201 56.18V63.17H164.201V56.18H160.201ZM160.201 63.17C160.201 63.1777 160.201 63.1723 160.204 63.1567C160.207 63.1407 160.213 63.1199 160.223 63.0971C160.232 63.0744 160.243 63.0565 160.252 63.0445C160.26 63.0328 160.263 63.031 160.256 63.0381L163.007 65.9419C163.782 65.2071 164.201 64.2433 164.201 63.17H160.201ZM160.298 62.9995C160.284 63.0116 160.278 63.0155 160.279 63.0148C160.28 63.014 160.286 63.0106 160.295 63.0069C160.3 63.0052 160.304 63.0037 160.309 63.0025C160.313 63.0013 160.317 63.0005 160.319 63.0001C160.324 62.9991 160.322 63 160.311 63V67C161.314 67 162.226 66.6414 162.965 65.9805L160.298 62.9995ZM160.311 63C160.281 63 160.265 62.9977 160.262 62.997C160.258 62.9964 160.264 62.9971 160.275 63.0016C160.288 63.0061 160.301 63.0127 160.314 63.0207C160.326 63.0286 160.333 63.0348 160.334 63.036L157.588 65.944C158.354 66.6678 159.311 67 160.311 67V63ZM160.415 63.1168C160.413 63.1146 160.417 63.1188 160.424 63.1299C160.432 63.1411 160.439 63.1547 160.444 63.1692C160.45 63.1835 160.452 63.1934 160.452 63.1963C160.453 63.1987 160.451 63.1908 160.451 63.17H156.451C156.451 64.1724 156.798 65.112 157.507 65.8632L160.415 63.1168ZM160.451 63.17V45.83H156.451V63.17H160.451ZM160.451 45.83C160.451 45.8045 160.455 45.8334 160.431 45.8898C160.42 45.9159 160.407 45.94 160.392 45.9602C160.378 45.9802 160.367 45.9912 160.364 45.994L157.618 43.086C156.836 43.8245 156.451 44.7907 156.451 45.83H160.451ZM160.405 45.9542C160.403 45.9565 160.395 45.9644 160.38 45.9741C160.365 45.9839 160.349 45.9919 160.335 45.9975C160.321 46.003 160.314 46.0039 160.317 46.0033C160.321 46.0026 160.338 46 160.371 46V42C159.339 42 158.351 42.3514 157.577 43.1258L160.405 45.9542ZM160.371 46C160.376 46 160.369 46.0003 160.353 45.9973C160.337 45.9942 160.317 45.9886 160.296 45.9799C160.276 45.9712 160.26 45.9618 160.249 45.9549C160.24 45.9481 160.239 45.9463 160.247 45.9542L163.075 43.1258C162.348 42.3984 161.412 42 160.371 42V46ZM160.288 45.994C160.285 45.9912 160.274 45.9802 160.26 45.9602C160.246 45.94 160.232 45.9159 160.221 45.8898C160.198 45.8334 160.201 45.8045 160.201 45.83H164.201C164.201 44.7907 163.816 43.8245 163.034 43.086L160.288 45.994ZM160.201 45.83V52.73H164.201V45.83H160.201ZM162.201 54.73H171.771V50.73H162.201V54.73ZM173.771 52.73V45.83H169.771V52.73H173.771ZM173.771 45.83C173.771 45.8187 173.772 45.8603 173.743 45.9258C173.73 45.9559 173.714 45.9817 173.699 46.0018C173.685 46.0216 173.675 46.0307 173.675 46.0305L171.008 43.0495C170.194 43.7774 169.771 44.7539 169.771 45.83H173.771ZM173.717 45.9919C173.732 45.9774 173.739 45.9729 173.737 45.9741C173.735 45.9755 173.727 45.9805 173.713 45.9861C173.7 45.9917 173.686 45.9957 173.674 45.9981C173.662 46.0003 173.657 46 173.661 46V42C172.624 42 171.698 42.3944 170.966 43.0881L173.717 45.9919ZM193.194 64.49L194.527 65.9805L194.548 65.9615L194.569 65.9419L193.194 64.49ZM190.524 64.49L189.07 65.8632L189.109 65.9048L189.15 65.944L190.524 64.49ZM190.554 44.54L191.927 45.994L191.948 45.9744L191.968 45.9542L190.554 44.54ZM193.224 44.54L191.809 45.9542L191.83 45.9744L191.85 45.994L193.224 44.54ZM191.764 63.17C191.764 63.1777 191.763 63.1723 191.766 63.1567C191.769 63.1407 191.775 63.1199 191.785 63.0971C191.795 63.0744 191.806 63.0565 191.814 63.0445C191.823 63.0328 191.826 63.031 191.818 63.0381L194.569 65.9419C195.345 65.2071 195.764 64.2433 195.764 63.17H191.764ZM191.86 62.9995C191.847 63.0116 191.84 63.0155 191.841 63.0148C191.842 63.014 191.848 63.0106 191.858 63.0069C191.862 63.0052 191.867 63.0037 191.871 63.0025C191.876 63.0013 191.879 63.0005 191.882 63.0001C191.887 62.9991 191.885 63 191.874 63V67C192.876 67 193.789 66.6414 194.527 65.9805L191.86 62.9995ZM191.874 63C191.844 63 191.828 62.9977 191.824 62.997C191.82 62.9964 191.826 62.9971 191.838 63.0016C191.85 63.0061 191.864 63.0127 191.876 63.0207C191.889 63.0286 191.896 63.0348 191.897 63.036L189.15 65.944C189.917 66.6678 190.873 67 191.874 67V63ZM191.978 63.1168C191.976 63.1146 191.98 63.1188 191.987 63.1299C191.994 63.1411 192.001 63.1547 192.007 63.1692C192.012 63.1835 192.014 63.1934 192.015 63.1963C192.015 63.1987 192.014 63.1908 192.014 63.17H188.014C188.014 64.1724 188.36 65.112 189.07 65.8632L191.978 63.1168ZM192.014 63.17V45.83H188.014V63.17H192.014ZM192.014 45.83C192.014 45.8045 192.017 45.8334 191.994 45.8898C191.983 45.9159 191.969 45.94 191.955 45.9602C191.941 45.9802 191.93 45.9912 191.927 45.994L189.18 43.086C188.398 43.8245 188.014 44.7907 188.014 45.83H192.014ZM191.968 45.9542C191.966 45.9565 191.957 45.9644 191.942 45.9741C191.928 45.9839 191.912 45.9919 191.897 45.9975C191.883 46.003 191.877 46.0039 191.88 46.0033C191.884 46.0026 191.901 46 191.934 46V42C190.901 42 189.914 42.3514 189.139 43.1258L191.968 45.9542ZM191.934 46C191.938 46 191.931 46.0003 191.915 45.9973C191.899 45.9942 191.88 45.9886 191.859 45.9799C191.838 45.9712 191.822 45.9618 191.812 45.9549C191.802 45.9481 191.802 45.9463 191.809 45.9542L194.638 43.1258C193.91 42.3984 192.975 42 191.934 42V46ZM191.85 45.994C191.847 45.9912 191.836 45.9802 191.822 45.9602C191.808 45.94 191.795 45.9159 191.784 45.8898C191.76 45.8334 191.764 45.8045 191.764 45.83H195.764C195.764 44.7907 195.379 43.8245 194.597 43.086L191.85 45.994ZM191.764 45.83V63.17H195.764V45.83H191.764ZM221.445 62.09L219.991 63.4632L220.031 63.5048L220.072 63.544L221.445 62.09ZM221.445 64.52L220.117 63.0252L220.095 63.0441L220.075 63.0636L221.445 64.52ZM208.785 64.49L207.331 65.8632L207.371 65.9048L207.412 65.944L208.785 64.49ZM208.785 44.54L207.371 43.1258L208.785 44.54ZM221.445 44.51L220.031 45.9242L220.073 45.9658L220.117 46.0048L221.445 44.51ZM221.475 47L222.799 48.4997L222.823 48.4784L222.846 48.4564L221.475 47ZM212.025 47.45V45.45H210.025V47.45H212.025ZM212.025 52.55H210.025V54.55H212.025V52.55ZM220.095 53.06L218.681 54.4742L218.723 54.5158L218.767 54.5548L220.095 53.06ZM220.125 55.55L221.449 57.0497L221.473 57.0284L221.496 57.0064L220.125 55.55ZM212.025 56V54H210.025V56H212.025ZM212.025 61.55H210.025V63.55H212.025V61.55ZM220.155 63.55C220.181 63.55 220.152 63.5535 220.096 63.5299C220.07 63.519 220.045 63.5054 220.025 63.4912C220.005 63.4772 219.994 63.4662 219.991 63.4632L222.899 60.7168C222.161 59.9347 221.195 59.55 220.155 59.55V63.55ZM220.072 63.544C220.086 63.5575 220.057 63.5331 220.027 63.4657C219.995 63.3952 219.985 63.3289 219.985 63.29H223.985C223.985 62.2345 223.545 61.3216 222.819 60.636L220.072 63.544ZM219.985 63.29C219.985 63.2956 219.986 63.245 220.019 63.1685C220.053 63.0902 220.098 63.0419 220.117 63.0252L222.774 66.0148C223.579 65.2991 223.985 64.3365 223.985 63.29H219.985ZM220.075 63.0636C220.083 63.0558 220.097 63.0445 220.115 63.0328C220.134 63.0209 220.154 63.0118 220.17 63.0056C220.206 62.9922 220.209 63 220.155 63V67C221.122 67 222.062 66.6864 222.816 65.9764L220.075 63.0636ZM220.155 63H210.105V67H220.155V63ZM210.105 63C210.085 63 210.077 62.9983 210.079 62.9988C210.082 62.9993 210.092 63.0014 210.106 63.0069C210.121 63.0125 210.134 63.0195 210.146 63.0267C210.157 63.0337 210.161 63.038 210.159 63.036L207.412 65.944C208.163 66.6536 209.103 67 210.105 67V63ZM210.239 63.1168C210.237 63.1146 210.242 63.1188 210.249 63.1299C210.256 63.1411 210.263 63.1547 210.268 63.1692C210.274 63.1835 210.276 63.1934 210.277 63.1963C210.277 63.1987 210.275 63.1908 210.275 63.17H206.275C206.275 64.1724 206.622 65.112 207.331 65.8632L210.239 63.1168ZM210.275 63.17V45.83H206.275V63.17H210.275ZM210.275 45.83C210.275 45.7905 210.281 45.8063 210.263 45.8528C210.254 45.8745 210.243 45.8964 210.23 45.9163C210.217 45.936 210.205 45.9486 210.2 45.9542L207.371 43.1258C206.624 43.8733 206.275 44.8273 206.275 45.83H210.275ZM210.2 45.9542C210.204 45.9497 210.201 45.9536 210.189 45.9614C210.177 45.9695 210.161 45.9784 210.143 45.9861C210.124 45.9938 210.108 45.9977 210.099 45.9995C210.09 46.0012 210.091 46 210.105 46V42C209.068 42 208.115 42.3818 207.371 43.1258L210.2 45.9542ZM210.105 46H220.155V42H210.105V46ZM220.155 46C220.195 46 220.179 46.0058 220.133 45.9874C220.111 45.9788 220.089 45.9675 220.069 45.9543C220.049 45.9412 220.037 45.9299 220.031 45.9242L222.86 43.0958C222.112 42.3483 221.158 42 220.155 42V46ZM220.117 46.0048C220.089 45.9803 220.044 45.9277 220.012 45.8528C219.982 45.7818 219.985 45.7436 219.985 45.77H223.985C223.985 44.7299 223.598 43.7474 222.774 43.0152L220.117 46.0048ZM219.985 45.77C219.985 45.7903 219.983 45.7532 220.01 45.6865C220.039 45.6167 220.08 45.5671 220.105 45.5436L222.846 48.4564C223.618 47.7295 223.985 46.7778 223.985 45.77H219.985ZM220.152 45.5003C220.166 45.4878 220.183 45.4753 220.202 45.4645C220.221 45.4538 220.236 45.4475 220.245 45.4445C220.263 45.4382 220.241 45.45 220.155 45.45V49.45C221.085 49.45 222.026 49.1815 222.799 48.4997L220.152 45.5003ZM220.155 45.45H212.025V49.45H220.155V45.45ZM210.025 47.45V52.55H214.025V47.45H210.025ZM212.025 54.55H218.805V50.55H212.025V54.55ZM218.805 54.55C218.845 54.55 218.829 54.5558 218.783 54.5374C218.761 54.5288 218.739 54.5175 218.719 54.5043C218.699 54.4912 218.687 54.4799 218.681 54.4742L221.51 51.6458C220.762 50.8983 219.808 50.55 218.805 50.55V54.55ZM218.767 54.5548C218.739 54.5303 218.694 54.4777 218.662 54.4028C218.632 54.3318 218.635 54.2936 218.635 54.32H222.635C222.635 53.2799 222.248 52.2975 221.424 51.5652L218.767 54.5548ZM218.635 54.32C218.635 54.3403 218.633 54.3032 218.66 54.2365C218.689 54.1667 218.73 54.1171 218.755 54.0936L221.496 57.0064C222.268 56.2795 222.635 55.3278 222.635 54.32H218.635ZM218.802 54.0503C218.816 54.0378 218.833 54.0253 218.852 54.0145C218.871 54.0038 218.886 53.9975 218.895 53.9945C218.913 53.9882 218.891 54 218.805 54V58C219.735 58 220.676 57.7315 221.449 57.0497L218.802 54.0503ZM218.805 54H212.025V58H218.805V54ZM210.025 56V61.55H214.025V56H210.025ZM212.025 63.55H220.155V59.55H212.025V63.55Z" fill="#FEA3AC"/>
<path d="M40.833 20.3584C40.5726 20.3584 40.3203 20.4072 40.0762 20.5049C39.8483 20.6025 39.6204 20.7083 39.3926 20.8223C39.181 20.9199 38.9531 21.0176 38.709 21.1152C38.4811 21.1966 38.237 21.2373 37.9766 21.2373C37.5046 21.2373 37.2686 20.9769 37.2686 20.4561V20.4072C37.2686 20.391 37.2767 20.3747 37.293 20.3584L40.9795 19.2354C41.0283 18.5192 41.0365 17.8112 41.0039 17.1113C40.9876 16.3952 40.9714 15.7116 40.9551 15.0605C40.9388 14.3932 40.9469 13.7666 40.9795 13.1807C41.0283 12.5947 41.126 12.0495 41.2725 11.5449C41.4189 11.0404 41.6387 10.6009 41.9316 10.2266C42.2409 9.85221 42.6641 9.54297 43.2012 9.29883C43.3802 9.29883 43.5755 9.32324 43.7871 9.37207C44.015 9.4209 44.2184 9.50228 44.3975 9.61621C44.5765 9.71387 44.7311 9.85221 44.8613 10.0312C44.9915 10.194 45.0566 10.3812 45.0566 10.5928C44.3405 10.5928 43.7708 10.723 43.3477 10.9834C42.9408 11.2275 42.6315 11.5531 42.4199 11.96C42.2083 12.3669 42.0781 12.847 42.0293 13.4004C41.9805 13.9375 41.9642 14.5072 41.9805 15.1094C42.013 15.6953 42.0537 16.2894 42.1025 16.8916C42.1676 17.4938 42.2002 18.0635 42.2002 18.6006C42.7536 18.6006 43.2907 18.5436 43.8115 18.4297C44.3486 18.3158 44.8776 18.1937 45.3984 18.0635C45.9355 17.917 46.4727 17.7949 47.0098 17.6973C47.5469 17.5833 48.084 17.5264 48.6211 17.5264C49.0117 17.5264 49.207 17.7135 49.207 18.0879C49.207 18.2344 49.0687 18.3646 48.792 18.4785C48.5153 18.5924 48.1572 18.6982 47.7178 18.7959C47.2783 18.8773 46.79 18.9668 46.2529 19.0645C45.7158 19.1458 45.1787 19.2435 44.6416 19.3574C44.1208 19.4551 43.6325 19.5609 43.1768 19.6748C42.721 19.7887 42.363 19.9271 42.1025 20.0898C42.0212 20.7083 42.013 21.3268 42.0781 21.9453C42.1595 22.5475 42.2572 23.1497 42.3711 23.752C42.5013 24.3379 42.6234 24.932 42.7373 25.5342C42.8675 26.1201 42.9408 26.7061 42.957 27.292C42.957 27.4385 42.9245 27.6012 42.8594 27.7803C42.8105 27.943 42.7048 28.0244 42.542 28.0244C42.4118 28.0244 42.306 27.9756 42.2246 27.8779C42.1432 27.7803 42.07 27.6745 42.0049 27.5605C41.9561 27.4303 41.9154 27.3083 41.8828 27.1943C41.8503 27.0641 41.8258 26.9583 41.8096 26.877C41.6956 26.2747 41.5898 25.7132 41.4922 25.1924C41.3945 24.6553 41.305 24.1344 41.2236 23.6299C41.1585 23.109 41.1016 22.5882 41.0527 22.0674C41.0202 21.5465 40.9958 20.9769 40.9795 20.3584H40.833ZM48.084 18.6738L49.5244 24.6064H49.8174C49.8662 24.0856 49.9557 23.5322 50.0859 22.9463C50.2324 22.3604 50.4277 21.7826 50.6719 21.2129C50.916 20.627 51.2008 20.0654 51.5264 19.5283C51.8682 18.9912 52.2507 18.5192 52.6738 18.1123C53.097 17.7054 53.569 17.3799 54.0898 17.1357C54.627 16.8916 55.2129 16.7695 55.8477 16.7695C55.8477 17.1602 55.6849 17.502 55.3594 17.7949C55.0501 18.0879 54.6758 18.3727 54.2363 18.6494C53.7969 18.9261 53.3411 19.2191 52.8691 19.5283C52.4134 19.8376 52.0553 20.2119 51.7949 20.6514C51.5182 21.0908 51.2904 21.6035 51.1113 22.1895C50.9486 22.7591 50.8102 23.3532 50.6963 23.9717C50.5986 24.5739 50.5254 25.1842 50.4766 25.8027C50.4277 26.4049 50.387 26.9502 50.3545 27.4385C50.2568 27.585 50.151 27.7233 50.0371 27.8535C49.9395 27.9674 49.8092 28.0244 49.6465 28.0244C49.5814 28.0244 49.5 28.0081 49.4023 27.9756C49.3047 27.9268 49.2396 27.8372 49.207 27.707L47.4492 18.6738H48.084ZM57.4346 22.3359C57.0602 22.5638 56.6777 22.7428 56.2871 22.873C55.8965 22.987 55.5791 22.9056 55.335 22.6289C55.335 22.3197 55.4408 22.1162 55.6523 22.0186C55.8639 21.9046 56.0999 21.8151 56.3604 21.75C56.637 21.6849 56.9056 21.6035 57.166 21.5059C57.4427 21.4082 57.6299 21.2129 57.7275 20.9199C57.8252 20.5944 57.9147 20.2038 57.9961 19.748C58.0775 19.2923 58.1914 18.8529 58.3379 18.4297C58.4844 18.0065 58.696 17.6566 58.9727 17.3799C59.2493 17.0869 59.6318 16.9404 60.1201 16.9404C60.3968 16.9404 60.7386 17.0381 61.1455 17.2334C61.5687 17.4124 61.9674 17.6322 62.3418 17.8926C62.7161 18.153 63.0335 18.4297 63.2939 18.7227C63.5544 19.0156 63.6846 19.2842 63.6846 19.5283C63.6846 19.6423 63.6683 19.748 63.6357 19.8457C63.6195 19.9434 63.5381 20.0247 63.3916 20.0898L58.582 21.75L58.5576 21.8721C58.5576 21.9372 58.5495 22.0267 58.5332 22.1406V22.4336C58.5332 22.5475 58.5332 22.6289 58.5332 22.6777C58.5332 23.0033 58.5576 23.4102 58.6064 23.8984C58.6553 24.3704 58.7529 24.8343 58.8994 25.29C59.0622 25.7295 59.2819 26.112 59.5586 26.4375C59.8353 26.763 60.2096 26.9258 60.6816 26.9258C60.8607 26.9258 61.0072 26.8932 61.1211 26.8281C61.2513 26.7467 61.3734 26.6654 61.4873 26.584C61.6175 26.4863 61.7396 26.4049 61.8535 26.3398C61.9837 26.2585 62.1302 26.2178 62.293 26.2178C62.293 26.4619 62.236 26.6979 62.1221 26.9258C62.0244 27.1374 61.8861 27.3245 61.707 27.4873C61.528 27.6501 61.3245 27.7803 61.0967 27.8779C60.8688 27.9756 60.641 28.0244 60.4131 28.0244C59.7946 28.0244 59.2982 27.8128 58.9238 27.3896C58.5495 26.9502 58.2565 26.4294 58.0449 25.8271C57.8496 25.2087 57.7113 24.582 57.6299 23.9473C57.5485 23.2962 57.4834 22.7591 57.4346 22.3359ZM60.4131 18.0146C60.1201 18.0146 59.8678 18.096 59.6562 18.2588C59.4609 18.4215 59.2982 18.625 59.168 18.8691C59.0378 19.1133 58.9401 19.3818 58.875 19.6748C58.8262 19.9515 58.8018 20.2038 58.8018 20.4316C59.0622 20.4316 59.347 20.4154 59.6562 20.3828C59.9818 20.3503 60.2992 20.2852 60.6084 20.1875C60.9176 20.0898 61.1943 19.9678 61.4385 19.8213C61.6989 19.6585 61.8779 19.4632 61.9756 19.2354C61.7314 18.8447 61.5036 18.5436 61.292 18.332C61.0804 18.1204 60.7874 18.0146 60.4131 18.0146ZM65.9307 27.1699C65.9307 26.9746 65.9469 26.8118 65.9795 26.6816C66.012 26.5352 66.0609 26.4375 66.126 26.3887C66.2074 26.3236 66.2969 26.3236 66.3945 26.3887C66.5085 26.4375 66.6468 26.5677 66.8096 26.7793C67.1025 26.7793 67.4443 26.763 67.835 26.7305C68.2256 26.6979 68.6325 26.641 69.0557 26.5596C69.4788 26.4782 69.8939 26.3724 70.3008 26.2422C70.724 26.112 71.0902 25.9411 71.3994 25.7295C71.7249 25.5016 71.9854 25.2412 72.1807 24.9482C72.376 24.639 72.4736 24.2809 72.4736 23.874C72.4736 23.4671 72.2865 23.166 71.9121 22.9707C71.5378 22.7754 71.0576 22.6289 70.4717 22.5312C69.902 22.4173 69.2835 22.3115 68.6162 22.2139C67.9652 22.0999 67.3548 21.9372 66.7852 21.7256C66.2155 21.4977 65.7354 21.1803 65.3447 20.7734C64.9704 20.3503 64.7832 19.7643 64.7832 19.0156C64.7832 18.4948 64.8727 18.0553 65.0518 17.6973C65.2308 17.3392 65.5319 17.0055 65.9551 16.6963C66.1341 16.5498 66.4515 16.3219 66.9072 16.0127C67.363 15.6872 67.8431 15.3454 68.3477 14.9873C68.8685 14.613 69.3568 14.2712 69.8125 13.9619C70.2682 13.6364 70.5856 13.4085 70.7646 13.2783C70.7972 13.2783 70.8379 13.2783 70.8867 13.2783C70.9518 13.262 71.0007 13.2539 71.0332 13.2539C71.4401 13.2539 71.6436 13.4492 71.6436 13.8398C71.6436 14.0189 71.4971 14.2142 71.2041 14.4258C70.9111 14.6211 70.5368 14.8408 70.0811 15.085C69.6416 15.3291 69.1615 15.5895 68.6406 15.8662C68.1361 16.1429 67.6559 16.4521 67.2002 16.7939C66.7607 17.1195 66.3945 17.4775 66.1016 17.8682C65.8086 18.2425 65.6621 18.6494 65.6621 19.0889C65.6621 19.5609 65.776 19.9027 66.0039 20.1143C66.248 20.3258 66.6061 20.5049 67.0781 20.6514C67.2734 20.7002 67.6071 20.7979 68.0791 20.9443C68.5674 21.0745 69.0801 21.221 69.6172 21.3838C70.1706 21.5303 70.6833 21.6686 71.1553 21.7988C71.6436 21.929 71.9854 22.0186 72.1807 22.0674C72.6038 22.2952 72.9456 22.5475 73.2061 22.8242C73.4827 23.0846 73.6211 23.4508 73.6211 23.9229C73.6211 24.3786 73.499 24.7936 73.2549 25.168C73.027 25.5423 72.7178 25.8841 72.3271 26.1934C71.9528 26.4863 71.5133 26.7549 71.0088 26.999C70.5205 27.2269 70.0241 27.4222 69.5195 27.585C69.015 27.7314 68.5186 27.8454 68.0303 27.9268C67.5583 27.9919 67.1351 28.0244 66.7607 28.0244C66.4027 28.0244 66.1748 27.9756 66.0771 27.8779C65.9795 27.764 65.9307 27.528 65.9307 27.1699ZM74.5244 9.20117L75.5742 9.03027L76.6973 22.3359C76.8112 21.7826 76.9821 21.1803 77.21 20.5293C77.4378 19.8783 77.7389 19.2842 78.1133 18.7471C78.5039 18.21 78.9759 17.7949 79.5293 17.502C80.099 17.1927 80.7581 17.1113 81.5068 17.2578C82.0277 17.3392 82.4753 17.5426 82.8496 17.8682C83.2402 18.1774 83.5739 18.5599 83.8506 19.0156C84.1273 19.4714 84.347 19.9759 84.5098 20.5293C84.6888 21.0664 84.8271 21.6198 84.9248 22.1895C85.0225 22.7428 85.0876 23.2799 85.1201 23.8008C85.1689 24.3216 85.1934 24.7773 85.1934 25.168C85.1934 25.5098 85.1608 25.7458 85.0957 25.876C85.0469 25.9899 84.9004 26.0469 84.6562 26.0469C84.5423 26.0469 84.4284 26.0387 84.3145 26.0225C84.2005 25.9899 84.1191 25.8923 84.0703 25.7295C84.1029 25.4202 84.1191 25.0133 84.1191 24.5088C84.1191 24.0042 84.0866 23.4834 84.0215 22.9463C83.9727 22.4092 83.8831 21.8721 83.7529 21.335C83.6227 20.7816 83.4355 20.2852 83.1914 19.8457C82.9635 19.4062 82.6624 19.0563 82.2881 18.7959C81.9137 18.5192 81.4661 18.3809 80.9453 18.3809C80.4082 18.3809 79.9362 18.5029 79.5293 18.7471C79.1387 18.9749 78.805 19.276 78.5283 19.6504C78.2679 20.0247 78.0563 20.4479 77.8936 20.9199C77.7308 21.3757 77.6169 21.8477 77.5518 22.3359C77.5518 22.4661 77.5355 22.6777 77.5029 22.9707C77.4867 23.2474 77.4622 23.5648 77.4297 23.9229C77.3971 24.2646 77.3727 24.639 77.3564 25.0459C77.3402 25.4365 77.3239 25.8109 77.3076 26.1689C77.2913 26.5107 77.2751 26.82 77.2588 27.0967C77.2588 27.3734 77.2588 27.5768 77.2588 27.707C77.21 27.8698 77.1367 27.9674 77.0391 28C76.9414 28.0163 76.8275 28.0244 76.6973 28.0244C76.681 28.0244 76.6322 28.0163 76.5508 28C76.4857 28 76.4368 28 76.4043 28L74.5244 9.20117ZM99.8418 27.1455C99.9395 26.7386 100.053 26.2829 100.184 25.7783C100.33 25.2575 100.46 24.7122 100.574 24.1426C100.688 23.5729 100.786 23.0033 100.867 22.4336C100.965 21.8477 101.014 21.2943 101.014 20.7734C101.014 20.3991 100.916 20.0898 100.721 19.8457C100.525 19.6016 100.273 19.3818 99.9639 19.1865C99.6709 18.9912 99.3454 18.8122 98.9873 18.6494C98.6455 18.4704 98.32 18.2913 98.0107 18.1123C97.7178 17.917 97.4736 17.7135 97.2783 17.502C97.083 17.2741 96.9854 17.0055 96.9854 16.6963C96.9854 16.6637 96.9854 16.6149 96.9854 16.5498C97.0016 16.4847 97.0098 16.4359 97.0098 16.4033C97.2865 16.1104 97.6283 15.736 98.0352 15.2803C98.4583 14.8245 98.9059 14.3851 99.3779 13.9619C99.8662 13.5387 100.371 13.1807 100.892 12.8877C101.412 12.5785 101.917 12.4238 102.405 12.4238C102.438 12.4238 102.495 12.4645 102.576 12.5459C102.658 12.6273 102.698 12.6924 102.698 12.7412V13.9863C102.698 14.8815 102.641 15.7686 102.527 16.6475C102.43 17.5264 102.381 18.4134 102.381 19.3086V19.7725C102.381 19.9678 102.389 20.0736 102.405 20.0898L104.676 22.3359C104.676 22.3522 104.7 22.3685 104.749 22.3848C104.814 22.3848 104.863 22.3848 104.896 22.3848C105.107 22.3848 105.294 22.3359 105.457 22.2383C105.62 22.1406 105.774 22.0348 105.921 21.9209C106.084 21.807 106.238 21.7012 106.385 21.6035C106.548 21.5059 106.727 21.457 106.922 21.457C107.329 21.457 107.532 21.6605 107.532 22.0674C107.532 22.2952 107.459 22.458 107.312 22.5557C107.182 22.6533 107.02 22.7428 106.824 22.8242C106.645 22.9056 106.45 22.9951 106.238 23.0928C106.043 23.1742 105.896 23.3044 105.799 23.4834L107.776 25.4609C107.809 25.4772 107.785 25.5586 107.703 25.7051C107.638 25.8516 107.565 25.9574 107.483 26.0225C107.483 26.0387 107.435 26.0469 107.337 26.0469H107.239C107.223 26.0469 107.215 26.0387 107.215 26.0225C107.133 25.9574 107.003 25.8434 106.824 25.6807C106.645 25.5179 106.45 25.347 106.238 25.168C106.027 24.9727 105.823 24.7936 105.628 24.6309C105.449 24.4681 105.319 24.3623 105.237 24.3135C105.205 24.2809 105.115 24.2321 104.969 24.167C104.822 24.1019 104.725 24.0612 104.676 24.0449C104.529 24.1426 104.334 24.3135 104.09 24.5576C103.846 24.8018 103.577 25.0703 103.284 25.3633C103.007 25.6562 102.715 25.9655 102.405 26.291C102.112 26.6003 101.827 26.8851 101.551 27.1455C101.274 27.3896 101.022 27.6012 100.794 27.7803C100.566 27.943 100.387 28.0244 100.257 28.0244H100.184C100.167 28.0244 100.151 28.0163 100.135 28C100.118 27.9674 100.094 27.9105 100.062 27.8291C100.029 27.7477 99.9964 27.6663 99.9639 27.585C99.9313 27.5036 99.8988 27.4222 99.8662 27.3408C99.8499 27.2594 99.8418 27.1943 99.8418 27.1455ZM98.6943 16.6963C99.085 17.1195 99.4919 17.5182 99.915 17.8926C100.354 18.2669 100.81 18.6087 101.282 18.918C101.299 18.7715 101.331 18.5029 101.38 18.1123C101.429 17.7054 101.478 17.2741 101.526 16.8184C101.591 16.3626 101.648 15.9395 101.697 15.5488C101.762 15.1419 101.811 14.8652 101.844 14.7188V14.5479C101.844 14.3851 101.811 14.2305 101.746 14.084C101.697 13.9212 101.591 13.8398 101.429 13.8398C101.168 13.8398 100.875 13.9456 100.55 14.1572C100.241 14.3525 99.9476 14.5967 99.6709 14.8896C99.4105 15.1826 99.1826 15.4919 98.9873 15.8174C98.792 16.1429 98.6943 16.4359 98.6943 16.6963ZM102.112 21.2129C101.884 21.4733 101.714 21.7744 101.6 22.1162C101.486 22.458 101.404 22.8079 101.355 23.166C101.307 23.5241 101.274 23.8903 101.258 24.2646C101.258 24.639 101.258 24.9889 101.258 25.3145C101.258 25.347 101.258 25.4202 101.258 25.5342C101.274 25.6481 101.282 25.7132 101.282 25.7295L104.09 23.1904L102.112 21.2129ZM119.983 18.918C119.983 18.8203 119.983 18.7064 119.983 18.5762C120 18.446 120.016 18.3239 120.032 18.21C120.065 18.0798 120.122 17.974 120.203 17.8926C120.285 17.8112 120.398 17.7705 120.545 17.7705C120.577 17.7705 120.626 17.7786 120.691 17.7949C120.773 17.7949 120.83 17.7949 120.862 17.7949C120.879 18.9505 120.936 20.1387 121.033 21.3594C121.147 22.5801 121.367 23.7601 121.692 24.8994C121.709 24.7204 121.749 24.4193 121.814 23.9961C121.896 23.5566 121.977 23.1009 122.059 22.6289C122.156 22.1406 122.246 21.6849 122.327 21.2617C122.425 20.8385 122.49 20.5374 122.522 20.3584C122.636 20.0166 122.791 19.6667 122.986 19.3086C123.182 18.9342 123.418 18.5924 123.694 18.2832C123.987 17.974 124.305 17.7217 124.646 17.5264C125.005 17.3311 125.379 17.2334 125.77 17.2334C126.421 17.2334 126.998 17.3799 127.503 17.6729C128.007 17.9658 128.455 18.3564 128.846 18.8447C129.253 19.3167 129.594 19.862 129.871 20.4805C130.148 21.0827 130.376 21.7012 130.555 22.3359C130.734 22.9707 130.864 23.5811 130.945 24.167C131.027 24.7529 131.067 25.2738 131.067 25.7295V26.0225C131.067 26.1201 131.051 26.2178 131.019 26.3154C131.002 26.3968 130.962 26.4701 130.896 26.5352C130.848 26.584 130.75 26.6084 130.604 26.6084C130.441 26.6084 130.302 26.5107 130.188 26.3154C130.172 25.9085 130.123 25.4365 130.042 24.8994C129.977 24.3623 129.879 23.8008 129.749 23.2148C129.635 22.6126 129.472 22.0267 129.261 21.457C129.065 20.8711 128.813 20.3503 128.504 19.8945C128.211 19.4388 127.861 19.0726 127.454 18.7959C127.047 18.5029 126.559 18.3564 125.989 18.3564C125.534 18.3564 125.135 18.4378 124.793 18.6006C124.467 18.7633 124.191 18.9912 123.963 19.2842C123.735 19.5609 123.548 19.8945 123.401 20.2852C123.271 20.6595 123.174 21.0664 123.108 21.5059C123.06 21.7337 122.994 22.1406 122.913 22.7266C122.832 23.3125 122.742 23.9391 122.645 24.6064C122.547 25.2738 122.457 25.9004 122.376 26.4863C122.311 27.0723 122.27 27.4792 122.254 27.707C122.205 27.8698 122.116 27.9674 121.985 28C121.871 28.0326 121.749 28.0488 121.619 28.0488C121.603 28.0488 121.562 28.0407 121.497 28.0244C121.432 28.0244 121.399 28.0163 121.399 28L120.008 19.5283C120.008 19.4958 120 19.4062 119.983 19.2598C119.983 19.1133 119.983 18.9993 119.983 18.918ZM132.117 25.4609C132.117 24.9889 132.166 24.403 132.264 23.7031C132.378 23.0033 132.532 22.279 132.728 21.5303C132.939 20.7653 133.2 20.0003 133.509 19.2354C133.834 18.4704 134.201 17.7868 134.607 17.1846C135.014 16.5661 135.478 16.0697 135.999 15.6953C136.52 15.321 137.09 15.1338 137.708 15.1338C137.708 15.3617 137.61 15.5895 137.415 15.8174C137.236 16.029 137.024 16.2406 136.78 16.4521C136.552 16.6475 136.316 16.8428 136.072 17.0381C135.828 17.2171 135.657 17.388 135.56 17.5508C135.169 18.0553 134.819 18.6169 134.51 19.2354C134.201 19.8376 133.932 20.4642 133.704 21.1152C133.476 21.75 133.297 22.4092 133.167 23.0928C133.037 23.7601 132.972 24.4111 132.972 25.0459C132.972 25.1436 132.988 25.2982 133.021 25.5098C133.053 25.7051 133.094 25.9085 133.143 26.1201C133.208 26.3317 133.289 26.5189 133.387 26.6816C133.484 26.8281 133.59 26.9014 133.704 26.9014H133.777C133.794 26.9014 133.81 26.8932 133.826 26.877C134.266 26.3887 134.632 25.8597 134.925 25.29C135.218 24.7204 135.47 24.1344 135.682 23.5322C135.893 22.9137 136.072 22.2871 136.219 21.6523C136.365 21.0176 136.512 20.391 136.658 19.7725C136.707 19.5934 136.723 19.3249 136.707 18.9668C136.707 18.6087 136.723 18.2588 136.756 17.917C136.805 17.5752 136.894 17.2822 137.024 17.0381C137.155 16.7777 137.391 16.6475 137.732 16.6475C137.798 16.6475 137.871 16.6556 137.952 16.6719C138.05 16.6719 138.099 16.68 138.099 16.6963C138.701 17.9495 139.214 19.0156 139.637 19.8945C140.06 20.7572 140.418 21.4733 140.711 22.043C141.004 22.6126 141.24 23.0602 141.419 23.3857C141.598 23.7113 141.728 23.9635 141.81 24.1426C141.907 24.3053 141.972 24.4193 142.005 24.4844C142.037 24.5332 142.054 24.5739 142.054 24.6064C142.07 24.6715 142.086 24.7936 142.103 24.9727C142.119 25.1354 142.127 25.3145 142.127 25.5098C142.143 25.6888 142.151 25.8678 142.151 26.0469C142.168 26.2096 142.176 26.3154 142.176 26.3643C142.013 26.3643 141.834 26.3561 141.639 26.3398C141.443 26.3236 141.305 26.2178 141.224 26.0225L138.099 19.5283L137.83 19.2354C137.781 19.4144 137.684 19.7318 137.537 20.1875C137.407 20.6432 137.26 21.1315 137.098 21.6523C136.951 22.1569 136.813 22.637 136.683 23.0928C136.552 23.5485 136.463 23.8659 136.414 24.0449C136.316 24.2891 136.186 24.6309 136.023 25.0703C135.877 25.5098 135.69 25.9492 135.462 26.3887C135.234 26.8281 134.974 27.2106 134.681 27.5361C134.388 27.8617 134.062 28.0244 133.704 28.0244C133.411 28.0244 133.167 27.9349 132.972 27.7559C132.776 27.5605 132.614 27.3245 132.483 27.0479C132.353 26.7712 132.256 26.4863 132.19 26.1934C132.142 25.9004 132.117 25.6562 132.117 25.4609ZM146.937 20.3584C146.578 20.3584 146.22 20.4072 145.862 20.5049C145.504 20.6025 145.146 20.7083 144.788 20.8223C144.446 20.9199 144.096 21.0176 143.738 21.1152C143.396 21.1966 143.038 21.2373 142.664 21.2373C142.452 21.2373 142.282 21.1966 142.151 21.1152C142.021 21.0339 141.956 20.8711 141.956 20.627C141.956 20.4316 142.005 20.3014 142.103 20.2363C142.216 20.1549 142.347 20.1143 142.493 20.1143C142.656 20.098 142.819 20.098 142.981 20.1143C143.16 20.1305 143.299 20.1224 143.396 20.0898C143.527 20.0573 143.763 20.0003 144.104 19.9189C144.463 19.8376 144.837 19.7562 145.228 19.6748C145.618 19.5934 145.984 19.512 146.326 19.4307C146.684 19.3493 146.928 19.2842 147.059 19.2354C147.059 19.1865 147.059 19.1051 147.059 18.9912C147.075 18.861 147.083 18.7308 147.083 18.6006C147.099 18.4541 147.107 18.3239 147.107 18.21V17.9414C147.107 17.4531 147.075 16.9811 147.01 16.5254C146.945 16.0534 146.871 15.5814 146.79 15.1094C146.725 14.6374 146.66 14.1654 146.595 13.6934C146.53 13.2214 146.497 12.7493 146.497 12.2773C146.497 12.1146 146.513 11.96 146.546 11.8135C146.595 11.6507 146.725 11.5693 146.937 11.5693C147.018 11.5693 147.099 11.5938 147.181 11.6426C147.278 11.6751 147.335 11.7484 147.352 11.8623L148.206 18.918C148.222 18.9342 148.239 18.9424 148.255 18.9424H148.328C148.491 18.9424 148.743 18.9017 149.085 18.8203C149.427 18.7389 149.809 18.6413 150.232 18.5273C150.656 18.4134 151.103 18.2913 151.575 18.1611C152.063 18.0309 152.527 17.917 152.967 17.8193C153.406 17.7054 153.805 17.624 154.163 17.5752C154.521 17.5101 154.798 17.502 154.993 17.5508C155.058 17.5671 155.164 17.6484 155.311 17.7949C155.457 17.9251 155.547 18.0228 155.579 18.0879C155.612 18.2507 155.473 18.4134 155.164 18.5762C154.855 18.7227 154.448 18.8691 153.943 19.0156C153.455 19.1458 152.91 19.2679 152.308 19.3818C151.705 19.4958 151.128 19.6016 150.574 19.6992C150.037 19.7806 149.573 19.862 149.183 19.9434C148.792 20.0085 148.556 20.0573 148.475 20.0898V20.5781C148.475 20.7897 148.466 21.0257 148.45 21.2861C148.45 21.5303 148.45 21.7663 148.45 21.9941V22.4824C148.45 23.3125 148.507 24.1263 148.621 24.9238C148.735 25.7051 148.792 26.4945 148.792 27.292C148.792 27.4059 148.759 27.5036 148.694 27.585C148.629 27.6501 148.548 27.7152 148.45 27.7803C148.353 27.8291 148.255 27.8779 148.157 27.9268C148.06 27.9593 147.986 27.9837 147.938 28C147.807 27.3001 147.71 26.6654 147.645 26.0957C147.596 25.5098 147.555 24.932 147.522 24.3623C147.506 23.7926 147.482 23.1904 147.449 22.5557C147.433 21.9046 147.4 21.1722 147.352 20.3584H146.937ZM156.775 28C156.466 28.1139 156.181 28.0895 155.921 27.9268C155.677 27.7477 155.457 27.4873 155.262 27.1455C155.066 26.7874 154.896 26.3887 154.749 25.9492C154.603 25.4935 154.489 25.0459 154.407 24.6064C154.326 24.167 154.269 23.7682 154.236 23.4102C154.22 23.0521 154.228 22.7917 154.261 22.6289C154.261 22.4661 154.269 22.2139 154.285 21.8721C154.301 21.5303 154.318 21.1478 154.334 20.7246C154.35 20.2852 154.367 19.8376 154.383 19.3818C154.415 18.9098 154.44 18.4541 154.456 18.0146C154.472 17.5752 154.489 17.1927 154.505 16.8672C154.521 16.5254 154.529 16.2731 154.529 16.1104C154.562 16.1104 154.586 16.1022 154.603 16.0859L154.676 16.0615C154.839 16.0615 154.977 16.1348 155.091 16.2812C155.205 16.4277 155.302 16.5661 155.384 16.6963C155.384 16.9242 155.376 17.3311 155.359 17.917C155.359 18.5029 155.359 19.1296 155.359 19.7969C155.359 20.4642 155.359 21.099 155.359 21.7012C155.376 22.2871 155.384 22.694 155.384 22.9219C155.4 23.1172 155.433 23.4264 155.481 23.8496C155.547 24.2565 155.628 24.6797 155.726 25.1191C155.823 25.5423 155.953 25.9329 156.116 26.291C156.295 26.6328 156.515 26.8281 156.775 26.877C157.459 26.877 158.029 26.6247 158.484 26.1201C158.956 25.6156 159.347 24.9808 159.656 24.2158C159.965 23.4508 160.21 22.6289 160.389 21.75C160.584 20.8548 160.747 20.0166 160.877 19.2354C161.007 18.4541 161.121 17.8031 161.219 17.2822C161.333 16.7451 161.463 16.4521 161.609 16.4033L162.195 16.5254L163.562 25.9736C163.66 26.0225 163.742 26.0957 163.807 26.1934C163.872 26.291 163.929 26.3968 163.978 26.5107C164.043 26.6247 164.083 26.7386 164.1 26.8525C164.132 26.9665 164.148 27.0479 164.148 27.0967C164.116 27.2106 164.018 27.3327 163.855 27.4629C163.693 27.5931 163.554 27.6663 163.44 27.6826H163.343C163.326 27.6826 163.31 27.6826 163.294 27.6826C163.261 27.6338 163.213 27.5605 163.147 27.4629C163.099 27.349 163.042 27.235 162.977 27.1211C162.911 27.0072 162.854 26.8932 162.806 26.7793C162.773 26.6491 162.749 26.5677 162.732 26.5352C162.684 26.3724 162.627 26.1201 162.562 25.7783C162.513 25.4365 162.464 25.0622 162.415 24.6553C162.366 24.2321 162.317 23.7926 162.269 23.3369C162.236 22.8649 162.195 22.4173 162.146 21.9941C162.114 21.5547 162.073 21.1722 162.024 20.8467C161.992 20.5049 161.951 20.2526 161.902 20.0898C161.821 20.4642 161.707 20.9118 161.561 21.4326C161.414 21.9372 161.227 22.4743 160.999 23.0439C160.787 23.6136 160.543 24.1751 160.267 24.7285C159.99 25.2656 159.673 25.7702 159.314 26.2422C158.973 26.6979 158.59 27.0885 158.167 27.4141C157.744 27.7233 157.28 27.9186 156.775 28ZM165.467 18.6738L166.907 24.6064H167.2C167.249 24.0856 167.339 23.5322 167.469 22.9463C167.615 22.3604 167.811 21.7826 168.055 21.2129C168.299 20.627 168.584 20.0654 168.909 19.5283C169.251 18.9912 169.633 18.5192 170.057 18.1123C170.48 17.7054 170.952 17.3799 171.473 17.1357C172.01 16.8916 172.596 16.7695 173.23 16.7695C173.23 17.1602 173.068 17.502 172.742 17.7949C172.433 18.0879 172.059 18.3727 171.619 18.6494C171.18 18.9261 170.724 19.2191 170.252 19.5283C169.796 19.8376 169.438 20.2119 169.178 20.6514C168.901 21.0908 168.673 21.6035 168.494 22.1895C168.331 22.7591 168.193 23.3532 168.079 23.9717C167.981 24.5739 167.908 25.1842 167.859 25.8027C167.811 26.4049 167.77 26.9502 167.737 27.4385C167.64 27.585 167.534 27.7233 167.42 27.8535C167.322 27.9674 167.192 28.0244 167.029 28.0244C166.964 28.0244 166.883 28.0081 166.785 27.9756C166.688 27.9268 166.622 27.8372 166.59 27.707L164.832 18.6738H165.467ZM173.792 25.4609C173.792 24.9889 173.841 24.403 173.938 23.7031C174.052 23.0033 174.207 22.279 174.402 21.5303C174.614 20.7653 174.874 20.0003 175.184 19.2354C175.509 18.4704 175.875 17.7868 176.282 17.1846C176.689 16.5661 177.153 16.0697 177.674 15.6953C178.195 15.321 178.764 15.1338 179.383 15.1338C179.383 15.3617 179.285 15.5895 179.09 15.8174C178.911 16.029 178.699 16.2406 178.455 16.4521C178.227 16.6475 177.991 16.8428 177.747 17.0381C177.503 17.2171 177.332 17.388 177.234 17.5508C176.844 18.0553 176.494 18.6169 176.185 19.2354C175.875 19.8376 175.607 20.4642 175.379 21.1152C175.151 21.75 174.972 22.4092 174.842 23.0928C174.712 23.7601 174.646 24.4111 174.646 25.0459C174.646 25.1436 174.663 25.2982 174.695 25.5098C174.728 25.7051 174.769 25.9085 174.817 26.1201C174.882 26.3317 174.964 26.5189 175.062 26.6816C175.159 26.8281 175.265 26.9014 175.379 26.9014H175.452C175.468 26.9014 175.485 26.8932 175.501 26.877C175.94 26.3887 176.307 25.8597 176.6 25.29C176.893 24.7204 177.145 24.1344 177.356 23.5322C177.568 22.9137 177.747 22.2871 177.894 21.6523C178.04 21.0176 178.187 20.391 178.333 19.7725C178.382 19.5934 178.398 19.3249 178.382 18.9668C178.382 18.6087 178.398 18.2588 178.431 17.917C178.479 17.5752 178.569 17.2822 178.699 17.0381C178.829 16.7777 179.065 16.6475 179.407 16.6475C179.472 16.6475 179.546 16.6556 179.627 16.6719C179.725 16.6719 179.773 16.68 179.773 16.6963C180.376 17.9495 180.888 19.0156 181.312 19.8945C181.735 20.7572 182.093 21.4733 182.386 22.043C182.679 22.6126 182.915 23.0602 183.094 23.3857C183.273 23.7113 183.403 23.9635 183.484 24.1426C183.582 24.3053 183.647 24.4193 183.68 24.4844C183.712 24.5332 183.729 24.5739 183.729 24.6064C183.745 24.6715 183.761 24.7936 183.777 24.9727C183.794 25.1354 183.802 25.3145 183.802 25.5098C183.818 25.6888 183.826 25.8678 183.826 26.0469C183.842 26.2096 183.851 26.3154 183.851 26.3643C183.688 26.3643 183.509 26.3561 183.313 26.3398C183.118 26.3236 182.98 26.2178 182.898 26.0225L179.773 19.5283L179.505 19.2354C179.456 19.4144 179.358 19.7318 179.212 20.1875C179.082 20.6432 178.935 21.1315 178.772 21.6523C178.626 22.1569 178.488 22.637 178.357 23.0928C178.227 23.5485 178.138 23.8659 178.089 24.0449C177.991 24.2891 177.861 24.6309 177.698 25.0703C177.552 25.5098 177.365 25.9492 177.137 26.3887C176.909 26.8281 176.648 27.2106 176.355 27.5361C176.062 27.8617 175.737 28.0244 175.379 28.0244C175.086 28.0244 174.842 27.9349 174.646 27.7559C174.451 27.5605 174.288 27.3245 174.158 27.0479C174.028 26.7712 173.93 26.4863 173.865 26.1934C173.816 25.9004 173.792 25.6562 173.792 25.4609ZM184.778 27.4385C184.762 27.0153 184.721 26.3643 184.656 25.4854C184.591 24.5902 184.518 23.5892 184.437 22.4824C184.371 21.3594 184.298 20.1875 184.217 18.9668C184.152 17.7298 184.078 16.5498 183.997 15.4268C183.932 14.3037 183.859 13.3027 183.777 12.4238C183.712 11.5286 183.672 10.8695 183.655 10.4463V10.1289C183.655 9.75456 183.842 9.56738 184.217 9.56738C184.249 9.56738 184.298 9.57552 184.363 9.5918C184.428 9.5918 184.477 9.5918 184.51 9.5918C184.607 11.0078 184.697 12.3669 184.778 13.6689C184.86 14.971 184.941 16.265 185.022 17.5508C185.104 18.8366 185.193 20.1305 185.291 21.4326C185.389 22.7184 185.503 24.0612 185.633 25.4609C185.812 25.64 185.91 25.8516 185.926 26.0957C185.942 26.3236 185.95 26.5596 185.95 26.8037C185.95 26.9176 185.942 27.0479 185.926 27.1943C185.926 27.3245 185.901 27.4548 185.853 27.585C185.804 27.6989 185.722 27.8047 185.608 27.9023C185.511 27.9837 185.381 28.0244 185.218 28.0244C185.071 28.0244 184.965 27.9674 184.9 27.8535C184.852 27.7396 184.811 27.6012 184.778 27.4385Z" fill="#9A9A9A"/>
</svg>
