<svg width="14" height="14" viewBox="0 0 14 14" fill="none" xmlns="http://www.w3.org/2000/svg">
<path d="M7.4375 4.00586C9.2832 4.00586 10.8066 5.5293 10.8066 7.375C10.8066 9.25 9.2832 10.7441 7.4375 10.7441C5.5625 10.7441 4.06836 9.25 4.06836 7.375C4.06836 5.5293 5.5625 4.00586 7.4375 4.00586ZM7.4375 9.57227C8.63867 9.57227 9.60547 8.60547 9.60547 7.375C9.60547 6.17383 8.63867 5.20703 7.4375 5.20703C6.20703 5.20703 5.24023 6.17383 5.24023 7.375C5.24023 8.60547 6.23633 9.57227 7.4375 9.57227ZM11.7148 3.88867C11.7148 4.32812 11.3633 4.67969 10.9238 4.67969C10.4844 4.67969 10.1328 4.32812 10.1328 3.88867C10.1328 3.44922 10.4844 3.09766 10.9238 3.09766C11.3633 3.09766 11.7148 3.44922 11.7148 3.88867ZM13.9414 4.67969C14 5.76367 14 9.01562 13.9414 10.0996C13.8828 11.1543 13.6484 12.0625 12.8867 12.8535C12.125 13.6152 11.1875 13.8496 10.1328 13.9082C9.04883 13.9668 5.79688 13.9668 4.71289 13.9082C3.6582 13.8496 2.75 13.6152 1.95898 12.8535C1.19727 12.0625 0.962891 11.1543 0.904297 10.0996C0.845703 9.01562 0.845703 5.76367 0.904297 4.67969C0.962891 3.625 1.19727 2.6875 1.95898 1.92578C2.75 1.16406 3.6582 0.929688 4.71289 0.871094C5.79688 0.8125 9.04883 0.8125 10.1328 0.871094C11.1875 0.929688 12.125 1.16406 12.8867 1.92578C13.6484 2.6875 13.8828 3.625 13.9414 4.67969ZM12.5352 11.2422C12.8867 10.3926 12.7988 8.3418 12.7988 7.375C12.7988 6.4375 12.8867 4.38672 12.5352 3.50781C12.3008 2.95117 11.8613 2.48242 11.3047 2.27734C10.4258 1.92578 8.375 2.01367 7.4375 2.01367C6.4707 2.01367 4.41992 1.92578 3.57031 2.27734C2.98438 2.51172 2.54492 2.95117 2.31055 3.50781C1.95898 4.38672 2.04688 6.4375 2.04688 7.375C2.04688 8.3418 1.95898 10.3926 2.31055 11.2422C2.54492 11.8281 2.98438 12.2676 3.57031 12.502C4.41992 12.8535 6.4707 12.7656 7.4375 12.7656C8.375 12.7656 10.4258 12.8535 11.3047 12.502C11.8613 12.2676 12.3301 11.8281 12.5352 11.2422Z" fill="#433840"/>
</svg>
