<svg width="119" height="119" viewBox="0 0 119 119" fill="none" xmlns="http://www.w3.org/2000/svg">
<g clip-path="url(#clip0_1_853)">
<path d="M65.5709 42.7729C48.1901 42.7729 34.8942 45.579 34.8942 80.8866C34.8942 119 49.1105 119 65.5709 119H67.0687C67.0834 119 67.0962 119 67.1106 119C74.5419 119 82.2237 118.991 87.7251 113.896C93.5405 108.513 96.2476 98.0243 96.2476 80.8866C96.2476 45.579 82.9517 42.7729 65.5709 42.7729ZM86.4629 112.531C81.4936 117.132 74.184 117.141 67.1103 117.141C67.0975 117.141 67.0813 117.141 67.0685 117.141H65.5706C49.4697 117.141 36.753 117.141 36.753 80.8866C36.753 44.6322 51.4033 44.6322 65.5706 44.6322C79.7377 44.6322 94.388 44.6322 94.3883 80.8866C94.3883 97.4704 91.8702 107.525 86.4629 112.531Z" fill="white"/>
<path d="M58.3408 46.5892C57.9777 46.2261 57.3894 46.2261 57.0263 46.5892L39.5821 64.032C39.219 64.3951 39.219 64.9834 39.5821 65.3465C39.7636 65.528 40.0014 65.6189 40.2392 65.6189C40.4772 65.6189 40.715 65.5283 40.8963 65.3465L58.3408 47.9036C58.7039 47.5406 58.7039 46.9522 58.3408 46.5892Z" fill="white"/>
<path d="M74.1186 46.5876C73.7555 46.2245 73.1672 46.2245 72.8041 46.5876L38.8847 80.5052C38.5216 80.8683 38.5216 81.4566 38.8847 81.8197C39.0662 82.0012 39.3042 82.0921 39.542 82.0921C39.7798 82.0921 40.0176 82.0014 40.1994 81.8197L74.1186 47.902C74.4817 47.539 74.4817 46.9507 74.1186 46.5876Z" fill="white"/>
<path d="M83.8903 52.5936C83.5272 52.2305 82.9389 52.2305 82.5758 52.5936L40.39 94.7796C40.027 95.1424 40.027 95.7307 40.39 96.0938C40.5718 96.2753 40.8096 96.3662 41.0474 96.3662C41.2852 96.3662 41.5229 96.2756 41.7045 96.0938L83.8903 53.908C84.2534 53.5449 84.2534 52.9566 83.8903 52.5936Z" fill="white"/>
<path d="M89.8926 62.3636C89.5295 62.0005 88.9412 62.0005 88.5781 62.3636L44.9579 105.985C44.5948 106.348 44.5948 106.937 44.9579 107.3C45.1394 107.481 45.3775 107.572 45.6153 107.572C45.853 107.572 46.0911 107.482 46.2724 107.3L89.8926 63.6778C90.2556 63.315 90.2556 62.7267 89.8926 62.3636Z" fill="white"/>
<path d="M92.0026 76.0332C91.6396 75.6701 91.051 75.6701 90.688 76.0332L54.1849 112.533C53.8218 112.896 53.8218 113.484 54.1849 113.847C54.3664 114.029 54.6042 114.119 54.842 114.119C55.0798 114.119 55.3178 114.029 55.4993 113.847L92.0024 77.3479C92.3657 76.9848 92.3657 76.3962 92.0026 76.0332Z" fill="white"/>
<path d="M92.0384 91.7693C91.6756 91.4062 91.087 91.4062 90.724 91.7693L68.7987 113.695C68.4356 114.058 68.4356 114.646 68.7987 115.009C68.9802 115.191 69.2183 115.281 69.456 115.281C69.6936 115.281 69.9316 115.191 70.1132 115.009L92.0384 93.0837C92.4015 92.7206 92.4015 92.1323 92.0384 91.7693Z" fill="white"/>
<path d="M91.5521 64.0211L74.2711 46.74C73.908 46.377 73.3197 46.377 72.9566 46.74C72.5935 47.1031 72.5935 47.6914 72.9566 48.0545L90.2377 65.3356C90.4192 65.5171 90.657 65.608 90.8948 65.608C91.1328 65.608 91.3706 65.5174 91.5521 65.3356C91.9152 64.9728 91.9152 64.3842 91.5521 64.0211Z" fill="white"/>
<path d="M92.1187 80.3673L58.341 46.5894C57.9779 46.2263 57.3896 46.2263 57.0265 46.5894C56.6634 46.9525 56.6634 47.5408 57.0265 47.9038L90.8042 81.6818C90.9857 81.8633 91.2238 81.9542 91.4615 81.9542C91.6993 81.9542 91.9373 81.8633 92.1187 81.6818C92.4817 81.3187 92.4817 80.7304 92.1187 80.3673Z" fill="white"/>
<path d="M89.8926 93.9172L48.4966 52.5211C48.1336 52.158 47.5453 52.158 47.1822 52.5211C46.8191 52.8841 46.8191 53.4724 47.1822 53.8355L88.5784 95.2317C88.7599 95.4132 88.9979 95.5041 89.2357 95.5041C89.4735 95.5041 89.7111 95.4132 89.8926 95.2317C90.2557 94.8689 90.2557 94.2803 89.8926 93.9172Z" fill="white"/>
<path d="M86.3158 106.116L42.5648 62.3638C42.2017 62.0008 41.6134 62.0008 41.2503 62.3638C40.8872 62.7267 40.8872 63.315 41.2503 63.678L85.0014 107.431C85.1829 107.612 85.4209 107.703 85.6585 107.703C85.8963 107.703 86.1343 107.612 86.3158 107.431C86.6791 107.068 86.6791 106.479 86.3158 106.116Z" fill="white"/>
<path d="M77.013 112.587L40.457 76.0332C40.0939 75.6701 39.5056 75.6701 39.1425 76.0332C38.7794 76.3962 38.7794 76.9848 39.1425 77.3479L75.6981 113.902C75.8796 114.083 76.1176 114.174 76.3554 114.174C76.5934 114.174 76.8312 114.083 77.013 113.902C77.3761 113.539 77.3761 112.95 77.013 112.587Z" fill="white"/>
<path d="M62.3422 113.695L40.4279 91.7783C40.0648 91.4153 39.4765 91.4153 39.1134 91.7783C38.7504 92.1414 38.7504 92.7297 39.1134 93.0928L61.0278 115.009C61.2093 115.191 61.4473 115.281 61.6851 115.281C61.9231 115.281 62.1609 115.191 62.3422 115.009C62.7055 114.646 62.7055 114.058 62.3422 113.695Z" fill="white"/>
<path d="M98.1066 27.8997C81.2269 27.8997 76.9549 39.1882 76.7805 39.6685C76.6078 40.1503 76.8568 40.6805 77.3377 40.8567C77.443 40.8948 77.5502 40.913 77.6555 40.913C78.035 40.913 78.3907 40.6787 78.5287 40.3033C78.6868 39.8721 82.5851 29.759 98.1066 29.759C98.6205 29.759 99.0363 29.3432 99.0363 28.8295C99.0363 28.3156 98.6205 27.8997 98.1066 27.8997Z" fill="white"/>
<path d="M98.9873 28.5338C98.8255 28.0471 98.299 27.7867 97.8125 27.9473C97.3348 28.1063 86.1035 31.9753 84.1754 43.55C84.0901 44.0567 84.4332 44.5351 84.9397 44.6194C84.9906 44.6285 85.0431 44.6322 85.094 44.6322C85.5387 44.6322 85.9329 44.3098 86.0091 43.8549C87.7506 33.4034 98.2955 29.7457 98.4008 29.7104C98.8873 29.5468 99.1507 29.0203 98.9873 28.5338Z" fill="white"/>
<path d="M66.9308 28.0057C66.6674 27.8669 66.3513 27.866 66.0845 27.9976C65.7595 28.16 58.134 32.0637 58.134 39.9843C58.134 40.498 58.5496 40.9139 59.0636 40.9139C59.5773 40.9139 59.9931 40.498 59.9931 39.9843C59.9931 34.2168 64.9862 30.799 66.4931 29.8994C68 30.8264 73.0075 34.3304 73.0075 39.9843C73.0075 40.498 73.4231 40.9139 73.937 40.9139C74.451 40.9139 74.8666 40.4978 74.8668 39.9843C74.8668 32.2499 67.2555 28.1754 66.9308 28.0057Z" fill="white"/>
<path d="M67.0686 16.9385C66.7365 16.6816 66.2769 16.6788 65.9429 16.9303C65.6235 17.169 58.134 22.8764 58.134 30.6881C58.134 31.202 58.5496 31.6178 59.0636 31.6178C59.5773 31.6178 59.9931 31.202 59.9931 30.6881C59.9931 24.9807 64.8153 20.3282 66.4931 18.8831C68.1669 20.36 73.0075 25.1116 73.0075 30.6881C73.0075 31.202 73.4231 31.6178 73.937 31.6178C74.451 31.6178 74.8666 31.202 74.8666 30.6881C74.8666 23.0589 67.3861 17.1846 67.0686 16.9385Z" fill="white"/>
<path d="M67.2536 0.396546C67.0777 0.15411 66.8271 -0.0518333 66.5003 0.0116232C66.2044 0.0116232 65.9266 0.15225 65.7523 0.390038C65.4401 0.812151 58.134 10.829 58.134 19.533C58.134 20.0469 58.5496 20.4627 59.0636 20.4627C59.5773 20.4627 59.9931 20.0469 59.9931 19.533C59.9931 13.0286 64.6357 5.38497 66.4931 2.588C68.3484 5.41844 73.0075 13.1664 73.0075 19.533C73.0075 20.0469 73.4231 20.4627 73.937 20.4627C74.451 20.4627 74.8666 20.0469 74.8666 19.5332C74.8666 11.0307 67.5642 0.826795 67.2536 0.396546Z" fill="white"/>
<path d="M97.1695 17.5587C97.1058 17.0475 96.6231 16.6954 96.131 16.7516C80.8526 18.6616 76.933 29.9157 76.773 30.3941C76.6113 30.8817 76.8746 31.4082 77.3611 31.5698C77.4592 31.6025 77.5573 31.6179 77.6554 31.6179C78.044 31.6179 78.4071 31.372 78.5377 30.9824C78.5721 30.8762 82.2342 20.3628 96.3634 18.5963C96.872 18.5326 97.233 18.0677 97.1695 17.5587Z" fill="white"/>
<path d="M97.1368 17.4111C96.9915 16.9206 96.4834 16.6356 95.9857 16.7818C95.7096 16.8634 89.1645 18.858 86.087 26.6278C85.898 27.1052 86.1323 27.6454 86.6081 27.8342C86.7208 27.8786 86.8371 27.8995 86.9514 27.8995C87.3217 27.8995 87.6704 27.6771 87.8156 27.3126C90.5461 20.4177 96.4506 18.583 96.5106 18.5658C97.0024 18.4187 97.282 17.9022 97.1368 17.4111Z" fill="white"/>
<path d="M93.1025 8.08293C92.9754 7.70707 92.6251 7.45208 92.2274 7.44836C92.2165 7.46301 80.6618 7.47835 76.773 19.2417C76.6115 19.7292 76.8765 20.255 77.363 20.4156C77.4611 20.4483 77.5592 20.4628 77.6554 20.4628C78.0459 20.4628 78.4087 20.2159 78.5377 19.8245C80.8145 12.9377 85.8548 10.5594 89.1429 9.73861C84.1898 14.2959 84.1482 17.338 84.1626 17.713C84.1844 18.2185 84.6872 18.5997 85.1103 18.5925C85.6149 18.5825 86.0198 18.1604 86.0217 17.6549C86.0217 17.6212 86.1072 14.2296 92.785 9.1159C93.1007 8.87462 93.2278 8.45972 93.1025 8.08293Z" fill="white"/>
<path d="M56.2186 39.6682C56.0462 39.188 51.7757 27.8994 34.8942 27.8994C34.3803 27.8994 33.9644 28.3153 33.9644 28.8292C33.9644 29.3429 34.3805 29.7587 34.8942 29.7587C50.4178 29.7587 54.314 39.8718 54.4721 40.3021C54.6099 40.6786 54.9658 40.9129 55.3453 40.9129C55.4506 40.9129 55.5578 40.8948 55.6631 40.8564C56.1442 40.6812 56.393 40.1503 56.2186 39.6682Z" fill="white"/>
<path d="M48.8253 43.5502C46.8953 31.9756 35.664 28.1064 35.1882 27.9476C34.6942 27.7861 34.175 28.0483 34.0116 28.535C33.8498 29.0226 34.1131 29.5491 34.5999 29.7107C34.7052 29.746 45.2448 33.3737 46.9916 43.8552C47.0659 44.3099 47.4599 44.6323 47.9067 44.6323C47.9576 44.6323 48.0083 44.6285 48.061 44.6197C48.5675 44.5351 48.9085 44.0567 48.8253 43.5502Z" fill="white"/>
<path d="M56.2255 30.394C56.0677 29.9156 52.1478 18.6615 36.8676 16.7516C36.359 16.6916 35.8943 17.0493 35.8309 17.5586C35.7674 18.0679 36.1286 18.5328 36.637 18.5962C50.7134 20.3556 54.3174 30.5511 54.4627 30.9842C54.5952 31.3719 54.9564 31.6169 55.345 31.6169C55.4431 31.6169 55.5428 31.6015 55.6409 31.5688C56.1256 31.4054 56.3889 30.8805 56.2255 30.394Z" fill="white"/>
<path d="M46.9136 26.6273C43.8361 18.8575 37.2908 16.8629 37.0149 16.7813C36.5228 16.637 36.0072 16.9194 35.862 17.4105C35.7167 17.9017 35.9979 18.4182 36.49 18.5653C36.5481 18.5825 42.4542 20.4172 45.1849 27.3121C45.3284 27.677 45.6789 27.8994 46.0492 27.8994C46.1635 27.8994 46.2779 27.8785 46.3906 27.8337C46.8683 27.6449 47.1021 27.1047 46.9136 26.6273Z" fill="white"/>
<path d="M56.2273 19.2417C52.3384 7.4783 40.9545 7.44018 40.7749 7.44831C40.379 7.45203 40.0269 7.70702 39.9016 8.08288C39.7763 8.45943 39.9034 8.87434 40.2175 9.11585C46.8265 14.1787 46.9771 17.5539 46.979 17.653C46.968 18.1576 47.362 18.5816 47.8685 18.6025C48.3769 18.6406 48.8143 18.2257 48.8362 17.7129C48.8527 17.3387 48.8108 14.3121 43.8996 9.77668C47.193 10.63 52.2187 13.0385 54.4629 19.8244C54.5917 20.2159 54.9547 20.4627 55.3452 20.4627C55.4415 20.4627 55.5396 20.4481 55.6356 20.4155C56.1239 20.2547 56.3889 19.7291 56.2273 19.2417Z" fill="white"/>
</g>
<defs>
<clipPath id="clip0_1_853">
<rect width="119" height="119" fill="white"/>
</clipPath>
</defs>
</svg>
