<svg width="78" height="15" viewBox="0 0 78 15" fill="none" xmlns="http://www.w3.org/2000/svg">
<path d="M15.1875 7.375C15.1875 11.0078 12.5215 14.0254 9.03516 14.5527V9.48438H10.7344L11.0566 7.375H9.03516V6.02734C9.03516 5.44141 9.32812 4.88477 10.2363 4.88477H11.1445V3.09766C11.1445 3.09766 10.3242 2.95117 9.50391 2.95117C7.86328 2.95117 6.7793 3.97656 6.7793 5.79297V7.375H4.93359V9.48438H6.7793V14.5527C3.29297 14.0254 0.65625 11.0078 0.65625 7.375C0.65625 3.36133 3.9082 0.109375 7.92188 0.109375C11.9355 0.109375 15.1875 3.36133 15.1875 7.375ZM37.3652 3.53711C37.7168 4.76758 37.7168 7.4043 37.7168 7.4043C37.7168 7.4043 37.7168 10.0117 37.3652 11.2715C37.1895 11.9746 36.6328 12.502 35.959 12.6777C34.6992 13 29.7188 13 29.7188 13C29.7188 13 24.709 13 23.4492 12.6777C22.7754 12.502 22.2188 11.9746 22.043 11.2715C21.6914 10.0117 21.6914 7.4043 21.6914 7.4043C21.6914 7.4043 21.6914 4.76758 22.043 3.53711C22.2188 2.83398 22.7754 2.27734 23.4492 2.10156C24.709 1.75 29.7188 1.75 29.7188 1.75C29.7188 1.75 34.6992 1.75 35.959 2.10156C36.6328 2.27734 37.1895 2.83398 37.3652 3.53711ZM28.0781 9.77734L32.2383 7.4043L28.0781 5.03125V9.77734ZM50.5781 4.00586C52.4238 4.00586 53.9473 5.5293 53.9473 7.375C53.9473 9.25 52.4238 10.7441 50.5781 10.7441C48.7031 10.7441 47.209 9.25 47.209 7.375C47.209 5.5293 48.7031 4.00586 50.5781 4.00586ZM50.5781 9.57227C51.7793 9.57227 52.7461 8.60547 52.7461 7.375C52.7461 6.17383 51.7793 5.20703 50.5781 5.20703C49.3477 5.20703 48.3809 6.17383 48.3809 7.375C48.3809 8.60547 49.377 9.57227 50.5781 9.57227ZM54.8555 3.88867C54.8555 4.32812 54.5039 4.67969 54.0645 4.67969C53.625 4.67969 53.2734 4.32812 53.2734 3.88867C53.2734 3.44922 53.625 3.09766 54.0645 3.09766C54.5039 3.09766 54.8555 3.44922 54.8555 3.88867ZM57.082 4.67969C57.1406 5.76367 57.1406 9.01562 57.082 10.0996C57.0234 11.1543 56.7891 12.0625 56.0273 12.8535C55.2656 13.6152 54.3281 13.8496 53.2734 13.9082C52.1895 13.9668 48.9375 13.9668 47.8535 13.9082C46.7988 13.8496 45.8906 13.6152 45.0996 12.8535C44.3379 12.0625 44.1035 11.1543 44.0449 10.0996C43.9863 9.01562 43.9863 5.76367 44.0449 4.67969C44.1035 3.625 44.3379 2.6875 45.0996 1.92578C45.8906 1.16406 46.7988 0.929688 47.8535 0.871094C48.9375 0.8125 52.1895 0.8125 53.2734 0.871094C54.3281 0.929688 55.2656 1.16406 56.0273 1.92578C56.7891 2.6875 57.0234 3.625 57.082 4.67969ZM55.6758 11.2422C56.0273 10.3926 55.9395 8.3418 55.9395 7.375C55.9395 6.4375 56.0273 4.38672 55.6758 3.50781C55.4414 2.95117 55.002 2.48242 54.4453 2.27734C53.5664 1.92578 51.5156 2.01367 50.5781 2.01367C49.6113 2.01367 47.5605 1.92578 46.7109 2.27734C46.125 2.51172 45.6855 2.95117 45.4512 3.50781C45.0996 4.38672 45.1875 6.4375 45.1875 7.375C45.1875 8.3418 45.0996 10.3926 45.4512 11.2422C45.6855 11.8281 46.125 12.2676 46.7109 12.502C47.5605 12.8535 49.6113 12.7656 50.5781 12.7656C51.5156 12.7656 53.5664 12.8535 54.4453 12.502C55.002 12.2676 55.4707 11.8281 55.6758 11.2422ZM76.4473 4.32812C76.4473 4.47461 76.4473 4.5918 76.4473 4.73828C76.4473 8.81055 73.3711 13.4688 67.7168 13.4688C65.959 13.4688 64.3477 12.9707 63 12.0918C63.2344 12.1211 63.4688 12.1504 63.7324 12.1504C65.168 12.1504 66.4863 11.6523 67.541 10.832C66.1934 10.8027 65.0508 9.92383 64.6699 8.69336C64.875 8.72266 65.0508 8.75195 65.2559 8.75195C65.5195 8.75195 65.8125 8.69336 66.0469 8.63477C64.6406 8.3418 63.5859 7.11133 63.5859 5.61719V5.58789C63.9961 5.82227 64.4941 5.93945 64.9922 5.96875C64.1426 5.41211 63.6152 4.47461 63.6152 3.41992C63.6152 2.83398 63.7617 2.30664 64.0254 1.86719C65.5488 3.71289 67.834 4.94336 70.3828 5.08984C70.3242 4.85547 70.2949 4.62109 70.2949 4.38672C70.2949 2.6875 71.6719 1.31055 73.3711 1.31055C74.25 1.31055 75.041 1.66211 75.627 2.27734C76.3008 2.13086 76.9746 1.86719 77.5605 1.51562C77.3262 2.24805 76.8574 2.83398 76.2129 3.21484C76.8281 3.15625 77.4434 2.98047 77.9707 2.74609C77.5605 3.36133 77.0332 3.88867 76.4473 4.32812Z" fill="#DFEEB6"/>
</svg>
