<svg width="15" height="13" viewBox="0 0 15 13" fill="none" xmlns="http://www.w3.org/2000/svg">
<path d="M13.4473 3.32812C13.4473 3.47461 13.4473 3.5918 13.4473 3.73828C13.4473 7.81055 10.3711 12.4688 4.7168 12.4688C2.95898 12.4688 1.34766 11.9707 0 11.0918C0.234375 11.1211 0.46875 11.1504 0.732422 11.1504C2.16797 11.1504 3.48633 10.6523 4.54102 9.83203C3.19336 9.80273 2.05078 8.92383 1.66992 7.69336C1.875 7.72266 2.05078 7.75195 2.25586 7.75195C2.51953 7.75195 2.8125 7.69336 3.04688 7.63477C1.64062 7.3418 0.585938 6.11133 0.585938 4.61719V4.58789C0.996094 4.82227 1.49414 4.93945 1.99219 4.96875C1.14258 4.41211 0.615234 3.47461 0.615234 2.41992C0.615234 1.83398 0.761719 1.30664 1.02539 0.867188C2.54883 2.71289 4.83398 3.94336 7.38281 4.08984C7.32422 3.85547 7.29492 3.62109 7.29492 3.38672C7.29492 1.6875 8.67188 0.310547 10.3711 0.310547C11.25 0.310547 12.041 0.662109 12.627 1.27734C13.3008 1.13086 13.9746 0.867188 14.5605 0.515625C14.3262 1.24805 13.8574 1.83398 13.2129 2.21484C13.8281 2.15625 14.4434 1.98047 14.9707 1.74609C14.5605 2.36133 14.0332 2.88867 13.4473 3.32812Z" fill="#433840"/>
</svg>
