<svg width="17" height="12" viewBox="0 0 17 12" fill="none" xmlns="http://www.w3.org/2000/svg">
<path d="M16.209 2.53711C16.5605 3.76758 16.5605 6.4043 16.5605 6.4043C16.5605 6.4043 16.5605 9.01172 16.209 10.2715C16.0332 10.9746 15.4766 11.502 14.8027 11.6777C13.543 12 8.5625 12 8.5625 12C8.5625 12 3.55273 12 2.29297 11.6777C1.61914 11.502 1.0625 10.9746 0.886719 10.2715C0.535156 9.01172 0.535156 6.4043 0.535156 6.4043C0.535156 6.4043 0.535156 3.76758 0.886719 2.53711C1.0625 1.83398 1.61914 1.27734 2.29297 1.10156C3.55273 0.75 8.5625 0.75 8.5625 0.75C8.5625 0.75 13.543 0.75 14.8027 1.10156C15.4766 1.27734 16.0332 1.83398 16.209 2.53711ZM6.92188 8.77734L11.082 6.4043L6.92188 4.03125V8.77734Z" fill="#433840"/>
</svg>
