<svg width="400" height="12" viewBox="0 0 400 12" fill="none" xmlns="http://www.w3.org/2000/svg">
<g clip-path="url(#clip0_3_42)">
<g filter="url(#filter0_i_3_42)">
<path d="M0 6.00012L194.229 0.00255765C197.389 -0.0951395 200 2.61852 200 6.00012C200 9.38268 197.389 12.0949 194.229 11.9975L0 6.00012Z" fill="#A4C547"/>
</g>
<g filter="url(#filter1_i_3_42)">
<path d="M400 6.00012L205.771 11.9975C202.611 12.0949 200 9.38268 200 6.00012C200 2.61852 202.611 -0.0951395 205.771 0.00255765L400 6.00012Z" fill="#A4C547"/>
</g>
<path d="M201 12C204.314 12 207 9.31371 207 6C207 2.68629 204.314 0 201 0C197.686 0 195 2.68629 195 6C195 9.31371 197.686 12 201 12Z" fill="#ECB802"/>
</g>
<defs>
<filter id="filter0_i_3_42" x="0" y="0" width="200" height="16" filterUnits="userSpaceOnUse" color-interpolation-filters="sRGB">
<feFlood flood-opacity="0" result="BackgroundImageFix"/>
<feBlend mode="normal" in="SourceGraphic" in2="BackgroundImageFix" result="shape"/>
<feColorMatrix in="SourceAlpha" type="matrix" values="0 0 0 0 0 0 0 0 0 0 0 0 0 0 0 0 0 0 127 0" result="hardAlpha"/>
<feOffset dy="4"/>
<feGaussianBlur stdDeviation="2"/>
<feComposite in2="hardAlpha" operator="arithmetic" k2="-1" k3="1"/>
<feColorMatrix type="matrix" values="0 0 0 0 0 0 0 0 0 0 0 0 0 0 0 0 0 0 0.25 0"/>
<feBlend mode="normal" in2="shape" result="effect1_innerShadow_3_42"/>
</filter>
<filter id="filter1_i_3_42" x="200" y="0" width="200" height="16" filterUnits="userSpaceOnUse" color-interpolation-filters="sRGB">
<feFlood flood-opacity="0" result="BackgroundImageFix"/>
<feBlend mode="normal" in="SourceGraphic" in2="BackgroundImageFix" result="shape"/>
<feColorMatrix in="SourceAlpha" type="matrix" values="0 0 0 0 0 0 0 0 0 0 0 0 0 0 0 0 0 0 127 0" result="hardAlpha"/>
<feOffset dy="4"/>
<feGaussianBlur stdDeviation="2"/>
<feComposite in2="hardAlpha" operator="arithmetic" k2="-1" k3="1"/>
<feColorMatrix type="matrix" values="0 0 0 0 0 0 0 0 0 0 0 0 0 0 0 0 0 0 0.25 0"/>
<feBlend mode="normal" in2="shape" result="effect1_innerShadow_3_42"/>
</filter>
<clipPath id="clip0_3_42">
<rect width="400" height="12" fill="white"/>
</clipPath>
</defs>
</svg>
