<svg width="400" height="10" viewBox="0 0 400 10" fill="none" xmlns="http://www.w3.org/2000/svg">
<g clip-path="url(#clip0_1_36)">
<g filter="url(#filter0_i_1_36)">
<path d="M0 5.0001L194.229 0.00213138C197.389 -0.0792829 200 2.1821 200 5.0001C200 7.8189 197.389 10.0791 194.229 9.99788L0 5.0001Z" fill="#A4C547"/>
</g>
<g filter="url(#filter1_i_1_36)">
<path d="M400 5.0001L205.771 9.99788C202.611 10.0791 200 7.8189 200 5.0001C200 2.1821 202.611 -0.0792829 205.771 0.00213138L400 5.0001Z" fill="#A4C547"/>
</g>
<path d="M200 10C202.761 10 205 7.76142 205 5C205 2.23858 202.761 0 200 0C197.239 0 195 2.23858 195 5C195 7.76142 197.239 10 200 10Z" fill="#ECB802"/>
</g>
<defs>
<filter id="filter0_i_1_36" x="0" y="0" width="200" height="14" filterUnits="userSpaceOnUse" color-interpolation-filters="sRGB">
<feFlood flood-opacity="0" result="BackgroundImageFix"/>
<feBlend mode="normal" in="SourceGraphic" in2="BackgroundImageFix" result="shape"/>
<feColorMatrix in="SourceAlpha" type="matrix" values="0 0 0 0 0 0 0 0 0 0 0 0 0 0 0 0 0 0 127 0" result="hardAlpha"/>
<feOffset dy="4"/>
<feGaussianBlur stdDeviation="2"/>
<feComposite in2="hardAlpha" operator="arithmetic" k2="-1" k3="1"/>
<feColorMatrix type="matrix" values="0 0 0 0 0 0 0 0 0 0 0 0 0 0 0 0 0 0 0.25 0"/>
<feBlend mode="normal" in2="shape" result="effect1_innerShadow_1_36"/>
</filter>
<filter id="filter1_i_1_36" x="200" y="0" width="200" height="14" filterUnits="userSpaceOnUse" color-interpolation-filters="sRGB">
<feFlood flood-opacity="0" result="BackgroundImageFix"/>
<feBlend mode="normal" in="SourceGraphic" in2="BackgroundImageFix" result="shape"/>
<feColorMatrix in="SourceAlpha" type="matrix" values="0 0 0 0 0 0 0 0 0 0 0 0 0 0 0 0 0 0 127 0" result="hardAlpha"/>
<feOffset dy="4"/>
<feGaussianBlur stdDeviation="2"/>
<feComposite in2="hardAlpha" operator="arithmetic" k2="-1" k3="1"/>
<feColorMatrix type="matrix" values="0 0 0 0 0 0 0 0 0 0 0 0 0 0 0 0 0 0 0.25 0"/>
<feBlend mode="normal" in2="shape" result="effect1_innerShadow_1_36"/>
</filter>
<clipPath id="clip0_1_36">
<rect width="400" height="10" fill="white"/>
</clipPath>
</defs>
</svg>
