<svg width="182" height="6" viewBox="0 0 182 6" fill="none" xmlns="http://www.w3.org/2000/svg">
<g clip-path="url(#clip0_1_30)">
<g filter="url(#filter0_i_1_30)">
<path d="M0 3.00001L87.403 0.476906C88.825 0.435806 90 1.57741 90 3.00001C90 4.42301 88.825 5.56401 87.403 5.52301L0 3.00001Z" fill="#A4C547"/>
</g>
<g filter="url(#filter1_i_1_30)">
<path d="M182 3.00001L94.597 5.52301C93.175 5.56401 92 4.42301 92 3.00001C92 1.57741 93.175 0.435806 94.597 0.476906L182 3.00001Z" fill="#A4C547"/>
</g>
<path d="M91 6C92.6569 6 94 4.65685 94 3C94 1.34315 92.6569 0 91 0C89.3431 0 88 1.34315 88 3C88 4.65685 89.3431 6 91 6Z" fill="#ECB802"/>
</g>
<defs>
<filter id="filter0_i_1_30" x="0" y="0.47583" width="90" height="9.04825" filterUnits="userSpaceOnUse" color-interpolation-filters="sRGB">
<feFlood flood-opacity="0" result="BackgroundImageFix"/>
<feBlend mode="normal" in="SourceGraphic" in2="BackgroundImageFix" result="shape"/>
<feColorMatrix in="SourceAlpha" type="matrix" values="0 0 0 0 0 0 0 0 0 0 0 0 0 0 0 0 0 0 127 0" result="hardAlpha"/>
<feOffset dy="4"/>
<feGaussianBlur stdDeviation="2"/>
<feComposite in2="hardAlpha" operator="arithmetic" k2="-1" k3="1"/>
<feColorMatrix type="matrix" values="0 0 0 0 0 0 0 0 0 0 0 0 0 0 0 0 0 0 0.25 0"/>
<feBlend mode="normal" in2="shape" result="effect1_innerShadow_1_30"/>
</filter>
<filter id="filter1_i_1_30" x="92" y="0.47583" width="90" height="9.04825" filterUnits="userSpaceOnUse" color-interpolation-filters="sRGB">
<feFlood flood-opacity="0" result="BackgroundImageFix"/>
<feBlend mode="normal" in="SourceGraphic" in2="BackgroundImageFix" result="shape"/>
<feColorMatrix in="SourceAlpha" type="matrix" values="0 0 0 0 0 0 0 0 0 0 0 0 0 0 0 0 0 0 127 0" result="hardAlpha"/>
<feOffset dy="4"/>
<feGaussianBlur stdDeviation="2"/>
<feComposite in2="hardAlpha" operator="arithmetic" k2="-1" k3="1"/>
<feColorMatrix type="matrix" values="0 0 0 0 0 0 0 0 0 0 0 0 0 0 0 0 0 0 0.25 0"/>
<feBlend mode="normal" in2="shape" result="effect1_innerShadow_1_30"/>
</filter>
<clipPath id="clip0_1_30">
<rect width="182" height="6" fill="white"/>
</clipPath>
</defs>
</svg>
